
<svg viewBox="0 0 1518 229" width="1518" height="229" fill="none" xmlns="http://www.w3.org/2000/svg">

	<path fill="#3AADAA" class="st0" d="M1516.3,0c-0.7,0.4-1.8,1.4-2.6,2.3c-0.7,0.9-2.5,2.1-4,2.7c-6.6,2.7-11.5,5.9-10.3,6.7
		c0.3,0.2,0.9-0.1,1.2-0.7c0.6-1,0.6-1,0.6,0c0,1.4,1.1,1.3,1.5-0.1c0.4-1.3,1.9-1.6,2.2-0.5c0.2,0.6,12,1.9,12.5,1.4
		C1518.6,10.7,1517.3-0.6,1516.3,0L1516.3,0z M1516.2,3.5c0,1.3-1.8,1.1-2-0.2c-0.2-0.8,0.1-1,0.9-0.9
		C1515.7,2.5,1516.2,3,1516.2,3.5z M1492.9,12c0,0.4,0.3,0.5,0.6,0.3c0.3-0.2,0.6-0.5,0.6-0.6c0-0.1-0.3-0.3-0.6-0.3
		S1492.9,11.6,1492.9,12z M1496.7,13.2c-0.3,0.3-2.6,0.6-5.2,0.8c-6.4,0.4-10.9,2.4-12,5.4c-0.7,2-1,2.1-3,2
		c-1.5-0.1-2.8,0.4-3.9,1.2c-0.9,0.7-2.5,1.3-3.5,1.3c-1,0-1.6,0.3-1.4,0.6c0.3,0.5-4,0.4-7.1-0.3c-0.7-0.1-1.1,0.2-1.1,0.9
		c0,0.9-0.4,1.1-2.1,1c-1.2-0.1-2.1,0.1-2.1,0.4s0.4,0.5,0.8,0.5c0.5,0,1,0.4,1.2,0.9c0.2,0.5,0.7,0.8,1.1,0.6
		c0.4-0.2,0.2,0.1-0.5,0.6c-0.7,0.5-2,1.1-2.9,1.3c-0.9,0.2-1.7,0.6-1.7,0.9c-0.1,0.8-0.3,1.3-0.8,2.5c-0.3,0.6-0.2,1.4,0.3,2
		c0.6,0.8,0.5,0.9-1,0.9h-1.7l0,9.5c0.1,9.2,0.1,9.6,1.5,11.1c2.1,2.3,3.9,4.6,6.1,7.6c1,1.4,2.5,2.8,3.3,3.1
		c0.8,0.3,1.6,0.8,1.8,1.2c0.2,0.3,1,0.6,1.8,0.6s2.1,0.5,2.9,1.2c1.2,1,1.9,1.1,3.5,0.6c3-0.8,3-0.6,2.9,11.8l-0.2,11.4l-2.7,0.2
		c-4.5,0.2-7.3-3.4-7.8-10.2c-0.3-3.7-0.4-4.2-1.5-4.2c-0.7,0-1.6-0.5-2-1.1c-0.7-0.9-1.9-1.1-8.1-1.2l-7.3-0.1l-2.1,1.8
		c-1.1,1-2.5,1.8-3,1.8c-0.5,0-1,0.2-1,0.6c0,0.8-4.9,4-6.8,4.5c-0.9,0.2-3.2,1.4-5.1,2.5c-1.9,1.2-3.9,2.1-4.4,2.1
		c-0.5,0-1.4,0.4-2.1,0.9c-0.6,0.5-1.3,0.8-1.6,0.6c-1.2-0.7-10.8,3.3-10.5,4.4c0.1,0.4,0,0.8-0.4,0.8s-0.7-0.3-0.8-0.7
		c-0.2-0.8-9.7,0.3-11.6,1.3c-0.6,0.3-1.8,0.5-2.8,0.5c-0.9-0.1-2,0-2.5,0.2c-2,0.7-13.3,1.6-16.9,1.4l-3.8-0.3v3.6
		c0,4.6-1.8,6.8-3.6,4.6c-0.4-0.5-1.1-0.9-1.6-0.9c-0.4,0-0.9-0.6-1-1.4c-0.1-0.8-0.8-1.6-1.6-2c-0.9-0.4-1.3-1-1.1-1.7
		c0.5-1.9-2.3-2.4-13.3-2.4c-7.8,0-10.9-0.2-12.6-0.9c-1.8-0.7-2.7-0.8-4.2-0.2c-2.9,1-11.1,1.5-12.4,0.8c-0.9-0.5-2-0.4-4.2,0.4
		c-1.8,0.6-5.2,1.1-8.5,1.2c-7.9,0.2-9.7,1.5-6.2,4.3c1.3,1.1,1.3,1.2,0.3,2.3c-1.4,1.5-1.3,1.8,0.3,2.2c1.3,0.4,1.3,0.4,0.2,0.9
		c-1,0.4-1.1,0.5-0.2,0.8c0.6,0.2,1,0.7,1,1c0,0.9-3.1,0.1-4-1c-0.4-0.5-1.1-0.8-1.6-0.8c-0.5,0-1.1-0.3-1.2-0.8
		c-0.3-0.8-1.2,0.1-1.8,1.7c-0.1,0.4-0.5,0.3-1-0.2c-1.5-1.4-3.8-1-3.3,0.6c0.6,2,1.4,2.6,1.8,1.5c0.5-1.4,1.9-1.3,2.7,0.2
		c0.4,0.7,1.3,1.5,2.2,1.8c1.3,0.5,1.5,0.8,1.1,2.7c-0.2,1.2-0.2,2.1,0.1,2c1.1-0.2,2,0.1,2,0.7c0,1.1-2.3,0.6-3.2-0.7
		c-0.6-0.9-1-1-1.3-0.5c-0.2,0.4-0.1,0.9,0.4,1.2c0.6,0.4,0.6,0.7,0,1.4c-0.5,0.6-0.5,1-0.1,1.3c1,0.6,0.8,1.7-0.3,1.3
		c-0.5-0.2-1.1,0-1.3,0.6c-0.7,1.7-7.8,4.5-10,3.9c-2.2-0.6-4.5-0.5-6,0.2c-0.5,0.2-1.9,0.5-3.1,0.6c-2.2,0.1-4.3,1.4-3.8,2.2
		c0.2,0.3,0,0.6-0.5,0.8c-0.5,0.2-0.4,0.3,0.2,0.4c0.6,0,1.2-0.6,1.4-1.3c0.2-0.8,0.5-1.1,0.7-0.6c0.2,0.4,0.8,0.8,1.5,0.8
		c0.6,0,1.2,0.3,1.2,0.6c0,0.3-0.7,0.6-1.5,0.6c-0.9,0-1.5,0.4-1.5,0.8c0,1.5-1.9,1.7-3.3,0.4c-1-0.9-1.5-1-2-0.5s-1,0.4-1.9-0.4
		c-1.4-1.3-1.6-2.4-0.4-1.9c0.5,0.2,1-0.2,1.2-1c0.4-1.6,0-2.1-1-1.1c-0.4,0.4-1.3,0.7-2.1,0.7s-1.5,0.2-1.7,0.6
		c-0.4,0.7-3.5-0.1-3.8-1c-0.1-0.4,0-0.7,0.4-0.7s0.7-0.7,0.7-1.5c0-1,0.4-1.7,1.4-2.1c1.3-0.5,1.3-0.6,0.1-0.6
		c-1.6-0.1-3.9,2.1-3.9,3.6c0,0.7-0.3,1.1-0.6,0.9c-0.3-0.2-0.6-1-0.6-1.9c0-1-0.5-1.7-1.4-2.1c-0.8-0.4-1.8-1.3-2.2-2.1
		c-0.4-0.8-1.3-1.5-2-1.6c-0.7-0.1-1.7-0.2-2.2-0.2c-0.5-0.1-1.2-0.2-1.7-0.2c-1.3-0.1-0.9-1.3,0.4-1.3c0.7,0,1.2-0.2,1.2-0.5
		c0-0.3,0.8-1.3,1.8-2.2c1.8-1.8,1.9-3.6,0.1-3c-0.8,0.3-1.2-0.1-1.5-1.8c-0.3-1.7-0.6-2.1-1.4-1.8c-0.6,0.2-1.4,0.4-1.9,0.3
		c-0.5,0-1.5-0.1-2.1-0.1c-0.7,0-1.7-0.5-2.3-1.1c-1.1-1-5.1-1.3-10.4-0.8c-1,0.1-2.8-0.1-4-0.5c-1.2-0.3-3.5-1-5.2-1.4
		c-1.7-0.4-3.2-1-3.4-1.3c-0.2-0.3-0.6-0.5-0.9-0.4c-1,0.3-4.8-0.8-5.7-1.6c-1.4-1.2-4.8-0.5-4.4,1c0.2,0.9,0,1.1-1,1.1
		c-0.7,0-1.3-0.3-1.3-0.6c0-0.3-0.3-0.5-0.7-0.2c-0.4,0.3-0.4,0.6,0,1.2c0.3,0.4,0.5,0.9,0.2,1.2c-0.2,0.2-0.1,0.4,0.4,0.4
		c0.4,0,0.6,0.3,0.4,0.6c-0.2,0.3,0.1,0.8,0.7,1.2c1,0.6,1,0.7-0.1,1.5c-1.3,1,0.7,2.7,2.4,2c0.5-0.2,0.8,0.1,0.8,0.6
		c0,0.7-0.3,0.8-1.4,0.5c-3.3-1.1-7.7,0.1-7.7,2.1c0,0.6-0.8,1.3-1.7,1.8l-1.7,0.8l1.9,1.7c2.1,1.8,2,2.4-0.2,2.4
		c-2.2,0-2.2,1,0,1.5c2.2,0.4,3.7,1.7,3.1,2.8c-0.2,0.4-1,0.2-2.1-0.6c-1-0.7-2-1.2-2.2-1.2c-0.3,0-1.2-0.7-1.9-1.5
		c-2-2.1-6.3-1.8-9.9,0.6c-2.3,1.5-2.2,4.4,0.1,3c0.3-0.2,0.8,0.1,1.2,0.6c0.4,0.5,1.2,0.7,1.9,0.5c0.9-0.2,1.2,0,1.2,1
		c0,0.7-0.3,1.3-0.6,1.3c-0.3,0-0.6,0.4-0.6,0.9c0,0.7-0.3,0.6-1.2-0.3c-1.3-1.3-2-1.4-5.5-1.3c-1.8,0.1-2.3-0.2-3.2-1.6
		c-0.8-1.4-1.5-1.8-3.3-1.8c-3.2-0.1-7.6-3.7-4.5-3.7c1.5,0,0.4-2-1.5-2.8c-2.8-1.2-2.3-4.5,0.6-4.5c0.5,0,0.9-0.2,0.9-0.5
		s-0.7-0.4-1.6-0.2c-1.1,0.2-2-0.1-3-1.1c-0.8-0.8-1.5-1.1-1.5-0.7c0,1.1-1.8,1.8-5.5,2.2c-1.8,0.2-4.3,0.6-5.4,0.9
		c-2.1,0.6-3.1,0.4-3.1-0.6c0-0.3,0.7-0.6,1.5-0.6c2.9,0,3.2-4,0.5-5.5c-1.3-0.7-1.7-0.6-3.3,0.3c-3,1.8-7.6,2.2-8.8,0.9
		c-0.9-1-0.9-1.1,0.1-1.5c0.6-0.2,1.7-0.6,2.3-1c0.9-0.5,1.3-0.4,1.8,0.2c0.5,0.8,0.8,0.8,2.3,0c1.7-0.9,2.3-2,1-2
		c-0.4,0-1-0.5-1.5-1.1c-0.8-1-0.9-1-1.8,0.4c-0.8,1.2-1.4,1.3-3,1.1c-1.7-0.3-2.1-0.2-2.7,1.2c-0.4,0.8-1.1,1.7-1.6,1.9
		c-0.5,0.2-0.9,0.7-0.9,1.2c0,0.4-0.7,1.3-1.5,2c-1.9,1.5-1.9,1.9,0,1.9c2.1,0,2.6,1.2,1,2.5c-0.7,0.6-1.3,1.3-1.3,1.6
		s-0.5,0.7-1.1,0.9c-0.8,0.2-1.1,0-0.8-0.8c0.1-0.6,0-1.6-0.4-2.2c-0.5-0.9-0.7-0.7-0.7,1.4c0,2.7-3.7,6.2-5.8,5.5
		c-1.5-0.6-3.2,1.7-2.8,4c0.1,0.2-0.2,0.4-0.5,0.4c-0.4,0-1.7,1.1-3,2.4c-1.3,1.3-2.8,2.4-3.3,2.4c-0.8,0-0.9,0.2-0.4,1.1
		c1.5,2.8-0.4,4.4-5.1,4.3c-1.3-0.1-3.4,0.2-4.6,0.5c-2.6,0.7-3.9,0.1-3.4-1.5c0.3-1-0.1-1.2-3-1.6c-1.8-0.2-4-0.8-4.9-1.2
		c-0.9-0.5-3.2-1-5.1-1.2c-4.2-0.4-6.5-1.2-6.9-2.5c-0.2-0.5-0.7-0.9-1.2-0.9s-1.3-0.7-1.8-1.5c-0.5-0.8-2-1.9-3.3-2.4
		c-1.3-0.5-2.7-1.5-3.1-2.2c-1.1-1.8-1.7-1.5-1.7,1.1c0,5-7.5,7.9-11.2,4.4c-0.8-0.7-1.7-1.2-2-1c-0.6,0.4-6.8-1-8-1.8
		c-0.3-0.2-0.6-1.2-0.6-2.3c0-3.9-6.7-6-8.6-2.6c-0.3,0.5-0.9,1-1.4,1c-0.4,0-1.1,0.4-1.6,0.9c-0.9,1.1-5.6,1.2-7.2,0.2
		c-0.9-0.5-1.4-0.4-2.7,0.8c-2.3,2.1-7.7,3.8-9.7,3c-1.2-0.5-1.8-0.4-2.3,0.2c-0.4,0.5-1.4,0.9-2.3,1c-2,0.2-3.3,2.1-2,2.9
		c1.5,0.9-0.3,2.6-1.9,1.8c-0.8-0.4-1.4-0.4-2,0c-0.5,0.4-2.6,0.5-5.1,0.4c-4.4-0.2-6.1,0.9-4.4,2.9c0.5,0.7,1.3,5.4,1.3,8.5l0,1.8
		l4.2-0.1c2.3,0,4.2-0.3,4.1-0.6c0-0.3,0.3-0.8,0.8-1c0.5-0.3,0.2-0.4-0.9-0.1c-2.9,0.7-4.8-0.1-3.9-1.6c0.6-1,1.3-1.2,4.4-1.1
		c2,0.1,5.3-0.1,7.4-0.3c4.1-0.4,5.1,0.7,2,2.4c-1.3,0.7-1.3,0.8-0.2,0.8c0.8,0,1,0.2,0.5,0.5c-0.5,0.3,0,0.5,1.2,0.6
		c1.6,0.1,5,0.4,8,0.7c1.2,0.1-2.9,1.9-4.5,1.9c-2.1,0-2.8,0.6-3.3,2.5c-0.4,1.6-0.4,1.6,2.6,1.4l3-0.2l-0.4,1.9
		c-0.2,1.1-0.8,2.3-1.3,2.7c-1.1,0.8,1.2,0.8,4.9-0.2c1.1-0.3,1.7-0.2,1.7,0.3c0,0.5,0.4,0.6,1.1,0.3c1.9-0.8,4.4-0.7,5.1,0.1
		c0.5,0.6,0.4,0.8-0.3,0.8c-1.5,0-3.6,2.2-2.4,2.7c2.2,0.8,0.3,1.3-6.1,1.3c-4.5,0-7.2,0.3-7.8,0.8c-0.5,0.4-1.4,0.7-2,0.6
		c-0.9-0.2-1.2,0.3-1.3,1.9c-0.6,6.2-10.9,10.1-17.9,6.7c-4.4-2.1-3.3-4,2.2-3.7c1.7,0.1,2.3-0.1,2.3-0.8c0-1.2,1.2-1.9,1.8-1
		c0.3,0.6,0.8,0.6,1.6,0.1c1.5-0.8-0.2-1.6-2.5-1.2c-1.1,0.2-1.5,0-1.6-0.7c0-0.6-0.2-0.7-0.3-0.2c-0.2,0.4-1,0.8-1.7,0.8
		s-1.6,0.2-1.8,0.6c-0.4,0.6-9.1,0.4-10.7-0.2c-0.5-0.2-1.5-1.9-2.1-3.8c-1.7-5-7.1-9.8-9.5-8.3c-0.3,0.2-0.9,0.1-1.3-0.2
		c-0.4-0.3-1.3-0.5-2-0.6c-0.7-0.1-2-0.3-3-0.4c-1-0.1-1.8-0.3-1.8-0.4c0-0.1-1.6-0.6-3.6-1.1c-3.6-1-5.3-2.5-2.8-2.5
		c0.8,0,1.3-0.4,1.3-1c0-0.6-0.3-0.9-1-0.6c-0.5,0.2-1.3,0.4-1.8,0.4s-1,0.5-1.2,1.2c-0.5,1.5-1,1.5-2.6,0c-0.7-0.7-1.9-1.2-2.5-1.2
		s-1.2-0.4-1.2-0.9c0-1.1,1.6-1.2,2-0.2c0.2,0.4,0.3,0.2,0.3-0.6c0-0.8-0.4-1.4-1-1.6c-0.6-0.1,0.8-0.3,3.1-0.3
		c3.4-0.1,4.1,0.1,3.8,0.8c-0.4,1,0.6,1.8,1.1,0.9c0.7-1.1,2.6-0.7,2.3,0.5c-0.2,0.7,0.1,1.3,0.6,1.5c1.2,0.5,1.8-0.5,1.3-2
		c-0.6-1.8,0.1-1.4,1.2,0.6c0.9,1.7,1,1.8,2.4,0.9c1.2-0.8,1.5-0.8,1.8,0c0.2,0.5,0,1-0.4,1.2c-0.4,0.2,0,0.3,1,0.3
		c1,0,1.7-0.3,1.7-0.7c0-0.5,0.2-0.4,0.6,0.2c0.5,0.8,0.8,0.8,1.9,0.1c1-0.6,1.4-0.6,1.6-0.1c0.5,1.3,2,0.7,2-0.8
		c0-0.8-0.3-1.5-0.6-1.5s-0.9-1.1-1.2-2.3c-1.1-4-3-6.3-6.1-7c-2.1-0.5-3-1.1-4.1-2.8l-1.4-2.2l-3.4,0.8c-3.8,0.9-5.1,0.6-5.1-1
		c0-1.1,1.6-1.8,6.8-2.6c1.2-0.2,2.4-0.6,2.6-1c0.5-0.7-1.7-0.8-2.5,0c-0.3,0.3-1.7,0.7-3,0.9c-1.3,0.2-3.2,0.5-4,0.7
		c-1.4,0.4-4.7-3.5-3.5-4.1c0.1-0.1,0.8-0.5,1.6-0.9c0.9-0.5,2.8-0.6,5.9-0.4c3.7,0.3,4.6,0.2,4.6-0.5c0-0.7,0.1-0.7,0.5,0
		c0.3,0.5,1.1,0.7,1.9,0.5c0.8-0.2,1.4,0,1.6,0.5c0.2,0.5,0.5,0.9,0.7,0.9c0.6,0,2.6-5.3,2.3-6.2c-0.2-0.4,0.2-1.6,0.9-2.6
		c1.1-1.8,1.1-1.9,0-2.9c-1.8-1.6-3.3-0.7-2.8,1.9c0.3,1.6,0.1,2.3-0.8,3.1c-0.6,0.6-1.3,1.5-1.5,2c-1.2,3.1-8.2,0.8-8.3-2.7
		c0-1-0.3-1.5-0.7-1.3c-0.4,0.2-0.8-0.2-1-0.9c-0.5-1.9-3.1-1.7-3.6,0.2c-0.2,0.8-0.2,1.9,0,2.4c0.4,1.1-1,4-2.6,5.4
		c-0.7,0.6-1.4,2.3-1.6,3.9c-0.2,1.5-0.9,3.8-1.4,4.9c-1,2.1-1.2,5.6-0.4,6.4c0.2,0.2,0.4,0.9,0.4,1.4c0,0.6,0.4,1.2,0.9,1.4
		c1.2,0.5,1.1,2-0.2,2.5c-1,0.4-1,0.4,0,1c1.1,0.6,1.5,2.4,0.5,2.4c-1.6,0-3.1-3.3-1.8-3.8c0.4-0.2,0.5-0.5,0.2-0.8
		c-0.3-0.3-0.7-0.2-0.8,0.2c-0.4,1.1-2.1,0.9-1.9-0.3c0.1-0.8-0.3-1.1-1.7-1.1c-1-0.1-2.5-0.7-3.2-1.4c-0.7-0.7-1.6-1.1-1.9-0.9
		c-0.3,0.2-0.6,0-0.6-0.5c0-2.4-5.4-6.2-7.6-5.4c-1.7,0.6-2.3,0.6-3,0.1c-1.3-1.1-1.1-3.4,0.4-3.8c1.2-0.3,1.2-0.4,0.2-2
		c-2.5-4.1-4.6-6.3-5.3-5.7c-0.8,0.8-1,8.6-0.2,9.6c0.5,0.6,0.3,1.1-0.8,1.9c-1,0.7-1.1,1.9-0.4,3.4c1.1,2.2,1,2.3-0.2,3.9
		c-0.7,0.9-1.2,1.9-1.2,2.2c0,0.3-1.5,2.1-3.3,4.1c-2.4,2.7-3.4,4.2-3.6,6c-0.2,1.3-0.6,4-0.9,6c-0.3,2-1.4,5.3-2.4,7.3
		c-2,3.9-2,6.2-0.2,16.1c0.6,3.3-1.2,4.4-4.6,2.7c-1.2-0.6-2.6-0.8-4.3-0.6c-1.7,0.2-2.5,0.1-2.5-0.3c0-0.4-0.5-0.7-1.1-0.7
		s-1.5-0.8-2.1-1.8c-0.5-1-2-2.2-3.1-2.8c-2-0.9-6.2-4.7-10.2-9.1c-0.9-1-2.9-2.8-4.4-4.1c-1.6-1.3-3.5-3.2-4.2-4.3
		c-1.1-1.7-4.9-6.6-7.1-9.2c-0.4-0.4-1-1.4-1.4-2.1c-0.4-0.7-1.2-1.9-1.9-2.6c-0.7-0.7-1.5-1.7-1.9-2.1c-1.2-1.4-5.8-5.3-6.3-5.3
		c-0.3,0-1.1-1.5-1.8-3.2c-0.7-1.8-1.9-3.8-2.7-4.5c-0.7-0.7-2.8-2.9-4.7-5c-1.8-2-4.8-5.1-6.5-6.8c-1.8-1.7-3.2-3.3-3.2-3.6
		c0-0.6-2.5-2.8-3.2-2.8c-1.2-0.1-4.6,4.5-4,5.2c0.8,1,0.1,1.8-0.8,0.9c-0.5-0.5-2.2,0.1-5.9,2c-9.9,5-19.6,4.2-22.9-2
		c-0.7-1.3-1.4-2.4-1.6-2.6c-0.2-0.2-0.5-1.1-0.6-2.1c-0.2-1.4-0.5-1.8-1.4-1.7c-0.7,0.1-2.2,0.2-3.4,0.4c-1.2,0.1-2.5,0.4-2.8,0.6
		c-0.3,0.2-2.2,0.7-4.2,1c-9.1,1.6-12.2,2.2-12.8,2.6c-1.1,0.7,0.5,4,2.7,5.7c1.1,0.8,2.4,2.5,2.9,3.6c1.1,2.5,1.1,2.6,0.1,2.6
		c-0.9,0-5.3-4.8-5.3-5.8c-0.1-4.3-6.9-5.6-7.4-1.4c-0.9,7.3-1.5,8.4-4.6,8.4c-1.4,0-2.7,0.5-3.6,1.4c-3.1,2.9-7.1,1.5-13.6-4.7
		c-3.4-3.2-4.8-3-4.8,0.7c0,1.6-0.3,2.2-1.2,2.4c-0.7,0.2-1.4,0.8-1.6,1.5c-0.2,0.7-1.1,1.9-2,2.8c-0.9,0.9-2.5,2.8-3.6,4.2
		c-4.1,5.2-10.9,4.9-16.8-0.8c-1.8-1.8-3.5-2.9-3.7-2.6c-0.2,0.3-1,0.4-1.8,0.2c-0.8-0.2-1.5-0.1-1.5,0.2s-1,0.8-2.1,1
		c-1.3,0.2-2.1,0.8-2.1,1.3c0,0.6-0.4,0.8-1.1,0.5c-2-0.6-2.8,1.2-1.3,2.8c1.8,1.9,1.6,2.9-0.4,2.9c-1.3,0-1.5-0.1-0.8-0.6
		c0.8-0.5,0.7-0.6-0.3-0.5c-0.7,0.1-1.8-0.1-2.6-0.3c-1-0.3-1.8-0.2-2.5,0.5c-0.6,0.6-1.4,0.9-1.8,0.6c-0.3-0.2-1.9,0.8-3.5,2.3
		c-1.6,1.5-3.1,2.6-3.3,2.4c-0.3-0.2-0.6,0-0.8,0.3s0,0.7,0.5,0.9c1.1,0.4,0.6,2.8-0.6,2.8c-0.5,0-0.7,0.5-0.5,1.2
		c0.2,0.7,0,1.2-0.4,1.2c-0.9,0,0.3,2.3,2,3.7c1,0.8,1.1,1.2,0.6,1.7c-0.5,0.5-0.8,0.5-1.1,0c-1.1-1.7-5,0-4.3,1.9
		c0.2,0.6-0.1,0.9-0.9,0.9c-0.7,0.1-1.2-0.1-1.2-0.5c0-0.3-0.4-0.4-0.9-0.2s-0.9,0.1-0.9-0.3c0-0.4,0.4-0.7,0.9-0.7s0.9-0.3,0.9-0.6
		c0-0.3-0.6-0.5-1.5-0.2c-1.4,0.4-4-1.4-4-2.7s-1.5-1.8-3-0.9c-2.2,1.2-2.6,1.1-1.4-0.7l1.1-1.6l-2,0.4c-1.3,0.3-2,0.2-2-0.3
		c0-0.5-0.2-0.5-0.8,0.1c-0.6,0.6-0.6,0.9,0.2,1.5c0.5,0.4,1,1.1,1,1.6c0,0.5,0.2,1.5,0.5,2.3c0.3,0.9,0.2,1.4-0.3,1.4
		c-0.4,0-0.7-0.3-0.7-0.6s-0.5-0.6-1.2-0.6s-1.3-0.5-1.5-1c-0.4-0.9-0.5-0.9-1.5,0c-1.4,1.2-2.1,1.3-1.7,0.1c0.2-0.5,0-0.9-0.4-0.9
		c-0.5,0-0.8,0.6-0.7,1.7c0.3,5,0.3,4.8,1,3.6c0.6-1,0.7-1,1.7-0.2c1.2,1,1.3,4.1,0.2,4.5c-0.4,0.1-0.6-0.1-0.6-0.6
		c0.1-0.4-0.2-0.7-0.6-0.7s-0.8-0.1-0.8-0.4c0-0.9-6.7-0.5-7.3,0.5c-0.5,0.8-0.6,0.8-0.6-0.1c0-0.6-0.5-1.1-1-1.1
		c-0.5,0-0.8,0.2-0.6,0.4c0.2,0.2,0.1,0.8-0.3,1.2c-0.4,0.4-0.4,0.8-0.2,0.9s-0.2,0.2-1,0.5c-0.9,0.3-1.6,0.9-1.7,1.8
		c-0.2,1.5-2.9,1.9-4.2,0.6c-0.9-0.9-1-0.2-0.2,1.2c0.3,0.6,0.3,1.4,0.1,1.9c-0.4,0.6-0.6,0.5-0.9-0.5c-0.5-1.4-1.2-1.7-1.9-0.6
		c-0.2,0.4-0.8,0.5-1.2,0.3c-0.5-0.2-1.2,0.2-1.6,0.7c-0.4,0.6-1.2,1-1.7,1s-0.8,0.3-0.8,0.7c0.1,0.6-0.2,0.6-1.4,0
		c-1.2-0.6-1.5-1-1.2-2.2c0.4-2.1-0.5-3.7-1.6-2.6c-1.1,1.1-2.3,0.9-2.3-0.4c0-1.2,2-2.2,3-1.6c0.3,0.2,1-0.1,1.6-0.6
		c1.2-1.2,2.1-1.2,2.1,0c0,0.5,0.3,0.8,0.6,0.6c0.3-0.2,0.5-1,0.3-1.8c-0.2-0.9,0-1.8,0.6-2.4c1.1-1.1,1.7-3.4,0.9-3.4
		c-0.3,0-0.6-0.4-0.6-0.9c0-0.7-0.6-0.5-2.3,0.8c-1.6,1.1-2.2,2-2,2.7c0.3,1,0.1,1-1.4,0.2c-2-1-3.7,0.5-3,2.6
		c0.6,1.8-0.3,4.3-1.4,4.1c-1-0.2-1.1,0.5-0.6,2.6c0.1,0.6-0.2,0.9-1,0.9c-0.9,0-1.3-0.5-1.4-1.7c-0.1-0.9-0.4-1.7-0.7-1.7
		s-0.7-0.6-0.9-1.2c-0.2-0.7-0.7-1.2-1.1-1.1c-0.4,0.1-1.2-0.1-1.8-0.4c-0.8-0.4-1.4-0.1-2.3,1l-1.1,1.4V173c0-0.9-0.2-2-0.4-2.5
		c-0.4-1,3.1-2.5,3.7-1.6c0.5,0.8,2.6,0.7,2.9-0.2c0.2-0.4,0.3-0.3,0.3,0.3c0.1,1.3,0.7,1.3,2.2,0.2c1.2-0.9,1.1-0.9-0.2-0.9
		c-0.9,0-1.4-0.4-1.4-1.2c0-1.8-1.3-2.2-2.5-0.6c-1.1,1.4-3.6,0.7-2.6-0.7c0.2-0.3,0-0.9-0.3-1.4s-0.6-1.1-0.5-1.3
		c0.1-0.3-0.1-0.6-0.4-0.6c-0.3-0.1-0.5,0.3-0.4,0.9c0.2,0.8,0.1,0.9-0.8,0.2c-0.5-0.4-0.9-1.2-0.7-1.6c0.2-0.4,0.1-0.9-0.2-1
		c-0.3-0.1-0.6-0.6-0.7-1.1c-0.1-0.5-0.8-1.5-1.6-2.2c-1.9-1.8-1.7-2.5,0.6-2.2c1.9,0.2,1.9,0.2,0.8-0.7c-0.7-0.5-1.5-0.8-1.9-0.7
		c-0.4,0.2-0.9-0.6-1.1-1.8c-0.3-1.5-0.7-2.1-1.5-2.1c-0.6,0-1.3-0.3-1.5-0.6c-0.2-0.3,0-0.6,0.6-0.6c0.6,0,1-0.6,1-1.7
		c0-1.3,0.1-1.4,0.4-0.4c0.2,0.7,0.9,2,1.5,3c0.7,1,1.3,1.9,1.3,2c0.2,0.3,3.3-1.4,3.3-1.8c0-0.3-0.8-0.6-1.8-0.8
		c-1.8-0.4-3.1-2.1-1.9-2.5c0.4-0.1,0.6-0.5,0.6-0.8s-0.5-0.4-1.2-0.2c-0.6,0.2-1.4,0.1-1.6-0.3c-1-1.5-3.5-1.9-4.4-0.6
		c-1,1.4-2,1.1-2-0.6c0-1.4-0.9-1.5-1.5-0.2c-0.2,0.6,0,1.2,0.6,1.6c0.8,0.4,0.8,0.7,0.2,1.1c-0.5,0.3-1.1,0.2-1.6-0.1
		c-0.4-0.3-1.2-0.5-1.6-0.3c-0.5,0.2-1.8-0.3-2.9-1.1l-2.1-1.4l-2.5,1.4c-2.5,1.4-7.9,2.4-12.5,2.2c-7.4-0.3-8.1-0.6-10.1-4.4
		c-1.5-2.9-4-3.2-7.3-0.8c-1.2,0.9-2.9,1.9-3.9,2.4c-1,0.5-2.3,1.7-2.8,2.6c-0.8,1.5-1.5,1.8-4.5,2.3l-3.6,0.5l-0.3,2.7
		c-0.5,4-2.3,5.8-3.2,3.3c-0.2-0.5-0.8-0.9-1.3-0.9c-0.5,0-0.9-0.5-0.9-1.3s-0.5-1.4-1.2-1.6c-0.7-0.2-1.2-0.8-1.2-1.4
		c0-2.2-7.5-1-8.2,1.3c-0.2,0.6-0.6,1.2-0.9,1.2c-0.6,0-2,1.2-8.2,7.2c-2,1.9-4.1,3.7-4.7,3.9c-0.6,0.2-1.6,1.3-2.2,2.4
		c-4.6,7.7-19.1,12.4-26.3,8.5c-2.6-1.4-5.9-2.6-7.2-2.6c-0.6,0-1.9-0.8-3-1.7s-2.5-1.9-3-2.1c-0.9-0.3-1.9-1.7-5-6.5
		c-4.1-6.4-6.6-9.5-8.4-10.2c-1.1-0.4-2.4-1.1-2.9-1.5c-0.5-0.4-1.9-1-3.1-1.4c-2.1-0.7-4.8-3.9-4-4.7c0.2-0.2,0.1-0.7-0.3-1.1
		c-0.5-0.6-0.4-1.1,0-2c0.8-1.5,0.3-3.7-0.8-3.3c-0.8,0.3-1.5-1.4-1.6-3.8c0-0.9,0.5-1.6,1.5-2c1.9-0.7,1.9-0.7,0-2.7l-1.5-1.7
		l-1.4,1.5c-0.8,0.8-2.4,1.7-3.6,1.9c-2.1,0.4-3.7,1.5-2.2,1.5c0.4,0,0.5,0.3,0.3,0.6c-0.2,0.3-0.7,0.6-1.1,0.5
		c-2.3-0.3-2.9,0.7-1.4,2.4c1.4,1.6,1.8,3.7,0.7,3.7c-0.5,0-0.9,0.5-0.9,1.1c0,0.7-0.4,1.1-1.1,1.1c-0.8-0.1-1.1,0.5-1.3,2.3
		c-0.1,1.3-0.5,2.7-0.8,3c-0.4,0.4-0.5,0.2-0.2-0.4c0.3-0.8,0.1-1.1-0.6-1.1s-0.9,0.3-0.6,1.2c0.2,0.6,0.1,1.3-0.3,1.5
		c-0.3,0.2-0.6,1.2-0.6,2.1c0,1-0.3,1.9-0.6,2.1c-0.4,0.2-0.4,0.8,0,1.5c0.8,1.5,0.8,1.8-0.3,1.8c-0.5,0-0.9-0.4-0.9-1
		c0-0.8-0.4-0.6-1.6,0.6c-0.9,0.9-2.6,2-3.7,2.5c-1.7,0.7-2,1.1-1.7,2.2c0.4,1.7,0,2.4-2.5,3.8c-1.1,0.6-1.8,1.5-1.7,1.9
		c0.2,0.4-0.2,1.2-0.8,1.8c-1.6,1.5-1,4.2,1.3,5.3c1.5,0.8,1.7,1.2,1.4,2.5c-1.1,4.4-5.2,4.9-6.5,0.8c-0.8-2.6-2.4-3.7-5.6-3.7
		c-2.2,0-3.4-0.9-3.4-2.5c0-0.6-0.4-1.3-0.8-1.7c-1.1-0.9-4.6-8-4.6-9.3c0-0.5-0.8-1.2-1.7-1.5c-1.9-0.7-6.5-6.3-7.1-8.7
		c-0.4-1.6-2.7-2.8-4-2c-0.4,0.2-2.5,0.9-4.7,1.5c-2.2,0.6-5.4,1.6-7.1,2.2c-3.4,1.3-11.5,0.7-16.4-1.2c-1.3-0.5-3-0.9-3.7-1
		c-0.7,0-2.3-0.4-3.6-1c-2.1-0.9-2.3-0.9-3.6,0.3c-0.7,0.7-1.5,1.2-1.8,1.2s-1.4,0.7-2.7,1.5c-3.4,2.3-8.6,1.2-13.5-2.9
		c-4.2-3.5-4.2-13.4,0.1-17.5l2.4-2.3l-1.3-2c-0.7-1.1-1.6-2.3-2.1-2.8c-1.1-0.9-2.7-6.4-3-10.3c-0.2-3.1-1.8-5.3-3.1-4.2
		c-0.9,0.7-2.7-0.8-2.7-2.2c0-2.5-4.9-4-7.8-2.4c-1.9,1.1-7.4,0.6-8.4-0.7c-0.6-0.8-1-0.8-2.7-0.1c-1.1,0.5-3.6,0.9-5.6,0.8l-3.6,0
		l-0.2-2c-0.2-2,1.6-3.7,2.2-2.1c0.3,1,2.4,0.9,2.8-0.2c0.2-0.5,0-0.9-0.5-0.9c-0.5,0-0.9,0.3-0.9,0.7c0,0.5-0.2,0.5-0.7,0
		c-1-1-0.2-2.6,1.4-2.6c0.8,0,1-0.2,0.6-0.4c-0.7-0.3-1.7,0-4.9,1.6c-0.5,0.2-1,1-1.1,1.8c-0.2,1.1-0.4,1.2-1.5,0.9
		c-3.9-1.3-5.6-0.7-5.6,2.2c0,2.2-0.2,2.7-1,2.7c-2,0-2.6,1.4-1,2c1.8,0.7,2.6,2.3,1.6,3.5c-0.9,1.1,3.1,5.2,4.5,4.7
		c0.6-0.2,1,0,1,0.6c0,0.8-0.3,0.8-1.5,0.4c-0.8-0.3-1.9-0.4-2.4-0.2c-0.5,0.2-1.1-0.1-1.3-0.6c-0.2-0.5-1-1-1.7-0.9
		c-1.1,0-1,0.3,1,2.1c2.5,2.2,2.4,4-0.2,4.8c-0.7,0.2-1.2,0.9-1.2,1.7c0,1.9-1.1,2.9-2.6,2.1c-0.6-0.3-2-0.5-3.1-0.4l-1.9,0.2
		l1.8,0.9c1,0.5,2,1.1,2.2,1.3c0.2,0.3,1,0.4,1.8,0.3c2.1-0.2,2.6,3,0.5,3.3c-0.7,0.1-1.5,0.6-1.6,1.1c-0.3,0.8-0.2,0.8,0.7,0.1
		c1.4-1.2,1.9-0.4,1,1.6c-0.5,0.9-1,1.9-1.1,2.2c-0.1,0.3,0.6,0,1.6-0.8c2.4-1.7,3.2-1.7,3.2,0.2c0,1.2-0.6,1.8-2.5,2.7
		c-3.8,1.8-4.7,1.7-3.5-0.6c0.6-1.1-2-3.6-2.9-2.8c-0.2,0.2,0,0.6,0.4,0.9c0.8,0.5,0.6,2.6-0.4,4c-0.4,0.6-3.7,1.9-5.6,2.4
		c-4.5,1-5.1,1.6-3.5,3.2c0.4,0.4,0.5,0.7,0.2,0.7s-0.9-0.5-1.3-1c-0.7-0.9-0.9-0.8-2.6,1.1c-2.9,3.3-9.8,3.7-9.8,0.6
		c0-0.9-1.5-2.5-2.3-2.5c-0.3,0-1-0.6-1.5-1.4c-0.6-0.8-1.8-1.6-2.9-1.8c-1.1-0.2-2.5-0.5-3.1-0.8c-0.7-0.3-1.1-0.1-1.1,0.5
		c0,1.9-5.3,5.7-9.3,6.7c-2,0.5-1.9,0.6-0.6-4.4c1.3-4.9,1.6-5.2,4.1-6.3c2.1-0.9,2.6-2.1,1.5-3.5c-2.8-3.5-4.3-4.6-6.5-5.2
		c-2.2-0.6-3.2-1.5-3.2-3c0-0.3,0.8-0.8,1.8-1.2c1.1-0.5,1.8-1.2,1.8-1.9c0-0.7,0.3-1.7,0.7-2.4c0.5-1,0.4-1.4-0.6-2.4
		c-0.7-0.6-1.3-1.4-1.3-1.7c0-1.4,0.8-2.4,1.9-2.4c0.6,0,1.3-0.4,1.5-0.9c0.2-0.6,0.9-0.8,2.1-0.5c1.1,0.2,1.8,0.1,1.8-0.3
		c0-0.3,0.5-0.8,1.1-0.9c0.6-0.1-0.1-0.3-1.5-0.3c-1.4,0-3.8,0.2-5.2,0.6c-2.1,0.6-3.2,0.5-5.6-0.1c-1.6-0.5-4.1-0.8-5.5-0.7
		c-1.7,0.1-2.7-0.1-3-0.7c-0.8-1.4-2.8-2.2-4.8-1.9c-9.7,1.3-17.7,0.8-22.1-1.4c-1.3-0.7-1.7-0.6-3.1,0.8c-0.9,0.8-1.8,1.5-2,1.5
		c-0.2,0-1.2,0.5-2.1,1.2c-3.8,2.8-12.3,1.6-12.3-1.7c0-0.3-0.8-1.4-1.8-2.5c-2.5-2.8-3.5-6.1-2.4-8.3c0.5-0.9,0.9-1.9,1-2.1
		c0.3-0.6-3.5-2.4-4.4-2.1c-0.4,0.2-0.9,0.9-1,1.7c-0.1,0.9-0.8,1.6-2,1.9c-4.9,1.6-7,6.8-5.3,12.8c0.4,1.4,0.2,2.3-0.6,3.6
		c-0.6,1-1.1,2.6-1.1,3.7c0,3.2-2.9,5.3-6.6,4.9c-2.9-0.4-3.2-0.3-5.5,1.8c-3.7,3.4-11.6,3.5-13.4,0.2c-0.4-0.7-1.6-1.6-2.8-2.1
		c-1.1-0.5-2.4-1.5-2.8-2.4c-0.4-0.8-1-1.5-1.4-1.5c-0.4,0-1.9-1.3-3.3-2.9s-2.9-3.3-3.4-3.8c-0.5-0.5-0.9-1.3-0.9-1.6
		s-1.3-1.4-2.9-2.3c-1.6-0.9-3.5-2.1-4.3-2.7c-1.2-1-1.6-1-3.7-0.1l-2.3,0.9v3.7c0,3.4-0.4,4.6-2.6,8.3c-0.3,0.5-0.9,1.8-1.3,2.9
		c-0.4,1.1-1.1,2-1.5,2c-0.4,0-1.4,0.7-2.2,1.5c-3.8,4-13.1,2.8-12.2-1.6c0.2-1.1,0.1-1.7-0.4-1.7c-0.4,0-0.6,0.5-0.4,1.1
		c0.4,1.6-4.4,2.3-6.6,0.9c-0.8-0.5-1.4-1.1-1.2-1.3c0.2-0.2-0.2-0.8-0.7-1.5c-1-1.1-1-1.2,0.1-2c1.2-0.9,1.2-0.9-0.1-1.2
		c-1.8-0.5-2.2-3-0.7-4.4c2.2-2,0.4-4.5-2.4-3.3c-2.6,1.1-3,0.8-2-1.3c1-2.3,0.9-2.6-1.4-3c-1.4-0.3-3-0.1-4.6,0.6
		c-4.1,1.6-11.9,0.3-14.7-2.6c-0.4-0.4-1.3-0.7-2.1-0.7c-0.9,0-1.6-0.4-1.8-1.2c-0.4-1.5-2.4-1.8-6.2-1c-2.4,0.5-3.4,0.5-4.1-0.1
		c-0.6-0.4-1.4-0.9-1.9-1.1c-0.5-0.2-1.3-0.6-1.8-0.9c-4.7-2.8-5.6-3.1-8.8-2.5c-1.7,0.3-4,0.5-5.2,0.4S9.2,95.7,8,96.2
		c-2.7,1.1-7.5,1.3-5.8,0.3c0.8-0.5,0.9-0.9,0.4-1.8c-0.5-1-0.3-1.5,1.4-3.1c4-3.8,2.1-8-2.9-6.1C0,85.9-0.2,93.8,1,94.3
		c0.6,0.2,0.6,0.3,0,0.4c-0.6,0-0.8,12.8-0.8,61.6V229h922.6c0,0,9.8,0,147.5,0h151.4l0.6-3.9c-5,0-11.8-2.6-13.9-3.3
		c-4.1-1.4-13.4-31.5,2.1-36.9c4-1.4,10.3-0.8,15.8,1.6c5.5,2.5,7.7,9.7,7.7,9.7s7.8,15.7-1.7,23.4l-10,5.6l-0.6,3.9h295.9v-99.6
		c0-58.6-0.2-88.5-0.6-88.5c-0.3,0-0.6-0.4-0.6-0.9s0.3-0.8,0.6-0.6c0.3,0.2,0.6,0,0.6-0.6c0-1.3-0.8-1.2-1.7,0.2
		c-0.4,0.6-1.8,1.6-3,2.2c-1.3,0.5-3,1.3-3.8,1.7c-0.8,0.4-2.3,1.2-3.2,1.8c-6,4-19.2,1.3-21.7-4.5c-0.7-1.6-1.5-3-1.8-3
		s-0.5-0.8-0.5-1.7c0-0.9-0.3-3.1-0.7-4.9l-0.7-3.3l2.6-2.6c1.8-1.8,3.1-2.6,4.2-2.6c1,0,2.3-0.7,3.4-1.7c2-1.9,5.4-3,11.4-3.4
		c9.3-0.7,15.4-2.5,12.4-3.6c-1.5-0.6-10.5-0.7-12-0.2c-0.8,0.3-1.9,0.3-2.4,0.1C1498.7,12.8,1497.2,12.7,1496.7,13.2L1496.7,13.2z
		 M1474.6,26.9c0,0.8-0.2,0.8-1.2-0.1c-0.7-0.6-1-1.3-0.8-1.6C1473.1,24.4,1474.6,25.7,1474.6,26.9L1474.6,26.9z M1475.9,29.1
		c0.4,0.5,0.5,0.9,0.1,0.9s-0.8-0.4-1-0.9c-0.2-0.5-0.3-0.9-0.1-0.9C1475,28.2,1475.4,28.6,1475.9,29.1z M1465.1,40.6
		c3.3,2.5,3.6,3.4,0.8,2.9c-1.8-0.3-5.9-3.5-5.9-4.5C1460.1,37.9,1462.5,38.7,1465.1,40.6L1465.1,40.6z M0,44.9v1.5l1.8-1
		c2-1.2,1.9-2-0.3-2C0.3,43.3,0,43.6,0,44.9L0,44.9z M1509.3,46.4c-1.1,0.7-1.5,0.3-1-1c0.3-0.8,0.6-0.9,1.1-0.3
		C1510,45.7,1510,45.9,1509.3,46.4L1509.3,46.4z M1490.4,53c0,0.3-0.3,0.6-0.6,0.6c-0.3,0-0.6-0.4-0.6-0.9s0.3-0.8,0.6-0.6
		C1490.1,52.3,1490.4,52.7,1490.4,53z M1483.4,53c0.8,0.3,1.5,0.9,1.5,1.2c0,1-0.9,0.7-2.4-0.6C1481,52.3,1481.1,52.1,1483.4,53z
		 M1475.6,57.5c1.8,1.8,2.7,4,1.7,4c-1.4,0-5.1-4.1-5.1-5.7C1472.2,54.9,1473.7,55.6,1475.6,57.5z M1482,64.9c1.4,2.6-0.2,3.2-2.5,1
		c-1.2-1.2-1.7-2-1.2-2.2c0.4-0.2,0.5-0.7,0.3-1c-0.2-0.3,0.3-0.3,1.2,0.1C1480.5,63.1,1481.5,64.1,1482,64.9z M1480.1,70.8
		c0,0.9-1.6,1.9-2.2,1.3c-0.2-0.2-0.1-0.7,0.1-1.3C1478.5,69.7,1480.1,69.6,1480.1,70.8z M963.3,89.1c-1.3,0.2-1.9,0.7-2.5,2.1
		c-0.4,1.1-1.5,2.6-2.3,3.3c-0.8,0.8-1.7,2.1-1.9,2.9c-0.2,0.8-1,2.5-1.7,3.7c-1,1.6-1.3,3.1-1.3,5.2c0.1,4.4,0.2,4.5,1.2,4.5
		c0.5,0,1.2,0.5,1.7,1.2c0.9,1.4,1.8,1.5,5,0.4c2.3-0.8,3.7-2.2,2.2-2.2c-1.1,0-0.7-1.7,0.6-3.1c0.8-0.8,0.9-1.1,0-0.9
		c-3.2,1-8.9-1.7-7.4-3.5c1.2-1.5,7.3-1.3,9.3,0.2c2.6,2,5.9-0.8,5.9-5c0-0.6,0.4-1,1.1-0.9c4.2,0.3,6.8-0.1,6.8-1.3
		c0-1.4-1.4-1.8-4.6-1.1c-4,0.9-6.7-0.3-7.7-3.3C966.7,89,966.3,88.7,963.3,89.1L963.3,89.1z M1003.1,92.1c-0.4,0.1-0.7,0.7-0.7,1.3
		c0,0.7,0.2,0.7,0.4,0.2c0.2-0.6,0.5-0.6,1.1-0.1c0.6,0.5,1,0.3,1.6-0.4c0.7-0.9,0.7-1-0.2-0.6c-0.6,0.2-1.1,0.2-1.2-0.1
		C1003.9,92.1,1003.5,92,1003.1,92.1L1003.1,92.1z M1431.1,94.3c2.1,2.9-1.5,5.2-4.4,2.9c-1.3-1.1-1.4-1.2-0.3-2.7
		C1427.6,92.5,1429.7,92.4,1431.1,94.3z M1209.4,94.4c-1.5,0.5-2.4,0.5-3.2,0c-1.2-0.8-1.5-0.6-1.8,1.1c-0.1,0.8,0.2,1.3,1,1.4
		c1.7,0.3,2.7,2,2.4,3.7c-0.9,4.5,7.2,6.2,9.7,2c0.3-0.4,0.9-0.8,1.5-0.8c0.6,0-0.1-0.8-1.7-1.9c-1.5-1.1-2.8-2.2-2.9-2.4
		c-0.1-0.3-0.5-0.8-0.9-1.2c-0.4-0.4-1-1.2-1.3-1.7C1211.6,93.9,1211.1,93.9,1209.4,94.4z M968.3,94.7c0.7,0.4,0.7,0.7,0.2,1.3
		c-0.9,0.9-2.6,0.3-2.6-0.9C965.9,94,967,93.8,968.3,94.7L968.3,94.7z M1448.5,95c0,0.5-0.4,0.9-0.9,0.9c-1,0-1.7-0.9-1.1-1.4
		C1447.2,93.7,1448.5,94.1,1448.5,95z M963.8,97.2c0.5,3.2-0.6,4.2-4.5,4c-3.5-0.2-3.6-0.8-1-4C961.3,93.7,963.2,93.7,963.8,97.2z
		 M1141.2,98.3c-0.2,0.8,0,1.2,0.6,1.2c0.5,0,0.8-0.5,0.8-1.2s-0.2-1.2-0.5-1.2C1141.7,97.1,1141.3,97.6,1141.2,98.3z M1000.1,99.3
		c-1,1.6-1,1.6,0.6,2.8c1.6,1.2,2.2,3.7,1,4.4c-0.9,0.5-0.8,3.7,0.2,4.1c1.7,0.6,3.6-0.7,3.1-2.1c-0.2-0.8-0.4-2.8-0.3-4.5
		C1004.8,98.6,1002.2,96,1000.1,99.3z M297.6,98.8c-0.9,0.5,1.4,3.3,2.5,3c0.7-0.2,0.6-0.5-0.5-1.8C298.9,99.1,298,98.6,297.6,98.8
		L297.6,98.8z M290.2,104.7c0,1.1-1.3,0.9-1.7-0.2c-0.1-0.4,0.2-0.7,0.7-0.7S290.2,104.2,290.2,104.7z M68.4,106.4
		c0.6,0.5,1.4,0.7,1.7,0.5c0.6-0.4-0.8-1.4-2-1.4C67.4,105.6,67.5,105.8,68.4,106.4z M1455.1,108.1c0.2,1.5,0,1.7-1.6,1.7
		c-2.1,0-2.7-0.7-2.2-2.5C1451.9,105.3,1454.8,106,1455.1,108.1L1455.1,108.1z M1019.9,107.6c0,1.2,1.2,1.9,1.9,1.1
		c0.4-0.4,0.2-0.8-0.7-1.3C1020.2,106.8,1019.9,106.9,1019.9,107.6z M1293.1,107.3c0,0.8,2.9,1.4,4.4,0.9c1-0.3,1.1-0.5,0.4-0.9
		C1296.8,106.6,1293.1,106.6,1293.1,107.3L1293.1,107.3z M299.3,108c0,0.3-0.4,0.6-0.9,0.6s-0.9-0.3-0.9-0.6c0-0.3,0.4-0.6,0.9-0.6
		S299.3,107.6,299.3,108z M313.9,109.5c0,0.5-0.3,0.9-0.6,0.9c-0.3,0-0.6-0.4-0.6-0.9s0.3-0.9,0.6-0.9
		C313.6,108.6,313.9,109,313.9,109.5z M1213.7,110.7c0.4,1.4,0.3,2-0.5,2.6c-0.6,0.4-1,1.1-0.9,1.4c0.4,1.4-1.2,3-2.8,2.8
		c-2.4-0.3-2.7-4-0.4-6.9C1211.1,108,1213,108,1213.7,110.7z M967.4,110.4c-0.6,0.7-1.5,1.2-1.9,1.2c-0.5,0-0.8,0.3-0.8,0.6
		c0,1.7,4.7,0.6,5-1.2C970,108.9,969,108.6,967.4,110.4L967.4,110.4z M1192.5,111.4c-0.4,0.2-0.8,1-0.8,1.8c0,1.2-0.3,1.5-1.6,1.5
		c-1.2,0-1.5,0.2-1.2,1c0.2,0.5,0.4,1.2,0.4,1.5c0,1.3,1.8,0.4,2.9-1.5C1194.5,111.8,1194.5,110.5,1192.5,111.4L1192.5,111.4z
		 M1282.9,112.8c-0.8,1.2-0.4,3,0.6,3c0.3,0,0.5-0.4,0.3-0.8c-0.2-0.4,0.2-1.1,0.9-1.6c1.2-0.8,1.1-1.4-0.3-1.6
		C1284,111.8,1283.3,112.2,1282.9,112.8z M1274.3,112.8c0,0.3-0.5,0.6-1.2,0.6c-1.3,0-1.8,2.6-0.6,3.3c0.4,0.2,0.5,0.7,0.4,1.1
		c-0.3,0.9,4.6,0.8,7-0.1c2.1-0.8,2.2-1.5,0.1-1.1c-1.8,0.3-2.5-0.4-1.6-1.6c0.5-0.6,0.1-1-1.5-1.8
		C1274.5,112,1274.3,112,1274.3,112.8L1274.3,112.8z M1361.7,113.1c-0.4,0.5-0.9,0.8-1,0.6c-0.4-0.4,0.4-1.6,1.2-1.6
		C1362.2,112.2,1362.2,112.5,1361.7,113.1L1361.7,113.1z M1002.9,113.8c-0.8,0.1-1.9,0.5-2.3,0.9c-0.4,0.3-1.2,0.4-1.7,0.3
		c-1.3-0.5-2.7,0.2-2.3,1.2c0.2,0.5,0,0.9-0.3,0.9s-0.7-0.3-0.7-0.6c0-0.3-0.7-0.1-1.5,0.5c-2.1,1.5-1.9,3.3,0.6,5.4
		c1.2,1,2.2,2.5,2.2,3.3c0,0.8,0.1,1.8,0.2,2.3c0.1,1.4,3.9,1,5.7-0.8c0.9-0.8,2.1-1.6,2.7-1.9c1.6-0.5,1.3-1.6-0.5-1.6
		c-1.7,0-1.9-0.4-0.5-1.9c0.6-0.7,0.7-1.1,0.3-1.1c-0.8,0-0.3-4,0.7-5.3c0.6-0.7,0.2-2.1-0.6-1.9
		C1004.7,113.5,1003.8,113.7,1002.9,113.8L1002.9,113.8z M1012.9,114c-1,0.2-1.5,0.5-1,0.5c1.8,0.2,2.3,3.1,0.8,4.3
		c-1.2,0.9-1.3,1.2-0.7,2.1c1.4,1.6,2.5,1.1,3.8-1.9c1.2-2.8,0.9-5.8-0.5-5.5C1015,113.5,1013.9,113.8,1012.9,114z M1269.1,114
		c0.2,0.3,0.7,0.6,1,0.6s0.4-0.3,0.2-0.6c-0.2-0.3-0.7-0.6-1-0.6S1268.9,113.7,1269.1,114z M1316.7,116c-0.2,1.6-4.8,2.5-4.8,0.9
		c0-1.3,1.3-2.3,3.2-2.3C1316.6,114.6,1316.8,114.8,1316.7,116z M1289.6,115.6c-0.6,0.2-0.6,0.6,0.2,1.4c1.4,1.5,3,0.9,1.9-0.7
		C1291,115.2,1290.9,115.1,1289.6,115.6z M221.6,116.7c0,0.5-0.4,0.9-0.9,0.9c-0.9,0-1.2-0.7-0.5-1.4
		C220.9,115.5,221.6,115.8,221.6,116.7z M1137.1,117.3c0,1.7-0.7,2.3-2.1,1.8c-1.2-0.5-1.3-2-0.1-2c0.5,0,0.9-0.3,0.9-0.6
		c0-0.3,0.3-0.6,0.6-0.6S1137.1,116.5,1137.1,117.3z M1144.2,116.8c0.3,0.9-1.9,1.4-2.9,0.8c-0.7-0.4-0.7-0.6,0.1-1.1
		C1142.5,115.7,1143.9,115.9,1144.2,116.8L1144.2,116.8z M1286.6,116.9c-0.2,0.6-0.7,1.3-1,1.6c-0.4,0.3-0.3,0.4,0.2,0.3
		c1.2-0.3,2.9-2.9,1.9-2.9C1287.3,115.8,1286.8,116.3,1286.6,116.9L1286.6,116.9z M1207.3,117.4c0.3,0.9-1.7,1.6-2.4,0.9
		c-0.3-0.3-0.4-0.9-0.1-1.3C1205.3,116.2,1207,116.5,1207.3,117.4z M1030.9,118c0,0.5,0.4,0.9,0.9,0.9s0.9-0.2,0.9-0.5
		c0-0.3-0.4-0.7-0.9-0.9C1031.2,117.2,1030.9,117.4,1030.9,118z M290.5,118.9c0.2,0.3,0.1,0.6-0.3,0.6c-0.4,0-0.6-0.3-0.6-0.6
		c0-0.3,0.1-0.6,0.3-0.6S290.3,118.5,290.5,118.9z M1248,119.8c-0.3,1.5-0.2,1.5,0.8,0.5c1.3-1.2,1.4-2,0.3-2
		C1248.7,118.3,1248.2,118.9,1248,119.8z M1149.2,119.9c0,1.5-1.2,2.5-2.8,2.5c-2,0-2.4-1.2-0.9-2.5
		C1147.3,118.5,1149.2,118.5,1149.2,119.9L1149.2,119.9z M1282.8,119.5c0,0.3,0.3,0.6,0.7,0.6c0.3,0,0.5-0.3,0.3-0.6
		c-0.2-0.3-0.5-0.6-0.6-0.6C1282.9,118.9,1282.8,119.1,1282.8,119.5z M1284.7,120.2c-0.9,0.8-0.9,1.7-0.2,1.7c0.6,0,1.5-1.8,1.1-2.2
		C1285.5,119.6,1285.1,119.8,1284.7,120.2z M1396.3,121.4c0,0.3-0.4,0.3-0.9-0.2c-0.5-0.4-0.9-1-0.9-1.4c0-0.3,0.4-0.3,0.9,0.2
		C1395.9,120.5,1396.3,121.1,1396.3,121.4z M220.1,121.5c0,1.6-1.2,1.5-1.4-0.1c-0.1-1,0.1-1.3,0.6-1.2
		C219.7,120.4,220.1,120.9,220.1,121.5L220.1,121.5z M87.1,121.3l-1.2,0.5l1.2,0c0.7,0,1.9,0.2,2.7,0.5c1.4,0.4,1.4,0.3,0.7-0.6
		C89.6,120.6,89,120.5,87.1,121.3L87.1,121.3z M1207.7,121.6c0.2,0.5,0,0.9-0.5,0.9c-1,0-1.7-0.9-1.1-1.4
		C1206.8,120.4,1207.4,120.6,1207.7,121.6z M1234.5,122.5c-0.3,0.5-0.6,0.5-1.1,0.1c-0.3-0.3-0.4-0.9-0.2-1.3
		c0.3-0.5,0.6-0.5,1.1-0.1C1234.7,121.5,1234.8,122.1,1234.5,122.5L1234.5,122.5z M1427.2,121.9c0.2,0.5-0.1,0.7-0.5,0.5
		c-0.5-0.1-0.9-0.6-1.1-1.1c-0.2-0.4,0.1-0.7,0.5-0.5C1426.5,120.9,1427,121.4,1427.2,121.9z M1135.3,122.8c0.8,1,0.3,2.1-0.9,2.1
		c-1.1,0-1.7-1-1.3-2.1C1133.5,121.7,1134.3,121.7,1135.3,122.8z M1161.4,122.5c0,0.3-0.4,0.6-0.9,0.6s-0.9-0.3-0.9-0.6
		c0-0.3,0.4-0.6,0.9-0.6S1161.4,122.2,1161.4,122.5z M1279.8,122.5c0,0.3,0.3,0.5,0.6,0.3c0.3-0.2,0.6-0.5,0.6-0.6s-0.3-0.3-0.6-0.3
		S1279.8,122.2,1279.8,122.5z M275,123c0,1,1.5,1.8,2.5,1.3c0.7-0.5,0.7-0.6-0.2-0.6c-0.6,0-1.1-0.3-1.1-0.6c0-0.3-0.3-0.6-0.6-0.6
		C275.3,122.5,275,122.7,275,123L275,123z M1141.4,123.9c-0.7,0.7-2.7,0.1-2.2-0.7c0.2-0.3,0.9-0.4,1.6-0.2
		C1141.6,123.2,1141.8,123.5,1141.4,123.9L1141.4,123.9z M1199.5,123.5c0.1,0.3-0.2,0.8-0.7,1c-0.7,0.2-0.9,0-0.9-0.9
		C1197.8,122.4,1199.1,122.3,1199.5,123.5z M1291,123.1c-0.2,0.3-0.3,0.8-0.1,1c0.4,0.4,1.6-0.3,1.6-1
		C1292.5,122.3,1291.5,122.3,1291,123.1L1291,123.1z M1156.7,126.6c-0.1,0.7,0.1,1.3,0.4,1.3c0.9,0,0.4,2.2-0.7,3.3
		c-0.6,0.6-1,1.5-0.8,1.9c0.2,0.5-0.1,0.8-0.7,0.8c-0.6,0-1.4,0.5-1.8,1.2c-0.6,1-1.2,1.2-2.9,0.8c-1.7-0.3-2.5-0.1-3.9,0.9
		c-2.2,1.7-4.3,1.6-6.1-0.1c-1.2-1.1-2.2-1.4-5.1-1.4c-2.4,0-3.6-0.6-3.6-1.8c0-1-0.5-2.3-1.2-2.9c-1.1-1.1-1.1-1.2,0.3-2.2
		c3-2.3,6.4-1.2,6.1,1.9c-0.3,2.9,2.8,4.2,6.2,2.7c0.7-0.3,1.9-0.2,3,0.2c2.2,0.8,3,0.4,2.5-1.1c-0.5-1.5,0.6-2,2.2-1.2
		c3.4,1.8,7.3-1.7,4.1-3.7c-0.9-0.6,0.1-2.5,1.2-2.2C1156.4,125.2,1156.8,125.8,1156.7,126.6z M1165.4,126.6
		c-0.6,0.6-1.1-0.3-0.6-1.1c0.4-0.6,0.5-0.6,0.7,0C1165.6,125.9,1165.6,126.4,1165.4,126.6L1165.4,126.6z M195.5,126.7
		c0,0.3-0.3,0.6-0.6,0.6s-0.6-0.3-0.6-0.6c0-0.3,0.3-0.6,0.6-0.6S195.5,126.4,195.5,126.7z M1149.3,126.7c0.9,0,0.6,1.7-0.4,2
		c-1.2,0.5-1.6,0.5-2.6-0.2c-1.2-0.7,0.3-2.7,1.6-2.2C1148.3,126.6,1149,126.7,1149.3,126.7z M1205.7,127.4c0,0.3-0.5,0.5-1.2,0.5
		s-1.2-0.4-1.2-0.9c0-0.5,0.4-0.7,1.2-0.5C1205.2,126.7,1205.7,127.1,1205.7,127.4z M819.5,127.4c-0.1,0.4-0.5,0.7-0.8,0.7
		s-0.7-0.3-0.8-0.7s0.2-0.6,0.8-0.6C819.2,126.7,819.6,127,819.5,127.4z M1125.4,127.7c0.4,1.1-0.8,2-2.7,2c-1.6,0-2.5-1.7-1.3-2.5
		C1122.7,126.4,1125,126.6,1125.4,127.7L1125.4,127.7z M1154,127.9c1,0.6,0.5,2.3-0.9,2.9c-1.2,0.5-3.3-1.4-2.9-2.6
		C1150.6,127.2,1152.7,127.1,1154,127.9z M71.1,128.5c0,0.3-0.1,0.6-0.3,0.6c-0.1,0-0.4-0.3-0.6-0.6c-0.2-0.3-0.1-0.6,0.3-0.6
		S71.1,128.2,71.1,128.5z M209,130.6c0.2,2.7-5.8,6-7.6,4.2c-1-1,2.1-4.9,4.9-6.1C208.3,127.9,208.9,128.4,209,130.6z M89.3,129.2
		c0,0.8-2.4,3.5-3.1,3.5c-0.9,0-0.6-2,0.5-3.1C87.8,128.4,89.3,128.2,89.3,129.2z M1265.8,130.7c-0.8,2-0.8,2.1,0.2,1.7
		c0.9-0.4,1.7-3.3,0.9-3.3C1266.6,129.1,1266.1,129.8,1265.8,130.7z M1022.1,130.3c0.2,0.3,0.1,0.6-0.3,0.6s-0.6-0.3-0.6-0.6
		s0.1-0.6,0.3-0.6C1021.6,129.7,1021.8,130,1022.1,130.3z M1133.5,130.9c0,0.3,0.3,0.6,0.6,0.6s0.5-0.3,0.3-0.6
		c-0.2-0.3-0.5-0.6-0.7-0.6C1133.6,130.3,1133.5,130.6,1133.5,130.9z M1287.3,131.2c-0.2,0.6,0.3,1,1.7,1.2c2.3,0.5,1,2.2-1.6,2.2
		c-0.7,0-1.6,0.2-1.9,0.5c-0.8,0.8-3.3-0.3-3.3-1.5c0-0.7,0.4-0.9,1.2-0.6c0.7,0.2,1.2,0.1,1.2-0.2c0-0.8,1.7-2.5,2.4-2.5
		C1287.4,130.3,1287.5,130.7,1287.3,131.2z M282,133.3c-0.3,0.5-0.6,0.5-1.1,0.1c-0.3-0.3-0.4-0.9-0.2-1.3c0.3-0.5,0.6-0.5,1.1-0.1
		C282.2,132.4,282.3,133,282,133.3L282,133.3z M1165.2,133.2c3.5,2.6,1.4,4.7-4.6,4.5c-2-0.1-2.3,0.1-2.3,1.3c0,1.9-1.6,3.3-2.6,2.3
		c-0.4-0.4-1.2-0.7-1.8-0.7c-0.6,0-1.3-0.5-1.7-1c-0.9-1.5,0.3-3.2,2.2-3.2c2,0,3.8-1.3,3.8-2.6
		C1158.3,131.2,1162.2,130.9,1165.2,133.2z M1254.3,132.1c0,0.3-0.3,0.6-0.6,0.6c-0.3,0-0.6-0.3-0.6-0.6s0.3-0.6,0.6-0.6
		C1254,131.5,1254.3,131.8,1254.3,132.1z M1279.8,131.8c0,0.6-1.2,0.9-1.5,0.3c-0.2-0.3,0-0.6,0.5-0.6S1279.8,131.7,1279.8,131.8
		L1279.8,131.8z M1298.6,132.1c0,0.7-2.9,1.4-3.8,0.9c-0.5-0.3-0.2-0.6,0.8-0.9C1297.7,131.5,1298.6,131.5,1298.6,132.1z
		 M995.6,132.7c0,0.3,1,0.6,2.1,0.6c1.2,0,2.1-0.3,2.1-0.6s-1-0.6-2.1-0.6C996.6,132.1,995.6,132.4,995.6,132.7z M449.7,134.2
		c-1.1,0.8-1.4,2.2-0.5,2.2c0.6,0,2.5-2,2.5-2.6S450.9,133.3,449.7,134.2z M1127.1,135.7c0,1.8-0.9,2.2-2.3,1.1
		c-1.4-1.1-0.7-3,1-2.7C1126.7,134.2,1127.1,134.7,1127.1,135.7z M1199.1,136c1.7,2,1.4,3.2-0.8,3.1c-2-0.1-2.6-0.8-3.2-3.4
		C1194.7,133.7,1197.4,133.9,1199.1,136z M444.8,137.4c-0.9,0.9-1.6-0.6-0.9-1.8l0.8-1.3l0.2,1.4C445,136.4,445,137.2,444.8,137.4z
		 M1130.4,135.4c0,0.5-0.5,0.9-1.2,0.9c-0.7,0-1.2-0.4-1.2-0.9s0.6-0.9,1.2-0.9C1129.9,134.5,1130.4,134.9,1130.4,135.4z
		 M1190.5,135.7c0,0.3-0.1,0.6-0.3,0.6c-0.2,0-0.4-0.3-0.7-0.6c-0.2-0.3-0.1-0.6,0.3-0.6S1190.5,135.4,1190.5,135.7z M1281.2,136.1
		c0.2,0.5,0.1,0.8-0.2,0.6c-0.3-0.2-0.6-0.6-0.6-0.9C1280.4,134.8,1280.8,135,1281.2,136.1z M1367.2,136.4c2.9,2.1,1.8,5.3-1.5,4.5
		c-1.9-0.5-3.2-3.6-2.2-4.9C1364.5,134.8,1365.2,134.9,1367.2,136.4z M1273.1,136.3c0,0.3-0.3,0.6-0.6,0.6s-0.6-0.3-0.6-0.6
		s0.3-0.6,0.6-0.6S1273.1,136,1273.1,136.3z M1291.3,137c0,0.4-0.3,0.5-0.6,0.3c-0.3-0.2-0.9,0.3-1.3,1.2c-0.7,1.5-2.3,2.2-2.3,0.9
		c0-0.3,0.4-0.6,0.9-0.6c0.5,0,1-0.5,1.3-1.2C1289.6,136.3,1291.3,135.8,1291.3,137z M1408.1,138.2c0.5,1,0.8,1.8,0.6,1.8
		c-0.4,0-2.6-2.6-2.6-3.2C1406,135.7,1407.2,136.5,1408.1,138.2z M1003.8,138.2c0.2,0.3,0.1,0.6-0.3,0.6c-0.3,0-0.6-0.3-0.6-0.6
		c0-0.3,0.1-0.6,0.3-0.6C1003.3,137.6,1003.6,137.8,1003.8,138.2z M1072.7,140.1c0,1.6-1.5,1.1-1.7-0.6c-0.2-1,0-1.2,0.8-0.9
		C1072.3,138.7,1072.7,139.4,1072.7,140.1z M206.8,141.5c-0.2,0.8-0.6,1.5-1,1.5c-0.8,0-0.7-2.6,0.2-3.5
		C206.9,138.5,207.3,139.5,206.8,141.5L206.8,141.5z M1278.5,139.4c0,0.3-0.3,0.6-0.6,0.6c-0.3,0-0.6-0.3-0.6-0.6s0.3-0.6,0.6-0.6
		C1278.3,138.8,1278.5,139,1278.5,139.4z M1286.4,140.4c0,0.8-0.2,0.9-0.7,0.3c-0.5-0.5-1.1-0.5-2.4,0.2c-1.8,0.9-2.8,0.6-1.7-0.7
		C1282.7,138.9,1286.4,139.1,1286.4,140.4z M1372.9,139.9c0.2,0.3,0.1,0.7-0.3,0.9c-0.3,0.2-0.6,0-0.6-0.6
		C1372,139.2,1372.4,139.1,1372.9,139.9z M596.3,142c-0.5,0.6-1.3,1-1.8,1.1c-0.6,0-0.7,0.2-0.2,0.4c0.4,0.2,0.8,0.7,0.8,1.2
		c0,0.5,0.3,0.9,0.6,0.9c0.3,0,0.6-0.4,0.6-0.9c0-0.5,0.3-1,0.7-1.1c0.4-0.1,0.6-0.7,0.5-1.4C597.1,141.1,597,141.1,596.3,142
		L596.3,142z M962.3,142.1c0,0.5-0.4,0.9-0.9,0.9s-0.9-0.4-0.9-0.9s0.4-0.9,0.9-0.9S962.3,141.6,962.3,142.1z M1274.9,142.1
		c0,0.5-0.3,0.8-0.7,0.7c-1.1-0.4-1.3-1.7-0.2-1.7C1274.5,141.2,1274.9,141.6,1274.9,142.1L1274.9,142.1z M1281.6,142.4
		c0,0.3-0.3,0.6-0.6,0.6s-0.6-0.3-0.6-0.6s0.3-0.6,0.6-0.6S1281.6,142.1,1281.6,142.4z M1104.6,144.2c3.5,3.3,4.3,10.5,1.5,13.3
		c-4.9,4.9-16.7-0.1-16.4-6.8C1090.2,143.8,1099.8,139.7,1104.6,144.2z M1249.9,143.1c-0.4,1.1-1.7,1.3-1.7,0.2c0-0.5,0.4-1,1-1
		C1249.7,142.4,1250,142.7,1249.9,143.1z M1283.9,143.9c0.2,1,0.2,1-0.8,0.2c-1.2-1.2-1.3-1.9-0.2-1.5
		C1283.4,142.7,1283.8,143.3,1283.9,143.9L1283.9,143.9z M1194.1,143.7c1.1,0.4,1.8,0.8,1.6,1c-0.2,0.2,0.1,0.8,0.7,1.5
		c0.9,1.1,1,1.3,0.1,3.1c-0.5,1.1-1.4,3.1-2,4.5c-1.2,2.9-1.5,3-4.3,1.3c-1.7-1.1-2-1.5-1.7-2.9c0.2-1.1,0-1.9-0.6-2.4
		C1184.5,146.9,1189.6,142.1,1194.1,143.7L1194.1,143.7z M1170.9,144.8c0.1,0.5-0.5,1.6-1.3,2.6l-1.4,1.7l-1.6-1.6
		c-1.6-1.5-1.7-3.1-0.2-2.5c0.4,0.1,1.3-0.1,1.9-0.6C1169.7,143.5,1170.7,143.6,1170.9,144.8L1170.9,144.8z M1280.1,145.1
		c-1,0.8-2,1.5-2.3,1.5c-1,0,0-1.5,1.4-2.2C1281.6,143.1,1282,143.5,1280.1,145.1L1280.1,145.1z M1159.6,145.1
		c0,0.5-0.5,0.9-1.2,0.9c-1.2,0-1.6-0.6-0.8-1.4C1158.3,143.9,1159.6,144.2,1159.6,145.1z M1276.7,145.2c0.2,0.2-0.3,0.7-1.1,1.2
		c-0.8,0.5-1.4,1.3-1.4,1.8c0,0.7-0.2,0.8-0.9,0.2c-0.9-0.8-1.2-3.1-0.5-3.8C1273.3,144.2,1276.1,144.7,1276.7,145.2z M1287,144.8
		c0,0.3-0.1,0.6-0.3,0.6c-0.1,0-0.4-0.3-0.6-0.6c-0.2-0.3-0.1-0.6,0.3-0.6C1286.8,144.2,1287,144.5,1287,144.8z M1163.7,145.3
		c1.7,1.1-1.3,4.5-3.4,3.9c-1.9-0.5-1.7-2.4,0.3-3.4C1162.7,144.7,1162.7,144.7,1163.7,145.3z M1305,146c0.5,1.6-0.1,2.4-1.9,2.4
		c-1.6,0-2.4-1.2-1.8-2.7C1301.8,144.3,1304.5,144.6,1305,146z M273.8,147.2c1.8,2.5,1.6,3.4-0.7,3.4c-2,0-2.8-1.1-2.9-3.8
		C270.2,144.8,272.2,145,273.8,147.2z M590.8,147.4c-0.9,0.9-2-0.2-1.2-1.2c0.6-0.7,0.8-0.7,1.2-0.1
		C591.1,146.6,591,147.1,590.8,147.4z M971.2,146.5c0.2,0.5-0.4,0.8-1.6,0.8s-1.9-0.3-1.9-0.8C967.7,145.4,970.9,145.4,971.2,146.5z
		 M1281.6,146.3c0,0.2-0.3,0.4-0.6,0.6c-0.3,0.2-0.6,0.1-0.6-0.3c0-0.4,0.3-0.6,0.6-0.6S1281.6,146.1,1281.6,146.3z M965.9,147.5
		c0,0.5-0.3,0.9-0.6,0.9c-0.3,0-0.6-0.4-0.6-0.9s0.3-0.9,0.6-0.9C965.6,146.6,965.9,147,965.9,147.5z M952.6,147.8
		c-0.8,0.5-0.8,0.7-0.1,1.3c0.6,0.6,0.9,0.6,1.1,0.1c0.2-0.4,0.7-0.6,1.1-0.4c0.5,0.2,0.9,0,0.9-0.6
		C955.6,147.1,954,146.9,952.6,147.8z M1250,147.8c0.8,0.5,0.8,0.7,0,1.2c-1.2,0.8-1.7,0.8-2.1,0
		C1247,147.6,1248.5,146.8,1250,147.8L1250,147.8z M626.5,149.6c0,1,1.1,1.3,1.4,0.3c0.2-0.6,0-0.9-0.5-0.9
		C627,149,626.6,149.3,626.5,149.6L626.5,149.6z M1199.9,150.6c0,0.7-0.5,1.2-1.4,1.4c-1.5,0.2-1.7-0.1-0.7-1.8
		C1198.6,148.7,1199.9,149,1199.9,150.6z M436.8,150.6c0.5,1.2,0.5,1.5-0.1,1.4c-1,0-2.1-1.1-1.7-1.7
		C435.6,149.3,436.3,149.5,436.8,150.6z M442.6,151c-0.1,0.7-0.9,0.6-1.2-0.2c-0.1-0.4,0.1-0.6,0.5-0.5
		C442.4,150.5,442.7,150.8,442.6,151z M618.3,151.6c-0.2,0.3,0,1.4,0.3,2.6c0.3,1.1,0.4,2.2,0.2,2.4c-0.5,0.6,0.3,0.4,1.9-0.3
		c1.4-0.7,1.5-0.8,0.5-1.5c-1-0.8-1-0.9,0.3-2l1.4-1.1l-2.2-0.2C619.5,151.2,618.4,151.3,618.3,151.6L618.3,151.6z M636,152.2
		c0.1,0.8-0.2,1.6-0.5,1.8c-0.4,0.2-0.4,0.6-0.2,0.9c0.3,0.3,0.7,0.1,1-0.4c0.7-1.1,0.8-3.6,0.1-3.6
		C636.1,150.9,635.9,151.5,636,152.2L636,152.2z M614.2,151.9c-0.7,0.7-0.4,1.4,0.4,1.4c0.5,0,1.2-0.4,1.6-0.9
		C617,151.4,615.1,150.9,614.2,151.9z M631.4,152.1c0,0.4,0.3,0.5,0.6,0.3c0.3-0.2,0.6-0.5,0.6-0.6s-0.3-0.3-0.6-0.3
		C631.7,151.5,631.4,151.7,631.4,152.1z M625.6,152.7c-0.2,0.3,0.1,0.6,0.6,0.6c0.5,0,0.8-0.3,0.6-0.6c-0.2-0.3-0.5-0.6-0.6-0.6
		S625.8,152.3,625.6,152.7z M689.5,152.4c-0.2,0.2-0.7,0.2-1.2,0.1c-0.5-0.2-0.3-0.3,0.4-0.4C689.4,152.1,689.7,152.2,689.5,152.4
		L689.5,152.4z M610.5,153.3c-0.2,0.3-0.1,0.6,0.2,0.6c0.3,0,0.8-0.3,1-0.6c0.2-0.3,0.1-0.6-0.2-0.6
		C611.1,152.7,610.7,152.9,610.5,153.3z M436.7,154.7c1.5,2.3-2.1,3.8-4.1,1.6c-1.7-1.8-0.8-3.3,1.6-2.7
		C435.3,153.8,436.4,154.3,436.7,154.7z M1198.7,153.9c0.2,0.3-0.1,0.6-0.6,0.6c-0.5,0-1-0.3-1-0.6s0.3-0.6,0.6-0.6
		C1198.1,153.3,1198.5,153.5,1198.7,153.9z M644.7,155c-0.8,0.6-1.9,1.3-2.5,1.5c-1.4,0.5-2,2.1-1.1,3c0.5,0.5,0.7,0.4,0.7-0.3
		c0-0.6,0.4-1,0.9-1s0.9-0.4,0.9-0.9s0.4-0.9,0.8-0.9c0.5,0,1,0.4,1.2,0.9c0.3,0.8,2.8,1.4,2.8,0.6C648.4,155.7,646,153.9,644.7,155
		L644.7,155z M1025.4,154.4c0,0.7-1.2,1.5-1.6,1c-0.4-0.4,0.3-1.6,1-1.6C1025.1,153.9,1025.4,154.1,1025.4,154.4z M623.2,155.7
		c-0.2,0.3-0.1,0.6,0.3,0.6s0.6-0.3,0.6-0.6s-0.1-0.6-0.3-0.6C623.7,155.1,623.4,155.3,623.2,155.7z M165.6,156.6
		c6,3,4.1,12-2.6,12.8c-7.2,0.9-9.8-8.6-3.6-13.2C160.4,155.4,163.6,155.6,165.6,156.6z M686,156.9c0,0.3-0.6,0.6-1.4,0.6
		c-1.1,0-1.2-0.1-0.5-0.6C685.4,156.1,686,156.1,686,156.9L686,156.9z M1043.2,157.2c0.5,1.3,0.5,1.5-0.5,1.5c-1.1,0-1.8-1-1.2-1.8
		C1042,156,1042.8,156.1,1043.2,157.2z M1191.8,157.4c1.4,1.3,0.9,1.8-2,2.2c-1.1,0.1-2.6,0.4-3.4,0.6c-0.8,0.3-1.4,0.2-1.4-0.2
		c0-0.9,1.8-2.5,2.8-2.5c0.5,0,0.9-0.3,0.9-0.6C1188.7,155.9,1190.5,156.2,1191.8,157.4z M967.7,158.6c0,1.3-1.7,2.2-2.6,1.3
		c-0.9-0.9,0-2.5,1.4-2.5C967.3,157.5,967.7,157.9,967.7,158.6L967.7,158.6z M1257.3,158.8c0,0.3-0.4,0.5-0.9,0.5s-0.9-0.4-0.9-0.9
		c0-0.5,0.3-0.8,0.9-0.5C1256.9,158.1,1257.3,158.5,1257.3,158.8z M1061.8,159.9c0,0.9-1.8,1.4-2.5,0.7c-1.2-1.1-0.1-2.7,1.3-1.9
		C1061.3,159,1061.8,159.6,1061.8,159.9L1061.8,159.9z M537.4,160c-0.4,0.4-0.7,0.5-0.7,0.1c0-0.8,0.7-1.5,1.1-1.1
		C538,159.2,537.8,159.6,537.4,160z M852.4,160.7c0,0.3-0.3,0.3-0.6,0.1c-0.3-0.2-0.6-0.8-0.6-1.4
		C851.2,158.3,852.3,159.6,852.4,160.7L852.4,160.7z M685.4,161c0,0.8-0.2,0.8-0.7,0.2c-0.4-0.4-1.2-0.7-1.8-0.7
		c-0.6,0-1.1-0.2-1.1-0.5s0.8-0.4,1.8-0.2C684.7,159.9,685.4,160.4,685.4,161z M587.4,160.5c0.2,0.3,0.1,0.6-0.3,0.6
		s-0.6-0.3-0.6-0.6s0.1-0.6,0.3-0.6C586.9,159.9,587.2,160.2,587.4,160.5z M949.6,160.9c1.5,1.4,1.4,2.4-0.4,2.9
		c-0.8,0.2-1.5,0.8-1.5,1.3c0,1.1-1.3,1.2-2.3,0.2c-1.2-1.2-0.8-2.7,0.9-4C948.3,159.7,948.2,159.7,949.6,160.9L949.6,160.9z
		 M634.7,161.1c0.2,0.3,0.6,0.6,1,0.6s0.6-0.3,0.6-0.6s-0.4-0.6-1-0.6S634.5,160.8,634.7,161.1z M642.6,162.4
		c-1.7,1.8-1.7,1.9-0.5,1.5c0.8-0.2,1.4-0.2,1.4,0.2c0,0.4-0.4,0.7-1,0.7c-0.7,0-0.9,0.4-0.6,1.8c0.2,1.1,0,2.5-0.6,3.6
		c-0.9,1.7-0.9,1.9,0,2.2c2.2,0.8,5.8-2,4-3.1c-0.9-0.6-0.7-1.5,0.3-1.5c0.5,0,0.8-0.3,0.5-0.6c-0.2-0.4-0.8-0.5-1.2-0.3
		c-1.2,0.4-1.6-0.3-0.7-1.1c0.6-0.5,0.7-1.3,0.5-3l-0.4-2.3L642.6,162.4L642.6,162.4z M761.2,161.2c3.6,1.2,5.2,7.9,2.4,9.9
		c-4.1,2.9-11.5-1.1-10.4-5.5C754.1,161.6,757.3,159.8,761.2,161.2z M1035.1,162.4c0,0.3-0.4,0.5-0.9,0.5s-0.9-0.4-0.9-0.9
		c0-0.5,0.3-0.8,0.9-0.5C1034.7,161.7,1035.1,162.1,1035.1,162.4z M646,163.6c0.6,2.1,1.6,3.3,2.1,2.8c0.2-0.2-0.1-0.8-0.6-1.3
		c-0.5-0.5-0.9-1.3-0.9-1.8s-0.3-1.1-0.6-1.3C645.6,161.8,645.6,162.4,646,163.6L646,163.6z M673.9,162.9c0,0.3,0.3,0.6,0.6,0.6
		c0.3,0,0.6-0.3,0.6-0.6c0-0.3-0.3-0.6-0.6-0.6C674.2,162.3,673.9,162.6,673.9,162.9z M922.5,163.8c0,0.9-0.5,1.3-1.7,1.4
		c-1.5,0.2-1.7,0-1.7-1.4c0-1.4,0.2-1.6,1.7-1.4C922,162.6,922.5,163,922.5,163.8z M963.2,163.5c-0.2,0.3-0.6,0.6-1,0.6
		s-0.6-0.3-0.6-0.6c0-0.3,0.4-0.6,1-0.6C963.1,162.9,963.4,163.2,963.2,163.5z M653.8,164.1c0,0.3,0.3,0.6,0.6,0.6
		c0.3,0,0.6-0.3,0.6-0.6s-0.3-0.6-0.6-0.6C654.1,163.5,653.8,163.8,653.8,164.1z M1185,164.8c0,0.7-0.3,1.1-0.6,0.9
		c-0.3-0.2-0.6-0.8-0.6-1.2s0.3-0.9,0.6-0.9C1184.8,163.5,1185,164.1,1185,164.8z M132.8,165.5c0.1,0.6-0.3,1.2-1.2,1.4
		c-1.9,0.6,0.1,2.1,2.9,2.1c1.1,0,2.1,0.2,2.3,0.6s1.4,0.4,2.6,0.3c1.2-0.1,1.9-0.1,1.4,0.1c-0.5,0.2-1.3,0.7-1.8,1.2
		c-0.5,0.4-1.8,0.8-2.9,0.7c-2.3-0.1-2.8,0.4-3.3,2.6c-0.4,1.5-0.3,1.5,2.6,1.4c3.2-0.2,4.2,2,1.9,3.9c-0.7,0.6,0.3,0.7,4.9,0.6
		c3.2-0.1,5.9-0.4,6.2-0.7c0.2-0.3,0.7,0.1,1.1,0.8c0.6,1.2,0.6,1.3-0.1,1c-1.5-0.6-3.2,1.9-2,2.8c0.8,0.6-0.3,0.7-5,0.9
		c-9.4,0.3-12.5,1.2-12.9,3.8c-0.6,4.2-2.3,5.6-7.6,6.7c-5.9,1.1-7.7,1.1-9.4-0.1c-0.9-0.6-2.1-1.2-2.7-1.2c-0.9,0-0.9-0.1,0.1-1.5
		c0.7-1,1.6-1.5,2.6-1.4c4.1,0.3,9.4-1.8,6.9-2.8c-0.5-0.2-1.6-0.2-2.4,0c-0.9,0.2-1.5,0.1-1.5-0.3c0-0.4-0.8-0.3-2.1,0.2
		c-3,1.2-4.2,0.2-1.6-1.4c1.8-1.1,2.7-4.4,1.4-4.8c-0.6-0.2-1.2-0.7-1.5-1c-0.2-0.3-3.2-0.8-6.7-1c-4.4-0.3-7.6-0.9-10.8-1.9
		c-5-1.7-10.9-3.1-11.4-2.6c-0.2,0.2-0.9-0.1-1.6-0.6c-0.7-0.5-1.9-0.9-2.7-0.9s-1.9-0.2-2.4-0.6c-0.6-0.3-1.6-0.8-2.3-1
		c-1.1-0.4-1.1-0.5,0.3-0.8c2.3-0.6,2.3-2.3,0-2c-1.3,0.2-1.8,0.6-1.8,1.4c0,1.8-1.2,2-2.8,0.5c-1.7-1.6-1.9-2.7-0.5-2.1
		c0.6,0.2,1.2,0,1.5-0.4c0.4-0.6,0.5-0.6,0.5,0c0,0.4,0.4,0.6,0.9,0.4c1.9-0.7,0.9-1.6-1.5-1.2c-1.9,0.3-2.4,0.2-2.4-0.5
		c0-0.5-0.5-1-1.1-1.1c-0.6-0.1,0.9-0.3,3.3-0.3c4.2-0.1,4.3-0.1,4,1.2c-0.3,1-0.1,1.2,0.7,0.9c0.6-0.2,1.4-0.6,2-0.8
		c0.8-0.3,0.9-0.1,0.6,0.9c-0.5,1.5,1.3,2.6,2.1,1.3c0.4-0.7,0.7-0.7,1.5,0c0.7,0.6,1.2,0.6,1.7,0.1c1-1,2.5-0.9,2.1,0.2
		c-0.4,1.1,0.5,1.8,1.5,1.2c1-0.6,4.3-0.7,5.1-0.1c0.3,0.2,2.4,0.2,4.6-0.1c2.2-0.3,4.9-0.6,6-0.7c1.2-0.1,2.6-0.4,3.2-0.7
		c0.7-0.3,1.4-0.3,1.9,0.1c0.4,0.3,1,0.4,1.2,0.2c0.2-0.2,2.4-0.5,4.8-0.5c8.8-0.2,9-0.2,8.8-1c-0.1-0.4-0.9-0.8-1.7-0.8
		c-3.5-0.1-3.7-0.2-2.9-1.4c0.8-1.3,5.2-2.1,6.4-1.2c0.5,0.4,1,0.4,1.5,0c0.7-0.6,4.5-1.2,6.5-1.1
		C132.3,164.4,132.8,164.9,132.8,165.5L132.8,165.5z M304.4,165.7c0.6,0.9,0.9,1.7,0.6,2c-0.4,0.4-2.7-2.1-2.7-3
		C302.3,163.6,303.4,164.2,304.4,165.7L304.4,165.7z M652,165.4c0,0.3,0.3,0.6,0.6,0.6c0.3,0,0.6-0.3,0.6-0.6s-0.3-0.6-0.6-0.6
		C652.3,164.8,652,165,652,165.4z M659.8,166.3c-0.6,0.6-1.7-0.4-1.3-1.1c0.3-0.4,0.6-0.4,1,0C659.8,165.7,660,166.1,659.8,166.3z
		 M1187.7,165.1c0.5,0.2,0.8,0.6,0.6,1c-0.2,0.4-0.6,0.3-0.9-0.2c-0.4-0.7-0.6-0.7-1.1,0.1c-0.3,0.5-0.6,0.6-0.6,0.2
		C1185.6,165,1186.3,164.6,1187.7,165.1L1187.7,165.1z M1286.4,165.4c0,0.3-0.4,0.6-0.9,0.6s-0.9-0.3-0.9-0.6s0.4-0.6,0.9-0.6
		S1286.4,165,1286.4,165.4z M351.1,166.7c0.4,0.6,0.5,1.2,0.2,1.5c-0.5,0.5-2.9-1.4-2.9-2.3S350.4,165.6,351.1,166.7L351.1,166.7z
		 M613.3,167.1c-0.5,1.5-2.1,3.1-2.7,2.8c-0.3-0.2,0-0.9,0.6-1.6c0.6-0.7,1-1.6,0.8-2.1c-0.2-0.6,0-0.7,0.6-0.5
		C613.3,165.9,613.6,166.5,613.3,167.1L613.3,167.1z M62.9,167.3c0.8,0.7,2,1.3,2.8,1.4s1.5,0.5,1.6,1c0.3,1.8-4.4,0.7-5-1.2
		c-0.2-0.6-1-1.4-1.7-1.7c-1.2-0.6-1.2-0.6-0.2-0.7C61,166,62.2,166.6,62.9,167.3L62.9,167.3z M85.6,167.5c0,0.5-0.3,0.9-0.6,0.9
		c-0.3,0-0.6-0.4-0.6-0.9s0.3-0.9,0.6-0.9C85.3,166.6,85.6,167,85.6,167.5z M648.4,168.1c0,0.5,0.3,0.8,0.6,0.6
		c0.3-0.2,0.6-0.6,0.6-0.9s-0.3-0.6-0.6-0.6C648.7,167.2,648.4,167.6,648.4,168.1z M1130.2,168.1c0.6,1.5-0.8,2.4-1.5,1
		c-0.6-1.2-0.4-2,0.6-2C1129.6,167.2,1130,167.6,1130.2,168.1z M80.2,168.4c0,0.3-0.1,0.6-0.3,0.6c-0.2,0-0.4-0.3-0.6-0.6
		c-0.2-0.3-0.1-0.6,0.3-0.6S80.2,168,80.2,168.4z M306.9,170.2c-0.2,0.3-0.6,0.4-0.9,0.2c-0.3-0.2-0.4-0.6-0.2-0.9
		c0.2-0.3,0.6-0.4,0.9-0.2C307,169.5,307.1,169.9,306.9,170.2z M726.1,169.6c0,0.3-0.1,0.6-0.3,0.6c-0.2,0-0.4-0.3-0.6-0.6
		c-0.2-0.3-0.1-0.6,0.3-0.6C725.8,169,726.1,169.3,726.1,169.6z M1115.8,170.2c0,0.3-0.4,0.6-0.9,0.6c-0.9,0-1.2-0.7-0.5-1.4
		C1114.9,168.9,1115.8,169.5,1115.8,170.2z M1177.1,170.4c0,1-1.6,2.8-2.5,2.8s-0.7-1.3,0.4-2.5
		C1176.3,169.4,1177.1,169.3,1177.1,170.4z M1299.8,170.8c0,0.3-0.3,0.6-0.6,0.6c-0.3,0-0.6-0.3-0.6-0.6c0-0.3,0.3-0.6,0.6-0.6
		C1299.5,170.2,1299.8,170.5,1299.8,170.8z M56.5,171.4c0,0.3-0.3,0.6-0.6,0.6s-0.6-0.3-0.6-0.6s0.3-0.6,0.6-0.6
		S56.5,171.1,56.5,171.4z M104.4,171.7c0,0.5,0.3,0.8,0.6,0.6c0.3-0.2,0.5-0.6,0.3-0.9C104.8,170.5,104.4,170.7,104.4,171.7
		L104.4,171.7z M618,171.5c0,0.5,0.3,0.6,1.8,0.8c0.3,0,0.6-0.2,0.6-0.5s-0.5-0.6-1.2-0.7C618.6,171,618,171.2,618,171.5z
		 M650.7,173.5c-0.2,0.2-0.5-0.1-0.8-0.8c-0.3-0.9-0.3-0.9,0.3-0.3C650.7,172.9,650.9,173.3,650.7,173.5L650.7,173.5z M970.1,173
		c0,1.1-1.3,0.9-1.7-0.2c-0.1-0.4,0.2-0.7,0.7-0.7C969.7,172,970.1,172.4,970.1,173z M654.2,173.9c-0.2,0.5-0.3,0.3-0.4-0.4
		c0-0.6,0.1-1,0.3-0.8C654.4,173,654.4,173.5,654.2,173.9z M660.8,173.2c0.2,0.3-0.1,0.6-0.6,0.6c-0.5,0-1-0.3-1-0.6
		s0.3-0.6,0.6-0.6S660.6,172.9,660.8,173.2z M1146.2,173.2c0,0.3-0.4,0.6-0.9,0.6s-0.9-0.3-0.9-0.6s0.4-0.6,0.9-0.6
		S1146.2,172.9,1146.2,173.2z M938.6,173.8c0,0.3-0.3,0.6-0.6,0.6c-0.3,0-0.6-0.3-0.6-0.6s0.3-0.6,0.6-0.6
		C938.3,173.2,938.6,173.5,938.6,173.8z M569.9,175.3c-0.2,0.2-0.5-0.1-0.8-0.8c-0.3-0.9-0.3-0.9,0.3-0.3
		C569.9,174.7,570.1,175.2,569.9,175.3L569.9,175.3z M646.5,174.7c0,0.5-0.3,0.9-0.6,0.9c-0.8,0-1.3-0.9-0.8-1.4
		C645.8,173.5,646.5,173.8,646.5,174.7z M862.9,175.3c1.2,1.8,0.6,2-0.9,0.2c-1.3-1.5-1.4-1.7-0.6-1.7
		C861.7,173.8,862.4,174.5,862.9,175.3z M658.2,174.8c0.2,0.2,0.2,0.8,0,1.3c-0.3,0.7-0.4,0.8-0.9,0.1
		C656.5,174.7,657.2,173.7,658.2,174.8z M983.8,175.6c0,0.5-0.5,1-1.1,1.1c-0.7,0.1-1.1-0.2-1.1-1.1s0.3-1.2,1.1-1.1
		C983.3,174.7,983.8,175.1,983.8,175.6z M1182.6,176.3c-0.4,0.3-1,0.3-1.3,0.1c-0.3-0.2-0.2-0.6,0.2-0.8c0.4-0.3,1-0.3,1.3-0.1
		C1183.1,175.6,1183,176,1182.6,176.3z M630.2,176.2c0,0.3,0.6,0.6,1.2,0.6s1.1-0.3,0.9-0.6c-0.2-0.3-0.8-0.6-1.2-0.6
		S630.2,175.9,630.2,176.2z M648.8,176.6c-0.2,0.2-0.7,0.2-1.2,0c-0.5-0.2-0.3-0.3,0.4-0.4C648.7,176.3,649,176.4,648.8,176.6
		L648.8,176.6z M831.7,177.5c0,0.3-0.3,0.6-0.6,0.6c-0.3,0-0.6-0.4-0.6-0.9s0.3-0.8,0.6-0.6C831.4,176.8,831.7,177.2,831.7,177.5z
		 M656,179.1c-0.2,0.2-0.7,0-1-0.5c-0.9-1.4-0.7-2,0.4-0.9C656,178.3,656.2,178.9,656,179.1L656,179.1z M998.4,178
		c0,1.1-1.2,0.9-1.4-0.2c-0.1-0.6,0.1-0.9,0.6-0.7C998,177.1,998.4,177.6,998.4,178L998.4,178z M1097.8,177.2
		c0.6,0.6-0.2,2.1-1.1,2.1c-0.5,0-0.8-0.5-0.8-1.2C1095.8,176.9,1097,176.4,1097.8,177.2z M619.5,179.3c-0.1,0.8,0.3,0.9,2.9,0.4
		c3.9-0.8,4.8,0,2.6,2.3c-0.9,0.9-1.8,1.4-2,1.1c-0.2-0.3-1.5-1-2.9-1.6c-2.8-1.2-4.1-3.6-1.8-3.3
		C619,178.3,619.5,178.8,619.5,179.3z M643.8,179c0.6,1.5,0,1.6-1.4,0.3c-1.2-1.2-1.2-1.3-0.1-1.3
		C642.9,178.1,643.6,178.5,643.8,179z M505.7,179.5c0,1.6-0.7,2.7-1.5,2.4c-0.6-0.2-0.7-0.6-0.2-1.8
		C504.8,178.5,505.7,178.2,505.7,179.5L505.7,179.5z M653.4,181.5c-0.2,0.5,0.2,0.8,1,0.8c1.5,0,1.2,0.9-0.7,1.9
		c-1,0.6-1.2,0.5-1-0.2c0.2-0.5,0-1.4-0.5-2c-1.4-1.9-1.2-3.9,0.3-2.4C653.2,180.3,653.5,181.1,653.4,181.5L653.4,181.5z
		 M157.6,181.1c0.2,0.3,0.1,0.6-0.3,0.6c-0.3,0-0.6-0.3-0.6-0.6c0-0.3,0.1-0.6,0.3-0.6C157.1,180.5,157.4,180.7,157.6,181.1z
		 M477.8,182c1,1.2,0.4,2.7-1.1,2.7c-1.6,0-2.1-0.9-1.3-2.4C476.1,180.8,476.8,180.8,477.8,182z M770.4,182c1.1,1.3,0.3,2.7-1.5,2.7
		c-0.9,0-1.7-0.4-1.9-0.9c-0.4-1,0.8-2.7,1.9-2.7C769.3,181.1,770,181.5,770.4,182z M628.1,182.9c0.5,1.5,0.1,2-1.2,1.6
		c-1.2-0.4-1.2-2.8-0.1-2.8C627.3,181.7,627.8,182.3,628.1,182.9z M632,182.3c0,0.3-0.4,0.4-0.9,0.2s-0.9-0.5-0.9-0.6
		s0.4-0.2,0.9-0.2S632,181.9,632,182.3z M151.8,182.9c0,0.3-0.4,0.6-0.9,0.6s-0.9-0.3-0.9-0.6s0.4-0.6,0.9-0.6
		S151.8,182.6,151.8,182.9z M621.1,183.8c0,0.5-0.2,1-0.5,1.2c-0.6,0.4-1.4-1.2-0.8-1.7C620.3,182.6,621.1,182.9,621.1,183.8z
		 M658.7,184.1c0,1.5-1.4,1.3-1.7-0.2c-0.1-0.6,0.2-1,0.8-1C658.3,182.9,658.7,183.4,658.7,184.1L658.7,184.1z M984.7,184.1
		c0,0.7-0.4,1.2-0.9,1.2c-0.9,0-1.2-1.3-0.5-2C984.1,182.5,984.7,182.9,984.7,184.1z M758.3,184.1c0,0.3-0.3,0.6-0.6,0.6
		c-0.3,0-0.6-0.3-0.6-0.6s0.3-0.6,0.6-0.6C758,183.5,758.3,183.8,758.3,184.1z M629.3,185.9c0.2,0.3,0.1,0.6-0.3,0.6
		s-0.6-0.3-0.6-0.6c0-0.3,0.1-0.6,0.3-0.6C628.8,185.3,629.1,185.6,629.3,185.9z M641.4,185.9c-0.2,0.3-0.6,0.6-1,0.6
		s-0.4-0.3-0.2-0.6c0.2-0.3,0.6-0.6,1-0.6S641.6,185.6,641.4,185.9z M930.3,186.2c-0.2,0.5-0.6,0.9-0.9,0.9s-0.5-0.4-0.5-0.9
		s0.4-0.9,0.9-0.9C930.3,185.3,930.5,185.6,930.3,186.2z M1290,193.5c-0.7,0.9-0.9,0.9-1.6-0.1c-1-1.4-1-4.3,0-4.6
		C1289.6,188.4,1291,192.3,1290,193.5L1290,193.5z M322.5,191.7c1.9,2.7,2,3.3,0.8,3.3c-0.5,0-0.9-0.3-0.9-0.7s-0.7-1.5-1.5-2.5
		c-0.8-1-1.5-2.1-1.5-2.4C319.3,188.2,320.9,189.3,322.5,191.7z M416.5,191.7c0,0.5-0.3,0.8-0.6,0.6c-0.3-0.2-0.5-0.6-0.3-0.9
		C416.1,190.5,416.5,190.6,416.5,191.7z M948.5,192.3c1.2,0.5,1.3,2.6,0.1,3c-1.3,0.5-3.4-0.9-3.4-2.2
		C945.3,191.9,946.6,191.6,948.5,192.3z M262.3,194.5c-0.8,0.8-1.6,0.2-1-0.8c0.2-0.4,0.7-0.5,1-0.3
		C262.8,193.8,262.8,194.1,262.3,194.5L262.3,194.5z M269.6,195.3c0,0.8-0.3,1.5-0.6,1.5s-0.6-0.8-0.6-1.8c0-1.1,0.2-1.7,0.6-1.5
		C269.3,193.7,269.6,194.5,269.6,195.3z M740.6,199c0.2,1.7-1.5,2.5-2.8,1.2c-1.3-1.3-0.5-3,1.2-2.7
		C739.9,197.6,740.4,198.2,740.6,199L740.6,199z M1070.3,199.9c1.7,2.9-1.9,4.9-3.9,2.1c-1.3-1.8-1.2-2.8,0.4-3.5
		C1068.7,197.9,1069.2,198.1,1070.3,199.9z M639.5,200.2c0.2,0.6,0.6,1.5,0.8,2c0.2,0.5-0.3,0.2-1.2-0.6c-1.8-1.7-2-2.4-0.8-2.4
		C638.8,199.2,639.3,199.7,639.5,200.2z M997.5,204.7c0,1.6-0.3,2.3-0.8,2.3c-2,0-3.3-3.7-1.9-5.1
		C996.2,200.5,997.5,201.8,997.5,204.7z M166.8,203.3c1.7,2.3,0.5,4.3-2.5,4.3c-3.3,0-4.4-2-2.5-4.7
		C163.2,201.1,165.3,201.2,166.8,203.3z M604.2,203.5c-0.6,0.6-0.7,0.4-0.7-0.7c0-1.1,0.2-1.3,0.7-0.7
		C604.8,202.6,604.8,203,604.2,203.5z M1080,204c1.3,0.4,1.2,0.5-1.1,0.7c-2.5,0.3-3.1,0-2.2-0.9C1077.3,203.3,1078,203.4,1080,204z
		 M536.1,207.9c1.3,1.5,0.5,3.1-1.5,3.1c-1.2,0-1.9-0.3-2-1.1c-0.2-1.2,0.9-2.8,2-2.8C535,207,535.7,207.4,536.1,207.9z
		 M1166.5,211.9c1.3,2.6,1.2,9.7-0.8,9.3c-0.8-0.1-1.7-6.8-2-8.7C1162.9,208.1,1164.5,207.7,1166.5,211.9L1166.5,211.9z
		 M1190.4,213.2c1.3,2,1.2,9.7-0.3,9.7c-0.9,0-2.7-9.2-2.7-10.7C1187.5,210.7,1189.1,211.1,1190.4,213.2z"/>
</svg>
