<svg width="1309" height="581" viewBox="0 0 1309 581" xmlns="http://www.w3.org/2000/svg">
<path style="fill: #3AADAA;" d="M-1.95317e-05 387.06C108.15 439.8 226.3 498.88 366.71 580.49H369.04C227.61 498.2 108.76 438.79 -1.95317e-05 385.76V387.06ZM-1.95317e-05 565.24C5.00998 570.38 9.98998 575.46 14.94 580.49H16.58C11.09 574.91 5.56998 569.27 -1.95317e-05 563.56V565.24ZM-1.95317e-05 555.27C8.62998 563.81 17.18 572.22 25.66 580.5H27.33C18.31 571.69 9.19998 562.73 -1.95317e-05 553.63V555.28V555.27ZM-1.95317e-05 558.67V560.33C6.75998 567.13 13.47 573.86 20.12 580.5H21.78C14.58 573.32 7.31998 566.04 -1.95317e-05 558.67ZM-1.95317e-05 395.56C102.94 447.95 214.43 505.19 344.93 580.49H347.27C215.76 504.55 103.57 446.95 -1.95317e-05 394.25V395.56ZM541.26 417.99C536.34 414.06 531.26 409.99 526.39 405.89C447.47 339.44 370.97 284.98 299 244.03C233.93 207 170.46 179.82 110.34 163.24C72.55 152.82 36.11 146.42 -1.95317e-05 143.87V144.97C36 147.55 72.42 154.01 110.03 164.38C170.05 180.93 233.44 208.08 298.42 245.06C370.32 285.98 446.77 340.4 525.63 406.8C530.51 410.91 535.6 414.98 540.52 418.92C547.24 424.3 554.19 429.86 560.78 435.63C634.12 499.75 694.97 547.51 745.38 580.51H747.53C696.71 547.42 635.13 499.08 561.55 434.75C554.94 428.96 547.98 423.39 541.25 418L541.26 417.99ZM531.16 388.13C526.56 384.33 521.81 380.39 517.24 376.47C438.28 308.62 361.75 253.51 289.77 212.68C224.65 175.73 161.24 149.34 101.31 134.24C67.08 125.61 33.18 120.5 0.00998047 118.9V120.07C33.09 121.67 66.89 126.77 101.03 135.38C160.86 150.46 224.17 176.81 289.2 213.7C361.12 254.5 437.59 309.57 516.49 377.36C521.07 381.29 525.83 385.23 530.43 389.03C537.28 394.7 544.37 400.56 551.14 406.62C644.5 490.12 717.55 547.01 774.39 580.49H776.69C719.67 547.18 646.15 490.02 551.92 405.74C545.12 399.67 538.03 393.8 531.17 388.12L531.16 388.13ZM-1.95317e-05 369.57C117.99 422.12 249.18 484.63 409.85 580.49H412.13C250.43 483.9 118.56 421.08 -1.95317e-05 368.29V369.57ZM566.13 492.22C560.48 488.05 554.63 483.73 549.07 479.28C398.02 358.44 261.91 278.75 132.96 235.67C87.84 220.6 44.11 210.15 0.00998047 203.91V205.09C43.99 211.32 87.6 221.74 132.59 236.77C261.41 279.81 397.4 359.43 548.34 480.18C553.92 484.64 559.77 488.96 565.44 493.14C571.88 497.89 578.55 502.81 584.82 507.95C618.01 535.33 648.77 559.47 677.24 580.47H679.23C650.5 559.33 619.36 534.92 585.57 507.05C579.27 501.89 572.6 496.97 566.15 492.2L566.13 492.22ZM-1.95317e-05 378.39C113.17 431.19 237.9 492.01 388.41 580.49H390.72C239.18 491.31 113.76 430.16 -1.95317e-05 377.1V378.39ZM547.09 391.31C540.29 385.17 533.22 379.22 526.38 373.47C521.85 369.66 517.17 365.73 512.67 361.82C433.7 293.26 357.15 237.82 285.14 197.03C219.98 160.12 156.6 134.12 96.75 119.76C63.83 111.86 31.65 107.34 0.00998047 106.18V107.35C31.56 108.5 63.65 113.01 96.48 120.89C156.22 135.23 219.51 161.19 284.57 198.04C356.51 238.79 433 294.19 511.91 362.69C516.42 366.61 521.11 370.55 525.64 374.36C532.47 380.11 539.54 386.05 546.32 392.18C641.33 478.12 715.28 536.45 772.39 570.5C778.45 574.11 784.31 577.44 789.98 580.5H792.47C786.21 577.17 779.72 573.51 772.99 569.5C715.94 535.49 642.05 477.21 547.1 391.32L547.09 391.31ZM986.09 421.57C951.32 431.97 939.48 469.5 928.04 505.8C917.75 538.45 907.96 569.43 882.72 580.49H885.48C909.5 568.42 919.08 538.08 929.15 506.15C940.5 470.14 952.24 432.91 986.42 422.69C1011.08 415.31 1044.81 422.6 1089.55 444.98C1140.48 470.45 1204.63 514.81 1285.51 580.49H1287.37C1134.61 456.31 1038.82 405.79 986.09 421.57ZM545.97 432.64C540.98 428.71 535.82 424.64 530.87 420.53C452 354.79 375.53 300.67 303.58 259.66C238.56 222.6 175.06 195.03 114.84 177.72C75.7 166.47 37.7 159.28 -0.0100195 156.12V157.3C37.6 160.46 75.49 167.62 114.52 178.85C174.64 196.14 238.06 223.67 303 260.69C374.89 301.66 451.3 355.75 530.12 421.45C535.08 425.57 540.25 429.64 545.24 433.58C551.97 438.88 558.93 444.37 565.52 450.07C629.65 505.5 684.71 548.81 731.52 580.51H733.56C686.52 548.76 631.05 505.16 566.28 449.19C559.67 443.47 552.7 437.97 545.96 432.66L545.97 432.64ZM542.35 376.76C535.24 370.26 527.85 363.95 520.71 357.85C516.57 354.31 512.29 350.66 508.17 347.05C429.19 277.8 352.62 222.03 280.6 181.31C215.41 144.45 152.05 118.85 92.28 105.22C60.82 98.05 30.11 94.07 -0.0100195 93.26V94.43C30.03 95.24 60.64 99.21 92.02 106.36C151.68 119.96 214.93 145.52 280.02 182.33C351.97 223.02 428.47 278.73 507.4 347.93C511.53 351.54 515.81 355.2 519.95 358.74C527.08 364.83 534.46 371.14 541.56 377.62C637.25 465.16 711.54 524.61 768.67 559.36C782.73 567.92 795.75 574.95 807.77 580.49H810.59C797.98 574.82 784.23 567.46 769.28 558.36C712.22 523.65 637.99 464.24 542.35 376.75V376.76ZM556.22 462.58C550.84 458.48 545.27 454.24 539.96 449.91C461.2 385.58 384.79 332.11 312.85 290.99C247.9 253.86 184.33 225.5 123.9 206.72C81.95 193.68 41.01 184.94 -0.0100195 180.4V181.58C40.89 186.12 81.72 194.84 123.55 207.84C183.9 226.6 247.39 254.92 312.27 292.01C384.15 333.1 460.5 386.54 539.22 450.82C544.55 455.16 550.12 459.41 555.51 463.52C562.05 468.5 568.81 473.65 575.2 479.03C623.18 519.54 666.08 553.29 704.27 580.5H706.27C667.79 553.15 624.49 519.11 575.96 478.13C569.54 472.74 562.77 467.58 556.22 462.59V462.58ZM551.15 447.68C545.94 443.64 540.55 439.46 535.41 435.22C456.59 370.19 380.14 316.39 308.2 275.32C243.21 238.22 179.67 210.25 119.35 192.2C78.79 180.06 39.33 172.13 -0.0200195 168.31V169.49C39.21 173.3 78.57 181.22 119.01 193.33C179.25 211.36 242.7 239.29 307.62 276.35C379.5 317.39 455.89 371.14 534.66 436.13C539.81 440.38 545.21 444.56 550.43 448.61C557.05 453.74 563.89 459.04 570.36 464.58C626.19 512.27 675.14 550.8 717.78 580.5H719.79C676.89 550.7 627.53 511.89 571.12 463.7C564.62 458.14 557.77 452.83 551.14 447.69L551.15 447.68ZM537.49 362.35C530.21 355.61 522.68 349.07 515.4 342.74C511.5 339.35 507.48 335.85 503.58 332.4C424.6 262.45 348.03 206.36 275.99 165.69C210.77 128.87 147.44 103.67 87.76 90.78C57.79 84.31 28.58 80.82 -0.0200195 80.31V81.48C28.5 81.99 57.62 85.47 87.51 91.92C147.08 104.79 210.3 129.95 275.41 166.71C347.38 207.34 423.88 263.38 502.8 333.28C506.7 336.74 510.73 340.24 514.63 343.63C521.9 349.96 529.42 356.5 536.69 363.22C633.07 452.38 707.69 512.96 764.82 548.42C789.87 563.97 811.56 574.63 830.16 580.5H834.18C814.9 574.96 792.09 563.98 765.43 547.42C708.36 512 633.8 451.46 537.48 362.36L537.49 362.35ZM-1.95317e-05 579.49C0.30998 579.82 0.61998 580.16 0.92998 580.49H2.52998C1.68998 579.59 0.84998 578.68 -1.95317e-05 577.77V579.49ZM-1.95317e-05 574.83C1.78998 576.72 3.56998 578.61 5.34998 580.49H6.95998C4.64998 578.05 2.32998 575.59 -1.95317e-05 573.13V574.83ZM-1.95317e-05 570.16C3.32998 573.63 6.63998 577.07 9.93998 580.49H11.57C7.73998 576.52 3.87998 572.51 0.00998047 568.47V570.16H-1.95317e-05ZM561.17 477.39C555.65 473.26 549.95 469 544.51 464.59C465.8 400.97 389.43 347.82 317.5 306.63C252.59 269.46 188.98 240.71 128.43 221.18C84.74 207.09 42.46 197.53 -0.0100195 192.19V193.47C38.69 198.38 81.51 207.28 128.07 222.3C188.54 241.8 252.07 270.52 316.91 307.65C388.78 348.81 465.11 401.92 543.77 465.51C549.22 469.93 554.94 474.2 560.46 478.33C566.96 483.19 573.67 488.21 579.99 493.49C620.44 527.25 657.27 556.2 690.73 580.49H692.71C658.94 556.03 621.7 526.78 580.75 492.59C574.41 487.29 567.68 482.26 561.17 477.39ZM978.98 414.21C944.5 424.65 932.98 461.81 921.83 497.75C911.06 532.47 900.89 565.27 871.35 573.1C846.72 579.63 810.86 567.65 761.7 536.5C704.67 500.36 629.76 438.66 532.71 347.88C525.41 341.03 517.87 334.38 510.58 327.94C506.7 324.52 502.85 321.11 499.05 317.7C420.07 247.04 343.49 190.61 271.43 149.99C206.18 113.21 142.86 88.39 83.25 76.23C55.04 70.48 27.22 67.5 -1.95317e-05 67.25V68.42C27.14 68.67 54.88 71.64 83.02 77.38C142.51 89.51 205.71 114.29 270.86 151.01C342.85 191.59 419.36 247.97 498.27 318.57C502.07 321.98 505.93 325.39 509.81 328.81C517.09 335.24 524.62 341.89 531.92 348.73C629.03 439.56 703.99 501.3 761.08 537.48C810.53 568.81 846.7 580.83 871.66 574.22C901.82 566.23 912.09 533.13 922.96 498.09C934.02 462.44 945.45 425.58 979.33 415.32C1003.93 407.87 1037.71 415.11 1082.61 437.46C1134.69 463.39 1200.58 508.93 1284.05 576.68C1285.63 577.97 1287.18 579.23 1288.71 580.48H1290.56C1288.66 578.94 1286.75 577.38 1284.78 575.78C1129.19 449.48 1032.03 398.14 978.99 414.2L978.98 414.21ZM1079.71 528.96C1053.87 535.73 1038.28 555.52 1026.01 580.5H1027.32C1039.43 556.03 1054.79 536.71 1080 530.1C1114.27 521.12 1163.49 537.32 1231.03 580.5H1233.16C1164.51 536.4 1114.52 519.84 1079.7 528.96H1079.71ZM1059.78 505.9C1026.97 514.76 1011.1 546.38 998.03 580.5H999.27C1012.52 545.85 1027.75 515.76 1060.08 507.03C1099.44 496.4 1159.55 519.95 1245.7 580.5H1247.72C1160.5 519.03 1099.66 495.13 1059.78 505.9ZM536.75 403.53C531.8 399.5 526.68 395.33 521.79 391.16C442.85 324.01 366.32 269.22 294.35 228.33C229.26 191.35 165.82 164.56 105.79 148.73C70.08 139.31 34.67 133.55 -1.95317e-05 131.47V132.64C34.57 134.72 69.88 140.46 105.49 149.86C165.41 165.67 228.76 192.42 293.77 229.35C365.68 270.21 442.15 324.95 521.03 392.06C525.93 396.24 531.06 400.41 536.01 404.45C542.61 409.82 549.43 415.37 555.93 421.11C638.84 494.43 705.76 546.81 759.62 580.51H761.83C707.76 546.89 640.39 494.24 556.7 420.23C550.18 414.48 543.35 408.92 536.75 403.54V403.53ZM1066.54 513.58C1035.85 521.79 1020.14 548.6 1007.15 580.5H1008.41C1021.25 549.09 1036.79 522.75 1066.84 514.71C1104.63 504.61 1161.22 525.71 1241.25 580.5H1243.3C1162.19 524.8 1104.85 503.34 1066.53 513.58H1066.54ZM1092.96 544.29C1072.48 549.55 1058.22 562.88 1046.9 580.49H1048.3C1059.42 563.41 1073.39 550.53 1093.26 545.42C1123.33 537.69 1164.52 548.99 1219.05 580.49H1221.33C1165.64 548.07 1123.62 536.41 1092.97 544.29H1092.96ZM1086.4 536.66C1063.17 542.69 1048.09 559.17 1036.23 580.5H1037.58C1049.26 559.69 1064.08 543.66 1086.7 537.79C1118.97 529.41 1164.26 543.16 1225.36 580.5H1227.55C1165.32 542.25 1119.23 528.14 1086.4 536.66ZM1112.76 567.41C1102.54 569.96 1093.79 574.48 1086.12 580.5H1088.07C1095.33 575.03 1103.54 570.91 1113.04 568.54C1134.18 563.27 1160.51 567.13 1192.79 580.5H1195.74C1162.05 566.18 1134.66 561.95 1112.76 567.41ZM1119.41 575.14C1114.16 576.43 1109.3 578.24 1104.76 580.5H1107.54C1111.36 578.77 1115.39 577.33 1119.69 576.27C1135.99 572.25 1155.34 573.6 1178.05 580.5H1181.86C1157.41 572.59 1136.73 570.86 1119.41 575.14ZM1099.59 552.04C1082.14 556.48 1069.13 566.74 1058.57 580.5H1060.06C1070.38 567.28 1083.05 557.45 1099.88 553.17C1127.44 546.16 1164.17 554.97 1211.76 580.5H1214.16C1165.37 554.05 1127.77 544.87 1099.6 552.04H1099.59ZM1106.22 559.77C1092.13 563.32 1080.88 570.62 1071.45 580.5H1073.11C1082.24 571.18 1093.06 564.29 1106.5 560.9C1131.14 554.7 1162.98 561.02 1203.21 580.5H1205.81C1164.29 560.09 1131.51 553.4 1106.21 559.77H1106.22ZM1073.13 521.33C1044.84 528.82 1029.05 552.02 1016.43 580.5H1017.71C1030.18 552.52 1045.77 529.79 1073.43 522.46C1109.51 512.91 1162.45 531.55 1236.24 580.5H1238.33C1163.45 530.63 1109.75 511.64 1073.13 521.33ZM1006.32 444.55C970.63 454.95 957.95 493.55 945.7 530.88C939.82 548.78 934.1 566.19 926.14 580.5H927.34C935.42 565.91 941.16 548.44 946.81 531.24C958.97 494.2 971.54 455.9 1006.65 445.67C1031.51 438.43 1065.17 445.74 1109.57 468.01C1154.13 490.36 1208.74 527.3 1275.82 580.49H1277.7C1142.77 473.34 1056.11 430.04 1006.32 444.54V444.55ZM1053.2 498.25C1018.07 507.83 1002.71 543.67 989.27 580.5H990.51C1004.27 542.79 1018.94 508.81 1053.5 499.38C1094.32 488.25 1157.85 514.23 1250.03 580.5H1252.02C1158.78 513.31 1094.54 486.98 1053.19 498.25H1053.2ZM992.85 429.18C957.78 439.58 945.67 477.46 933.96 514.1C925.59 540.3 917.54 565.44 901.84 580.5H903.53C918.85 565.18 926.8 540.33 935.07 514.45C946.69 478.11 958.7 440.52 993.17 430.3C1017.89 422.97 1051.6 430.27 1096.23 452.61C1145.1 477.08 1206.11 518.98 1282.4 580.5H1284.26C1137.42 461.95 1044.63 413.82 992.83 429.18H992.85ZM1019.78 459.93C983.43 470.33 970.17 509.66 957.35 547.71C953.61 558.8 949.83 569.99 945.45 580.5H946.72C951.03 570.09 954.76 559.03 958.45 548.08C971.18 510.32 984.34 471.28 1020.1 461.05C1067.22 447.58 1146.96 485.68 1268.99 580.5H1270.9C1147.85 484.76 1067.42 446.3 1019.78 459.93ZM999.58 436.92C964.2 447.32 951.81 485.56 939.82 522.54C932.8 544.2 926.01 565.14 915.07 580.5H916.51C927.25 565.08 933.98 544.34 940.93 522.9C952.82 486.21 965.11 448.26 999.9 438.04C1024.69 430.76 1058.37 438.06 1102.89 460.37C1149.62 483.79 1207.42 523.19 1279.07 580.5H1280.94C1140.09 467.68 1050.38 421.99 999.58 436.92ZM1013.02 452.21C977 462.61 964.03 501.58 951.49 539.26C946.66 553.76 941.94 567.96 936.08 580.5H937.28C943.23 567.79 947.95 553.62 952.6 539.63C965.05 502.23 977.91 463.56 1013.35 453.33C1061.58 439.41 1144.47 479.94 1272.49 580.5H1274.38C1145.36 479.03 1061.78 438.13 1013.03 452.21H1013.02ZM1046.55 490.58C1009.09 500.89 994.51 541.24 980.56 580.5H981.8C995.6 541.65 1010.11 501.83 1046.86 491.71C1089.08 480.08 1155.96 508.5 1254.18 580.5H1256.14C1156.89 507.58 1089.29 478.81 1046.55 490.58ZM1039.89 482.93C1002.51 493.32 988.32 533.8 974.59 572.95C973.71 575.46 972.82 577.98 971.93 580.5H973.17C974.01 578.11 974.85 575.72 975.69 573.34C989.32 534.47 1003.41 494.28 1040.2 484.06C1083.73 471.96 1153.89 502.79 1258.08 580.51H1260.02C1154.81 501.88 1083.94 470.68 1039.89 482.94V482.93ZM1026.43 467.56C989.75 477.95 976.18 517.66 963.06 556.07C960.26 564.26 957.44 572.51 954.38 580.51H955.63C958.63 572.62 961.41 564.51 964.16 556.45C977.18 518.33 990.65 478.91 1026.74 468.69C1072.72 455.67 1149.32 491.36 1265.42 580.51H1267.33C1150.21 490.45 1072.92 454.4 1026.42 467.57L1026.43 467.56ZM1033.21 475.27C996.18 485.66 982.3 525.76 968.87 564.53C967.03 569.86 965.17 575.2 963.25 580.5H964.5C966.37 575.33 968.18 570.11 969.98 564.92C983.31 526.43 997.09 486.63 1033.53 476.4C1078.32 463.83 1151.7 497.09 1261.83 580.5H1263.76C1152.61 496.17 1078.52 462.56 1033.21 475.27ZM-1.95317e-05 418.73V420.08C31.31 438.01 63.27 456.16 96.14 474.82C154.25 507.82 215.28 542.48 280.8 580.49H283.13C216.94 542.08 155.34 507.09 96.71 473.8C63.64 455.02 31.49 436.76 -0.0100195 418.73H-1.95317e-05ZM-1.95317e-05 528.31C19.99 546.25 39.63 563.63 59 580.49H60.78C40.83 563.14 20.59 545.24 -0.0100195 526.74V528.31H-1.95317e-05ZM-1.95317e-05 544.81C12.76 556.97 25.34 568.85 37.79 580.49H39.5C26.5 568.33 13.34 555.91 -0.0100195 543.19V544.81H-1.95317e-05ZM-1.95317e-05 533.87C17.43 549.85 34.6 565.39 51.53 580.49H53.29C35.8 564.89 18.05 548.83 -1.95317e-05 532.29V533.88V533.87ZM-1.95317e-05 485.32C42.63 517.73 85.5 549.34 129.12 580.49H131.13C86.82 548.87 43.28 516.78 -1.95317e-05 483.85V485.32ZM-1.95317e-05 516.67C25.66 538.73 50.84 559.96 75.7 580.49H77.54C52.09 559.49 26.3 537.74 -1.95317e-05 515.13V516.67ZM-1.95317e-05 522.49C22.76 542.49 45.11 561.8 67.14 580.49H68.95C46.33 561.32 23.38 541.5 -1.95317e-05 520.94V522.5V522.49ZM-1.95317e-05 510.62C28.57 534.6 56.89 557.86 85.09 580.48H86.96C58.14 557.38 29.2 533.61 -1.95317e-05 509.09V510.62ZM-1.95317e-05 491.85C38.87 522.19 77.72 551.66 116.89 580.48H118.86C79.02 551.18 39.52 521.23 -0.0100195 490.36V491.85H-1.95317e-05ZM-1.95317e-05 498.25C35.26 526.47 70.36 553.83 105.53 580.48H107.46C71.64 553.35 35.9 525.5 -0.0100195 496.75V498.25H-1.95317e-05ZM-1.95317e-05 504.45C31.85 530.56 63.47 555.87 95.04 580.49H96.94C64.74 555.4 32.49 529.59 -1.95317e-05 502.94V504.45ZM-1.95317e-05 539.38C15.02 553.43 29.84 567.13 44.46 580.49H46.2C31.02 566.62 15.63 552.39 0.00998047 537.78V539.38H-1.95317e-05ZM-1.95317e-05 350.15V351.41C60.19 375.71 125.3 403.74 196.28 438.55C280.17 479.69 364.62 526.64 451.51 580.49H453.73C366.24 526.2 281.23 478.91 196.79 437.49C125.61 402.59 60.33 374.5 -1.95317e-05 350.15ZM-1.95317e-05 550.09C10.63 560.42 21.15 570.55 31.55 580.5H33.24C22.28 570.03 11.2 559.35 -0.0100195 548.46V550.09H-1.95317e-05ZM1063.19 413.28C1017.69 390.66 983.57 383.4 958.85 391.06C925.24 401.48 914.48 437.63 904.07 472.59C894.33 505.31 885.13 536.21 858.06 543.31C834.44 549.5 799.13 536.5 750.1 503.56C693.16 465.31 617.35 400.18 518.34 304.46C507.58 294.09 497.06 284.37 485.41 273.64C406.49 200.86 329.89 143.43 257.76 102.94C192.4 66.26 129.13 42.61 69.72 32.64C46.02 28.67 22.77 26.86 -1.95317e-05 27.16V28.33C22.71 28.03 45.89 29.83 69.52 33.8C128.8 43.74 191.94 67.35 257.18 103.97C329.24 144.41 405.75 201.79 484.61 274.51C496.26 285.23 506.77 294.95 517.52 305.31C688.35 470.46 791.07 545.97 845.82 545.97C850.32 545.97 854.5 545.46 858.36 544.45C886.06 537.19 895.35 505.97 905.19 472.93C915.51 438.27 926.18 402.42 959.2 392.18C983.61 384.61 1017.46 391.86 1062.67 414.33C1115.33 440.51 1182.16 486.57 1266.98 555.15C1277.45 563.62 1288.08 572.09 1298.75 580.5H1300.64C1289.58 571.79 1278.56 563.01 1267.72 554.23C1182.83 485.6 1115.93 439.49 1063.2 413.28H1063.19ZM1256.35 539.85C1170.54 470.67 1103 424.22 1049.86 397.84C1004.14 375.14 969.95 367.88 945.36 375.63C912.3 386.05 902.02 421.54 892.08 455.86C882.99 487.27 874.4 516.93 848.93 523.57C800.14 536.28 695.22 459.79 508.73 275.55C390.48 158.72 278.12 78.03 174.77 35.7C113.73 10.7 55.23 -1.18999 -1.95317e-05 0.0900139V1.27001C55.07 -0.019986 113.44 11.84 174.33 36.78C277.54 79.05 389.77 159.67 507.9 276.38C608.23 375.49 684.64 442.97 741.51 482.67C790.71 517.01 825.94 530.76 849.21 524.7C875.32 517.9 884 487.92 893.19 456.19C903.04 422.16 913.23 386.98 945.7 376.75C969.99 369.1 1003.89 376.34 1049.33 398.89C1102.39 425.23 1169.87 471.64 1255.61 540.76C1272.47 554.35 1289.34 567.59 1306.22 580.49H1308.14C1290.86 567.3 1273.6 553.76 1256.34 539.84L1256.35 539.85ZM1056.53 405.54C1010.92 382.88 976.76 375.62 952.11 383.32C918.78 393.74 908.26 429.56 898.09 464.19C888.68 496.25 879.78 526.53 853.52 533.39C830.25 539.47 795.13 526.13 746.16 492.59C689.27 453.63 613.18 387.36 513.54 289.98C502.34 279.06 491.22 268.61 480.86 258.95C330.26 118.64 190.46 37.65 65.35 18.22C43.13 14.77 21.34 13.27 -1.95317e-05 13.68V14.85C21.28 14.44 43.01 15.94 65.17 19.38C190.04 38.77 329.63 119.66 480.06 259.81C490.41 269.47 501.53 279.91 512.72 290.82C684.9 459.09 787.85 535.97 841.87 535.97C846.16 535.97 850.14 535.49 853.82 534.52C880.72 527.49 889.7 496.9 899.21 464.51C909.29 430.17 919.72 394.66 952.46 384.42C976.81 376.81 1010.68 384.05 1056.01 406.57C1108.87 432.83 1176.02 479.06 1261.3 547.92C1275.03 559.03 1288.8 569.95 1302.38 580.49H1304.29C1290.33 569.67 1276.16 558.45 1262.03 547.01C1176.68 478.1 1109.46 431.82 1056.52 405.53L1056.53 405.54ZM1069.91 421.05C1024.52 398.48 990.41 391.21 965.64 398.84C931.75 409.27 920.73 445.75 910.08 481.03C900 514.41 890.48 545.94 862.61 553.27C838.65 559.57 803.14 546.92 754.06 514.58C697.07 477.03 621.55 413.05 523.18 319C514.6 310.82 505.86 302.86 497.41 295.15C494.93 292.89 492.46 290.64 490.01 288.39C411.06 216.32 334.47 159.24 262.38 118.72C197.08 82 133.81 57.98 74.34 47.29C49.13 42.76 24.3 40.58 -1.95317e-05 40.73V41.9C24.23 41.75 48.99 43.92 74.13 48.44C133.47 59.1 196.61 83.08 261.81 119.72C333.83 160.19 410.34 217.23 489.23 289.23C491.68 291.48 494.15 293.73 496.64 295.99C505.08 303.69 513.82 311.65 522.39 319.82C620.81 413.93 696.39 477.95 753.43 515.54C802.81 548.07 838.62 560.78 862.92 554.39C891.43 546.89 901.04 515.06 911.21 481.35C921.77 446.36 932.69 410.19 965.99 399.94C990.46 392.41 1024.29 399.65 1069.39 422.08C1121.85 448.17 1188.37 494.05 1272.74 562.35C1280.48 568.64 1287.96 574.66 1295.26 580.49H1297.14C1289.48 574.38 1281.63 568.06 1273.48 561.45C1189.04 493.1 1122.46 447.17 1069.92 421.04L1069.91 421.05ZM-1.95317e-05 340.78V342.03C60.9 365.32 122.76 391.09 191.76 424.18C283.24 468.06 375.7 519.67 471.62 580.48H473.81C377.29 519.21 284.28 467.26 192.27 423.12C123.07 389.95 61.06 364.12 -1.95317e-05 340.78ZM1076.49 428.73C1031.21 406.2 997.13 398.93 972.3 406.51C938.12 416.94 926.86 453.76 915.96 489.36C905.54 523.41 895.7 555.57 867 563.15C842.7 569.56 807.01 557.25 757.88 525.5C700.86 488.65 625.64 425.81 527.91 333.39C519.68 325.6 511.25 318.05 503.1 310.74C500.21 308.15 497.34 305.58 494.49 303C415.52 231.63 338.93 174.87 266.86 134.3C201.58 97.56 138.3 73.14 78.76 61.72C52.05 56.6 25.74 54.03 -0.0100195 54V55.17C25.67 55.2 51.91 57.76 78.54 62.87C137.95 74.27 201.12 98.64 266.28 135.32C338.28 175.85 414.8 232.55 493.7 303.87C496.55 306.45 499.43 309.02 502.32 311.61C510.47 318.91 518.89 326.46 527.11 334.24C624.89 426.71 700.17 489.59 757.25 526.48C806.67 558.42 842.67 570.78 867.3 564.27C896.63 556.53 906.56 524.06 917.08 489.69C927.89 454.38 939.06 417.86 972.64 407.61C997.17 400.12 1030.97 407.36 1075.97 429.76C1128.24 455.77 1194.43 501.48 1278.34 569.5C1282.93 573.24 1287.43 576.89 1291.86 580.47H1293.72C1288.93 576.6 1284.06 572.65 1279.08 568.6C1195.1 500.52 1128.84 454.77 1076.49 428.72V428.73ZM-1.95317e-05 321.6V322.84C56.02 342 116.16 365.07 182.57 395.47C288.22 443.84 395.92 504.75 509.58 580.49H511.69C397.44 504.26 289.22 443 183.06 394.4C116.45 363.91 56.15 340.79 -1.95317e-05 321.6ZM-1.95317e-05 331.32V332.56C58.09 353.61 119.9 378.29 187.12 409.8C285.85 456.08 386.06 512.36 490.92 580.48H493.07C387.62 511.88 286.87 455.27 187.62 408.74C120.2 377.15 58.23 352.42 -1.95317e-05 331.33V331.32ZM-1.95317e-05 313.05C144.37 359.6 309.77 431.42 527.6 580.49H529.67C310.84 430.57 144.85 358.5 -1.95317e-05 311.83V313.06V313.05ZM-1.95317e-05 281.25V282.46C50.24 295.73 105.01 313.34 164.39 337.9C294.38 391.66 429.31 471.04 576.75 580.49H578.72C430.71 470.49 295.3 390.76 164.84 336.82C105.29 312.19 50.37 294.54 0.00998047 281.26L-1.95317e-05 281.25ZM-1.95317e-05 291.55V292.77C51.92 307.45 107.74 326.32 168.92 352.3C293.29 405.12 421.82 479.9 561.08 580.5H563.08C423.25 479.38 294.23 404.25 169.38 351.23C108.02 325.17 52.05 306.27 -1.95317e-05 291.56V291.55ZM576.29 567.39C427.02 455.09 290.92 374.94 160.22 322.35C102.04 298.94 48.74 282.6 -1.95317e-05 270.66V271.87C48.62 283.8 101.77 300.1 159.78 323.44C290.39 375.99 426.4 456.1 575.59 568.33C581.3 572.62 587.27 576.63 593.08 580.5H595.19C595.05 580.4 594.9 580.3 594.75 580.21C588.63 576.13 582.31 571.92 576.29 567.39ZM570.57 506.64C564.93 502.55 559.1 498.32 553.55 493.94C317.14 306.72 141.14 237.71 -1.95317e-05 215.44V216.62C140.94 238.9 316.71 307.87 552.83 494.85C558.4 499.25 564.24 503.49 569.89 507.58C576.44 512.33 583.2 517.24 589.54 522.4C615.75 543.76 640.43 563.11 663.68 580.49H665.65C642.1 562.92 617.02 543.29 590.28 521.5C583.91 516.31 577.13 511.4 570.57 506.64ZM-1.95317e-05 301.79V303.01C53.66 319.24 111.06 339.5 173.43 366.68C291.89 418.31 413.77 488.48 544.68 580.5H546.72C415.22 487.96 292.84 417.45 173.89 365.61C111.35 338.35 53.79 318.05 -1.95317e-05 301.79ZM575.7 521.53C569.9 517.39 563.9 513.12 558.19 508.64C407.66 390.64 271.54 310.81 142.08 264.59C90.28 246.09 42.9 234.31 -1.95317e-05 226.82V228.01C42.79 235.49 90.04 247.25 141.69 265.69C271.03 311.87 407.03 391.64 557.47 509.56C563.2 514.06 569.21 518.34 575.02 522.48C581.49 527.09 588.18 531.86 594.43 536.89C613.87 552.55 632.44 567.07 650.19 580.49H652.13C634.02 566.82 615.05 552 595.16 535.97C588.88 530.91 582.18 526.14 575.69 521.52L575.7 521.53ZM580.3 536.14C574.47 532.04 568.43 527.81 562.71 523.37C412.48 406.81 276.39 326.91 146.65 279.11C93.29 259.44 44.33 246.6 -1.95317e-05 238.11V239.3C44.21 247.78 93.04 260.59 146.25 280.2C275.87 327.96 411.86 407.8 561.99 524.29C567.74 528.75 573.78 532.99 579.63 537.09C586.14 541.66 592.88 546.39 599.19 551.41C611.99 561.6 624.4 571.28 636.46 580.49H638.38C625.95 571.01 613.14 561.02 599.91 550.49C593.57 545.45 586.82 540.71 580.29 536.13L580.3 536.14ZM590.07 565.61C584.01 561.51 577.75 557.27 571.8 552.74C422.18 439 286.07 358.92 155.69 307.93C98.94 285.73 47.2 270.6 -1.95317e-05 259.9V261.1C47.09 271.79 98.68 286.89 155.27 309.02C285.55 359.97 421.57 440 571.1 553.67C577.07 558.22 583.35 562.47 589.42 566.58C595.89 570.96 602.58 575.49 608.82 580.33C608.89 580.39 608.96 580.44 609.04 580.5H610.95C610.48 580.13 610.01 579.78 609.54 579.41C603.27 574.54 596.56 570 590.08 565.61H590.07ZM-1.95317e-05 360.56C122.6 412.59 260.11 476.69 431.01 580.5H433.27C261.32 475.92 123.15 411.54 -1.95317e-05 359.28V360.55V360.56ZM584.75 550.55C578.93 546.54 572.91 542.39 567.19 538.01C417.25 422.84 281.14 342.85 151.1 293.46C96.26 272.63 45.74 258.68 -0.0100195 249.12V250.32C45.63 259.87 96.01 273.79 150.69 294.56C280.62 343.91 416.63 423.85 566.48 538.95C572.22 543.35 578.25 547.5 584.08 551.52C590.7 556.08 597.55 560.81 603.93 565.85C610.3 570.86 616.57 575.73 622.75 580.5H624.67C618.1 575.44 611.44 570.26 604.66 564.93C598.25 559.86 591.38 555.13 584.75 550.55ZM-1.95317e-05 402.57V403.89C3.34998 405.67 6.69998 407.44 10.09 409.24C104.81 459.44 206.53 513.36 323.2 580.49H325.55C208.13 512.88 105.85 458.67 10.64 408.21C7.06998 406.32 3.53998 404.45 -1.95317e-05 402.57ZM-1.95317e-05 457.83C60.19 498.62 122.18 539.15 187.09 580.49H189.27C123.56 538.67 60.86 497.67 -1.95317e-05 456.42V457.83ZM-1.95317e-05 464.89C55.86 503.93 112.58 542.19 171.11 580.49H173.25C113.97 541.72 56.54 502.99 -1.95317e-05 463.46V464.89ZM-1.95317e-05 450.52C65.06 493.25 132.53 536.03 204.11 580.49H206.33C133.92 535.54 65.74 492.31 -1.95317e-05 449.12V450.52ZM-1.95317e-05 478.65C46.43 512.99 93.6 546.78 142.25 580.49H144.31C94.93 546.3 47.08 512.03 -1.95317e-05 477.19V478.65ZM-1.95317e-05 471.85C50.38 508.11 102 544.04 156.17 580.49H158.26C103.33 543.55 51.04 507.15 -1.95317e-05 470.41V471.85ZM-1.95317e-05 410.68V412.02C15.91 420.79 32.03 429.66 48.46 438.69C126.57 481.64 209.65 527.34 301.87 580.5H304.21C211.28 526.9 127.63 480.9 49.02 437.67C32.4 428.53 16.09 419.56 -1.95317e-05 410.69V410.68ZM-1.95317e-05 443.2C70.39 487.97 143.72 533.05 221.86 580.5H224.11C145.13 532.54 71.07 487.02 -1.95317e-05 441.81V443.2ZM-1.95317e-05 426.6V427.96C51.16 458.34 103.89 489.11 158.52 520.98C191.35 540.13 225.22 559.9 260.35 580.5H262.66C226.92 559.53 192.47 539.43 159.11 519.97C104.27 487.97 51.34 457.09 -1.95317e-05 426.6ZM-1.95317e-05 434.3V435.67C75.23 481.94 153.71 528.69 240.7 580.5H242.99C242.56 580.25 242.13 579.99 241.7 579.73C154.32 527.68 75.52 480.75 -1.95317e-05 434.29V434.3Z"/>

</svg>
