<svg width="147" height="469" viewBox="0 0 147 469" fill="none" xmlns="http://www.w3.org/2000/svg">
<path style="fill: #3AADAA;" d="M81.5298 246.67C82.0398 259.36 84.5198 271.5 87.4698 284.92C96.4798 325.96 117.65 362.84 146.99 396.51V394.74C118.22 361.48 97.4798 325.08 88.6098 284.66C85.6698 271.3 83.1998 259.21 82.6898 246.62C80.7898 200.73 91.3198 157.67 114.89 114.99C123.75 98.95 134.41 83.05 146.99 67.17V65.29C133.97 81.61 122.97 97.94 113.87 114.43C90.1999 157.31 79.6198 200.56 81.5298 246.68V246.67ZM116.02 242.33C116.22 253.52 118.28 264.48 120.28 275.07C120.59 276.69 120.89 278.3 121.19 279.92C125.76 304.54 134.65 327.6 147 349.32V346.91C135.24 325.83 126.75 303.5 122.34 279.71C122.04 278.1 121.74 276.48 121.43 274.86C119.44 264.31 117.39 253.4 117.19 242.31C116.4 198.68 126.17 157.61 146.99 116.99V114.44C125.35 155.9 115.21 197.79 116.02 242.34V242.33ZM104.54 243.75C104.87 255.93 107.24 267.85 109.53 279.37L109.97 281.59C116.04 312.46 128.95 340.91 146.99 367.37V365.28C129.54 339.35 117.05 311.51 111.12 281.36L110.68 279.14C108.4 267.66 106.03 255.79 105.71 243.71C104.52 197.75 115.29 154.63 138.63 111.88C141.26 107.06 144.05 102.25 147 97.46V95.24C143.67 100.59 140.54 105.95 137.6 111.32C114.16 154.26 103.34 197.57 104.54 243.74V243.75ZM131.43 272.53C131.78 274.43 132.12 276.33 132.45 278.22C135.38 295.03 140.33 311.1 146.99 326.51V323.57C140.89 309 136.36 293.84 133.6 278.02C133.27 276.13 132.92 274.23 132.58 272.32C130.73 262.11 128.81 251.54 128.71 240.82C128.36 206.56 134.37 173.88 146.99 141.75V138.6C133.57 171.74 127.18 205.45 127.54 240.83C127.64 251.65 129.56 262.27 131.43 272.53ZM139.2 6.2C36.5398 88.95 -7.38015 168.61 0.999849 256.89C8.93985 340.42 67.3699 409.04 146.99 468.71V467.25C67.9599 407.87 10.0398 339.66 2.16985 256.78C-6.17015 168.93 37.6098 89.6 139.93 7.11C142.26 5.24 144.62 3.36 146.99 1.49V0C144.36 2.07 141.76 4.13 139.19 6.2H139.2ZM142.59 270C142.97 272.19 143.35 274.38 143.71 276.56C144.59 281.99 145.71 287.34 147 292.61V287.42C146.2 283.77 145.47 280.09 144.86 276.36C144.5 274.18 144.12 271.99 143.74 269.79C142.03 259.91 140.26 249.7 140.22 239.36C140.17 218.59 142.42 198.39 146.99 178.55V173.54C141.62 194.99 138.99 216.84 139.05 239.36C139.09 249.81 140.87 260.07 142.59 269.99V270ZM93.0398 245.21C93.4698 257.83 96.0098 270.12 98.4698 282.01L98.7299 283.26C106.28 319.52 123.27 352.5 147 382.85V380.94C123.86 351.05 107.28 318.62 99.8699 283.02L99.6098 281.77C97.1598 269.93 94.6298 257.69 94.1998 245.17C92.6498 199.25 103.3 156.16 126.76 113.45C132.69 102.65 139.43 91.92 146.99 81.21V79.18C139.01 90.37 131.93 101.59 125.73 112.89C102.17 155.79 91.4698 199.08 93.0298 245.21H93.0398ZM24.0198 253.97C25.0298 266.43 27.3998 279.27 31.2698 293.23C46.3299 347.74 84.3298 399.52 147 450.76V449.25C84.9598 398.37 47.3298 346.98 32.3998 292.92C28.5498 279.03 26.1898 266.26 25.1798 253.87C18.5198 170.34 57.3099 94.52 146.99 16.41V14.86C56.4599 93.47 17.2998 169.79 24.0098 253.97H24.0198ZM12.5198 255.43C13.6298 268.27 16.0898 281.19 20.0299 294.9C36.4298 351.94 78.0698 406.12 147.01 459.96V458.47C78.6998 404.97 37.4298 351.17 21.1598 294.57C17.2398 280.93 14.7998 268.09 13.6898 255.32C6.08985 168.54 48.4699 90.07 146.99 8.68V7.17C47.6199 89.04 4.85985 168.01 12.5098 255.43H12.5198ZM70.0398 248.13C70.6998 261.64 73.5798 275.06 76.2398 286.58C86.7098 331.95 112.11 372.32 147.01 408.93V407.24C112.67 371.01 87.7098 331.09 77.3798 286.32C74.6198 274.33 71.8598 261.5 71.2098 248.08C68.9498 202.23 79.3698 159.21 103.04 116.56C114.54 95.85 129.11 75.38 147.01 54.84V53.06C128.66 74 113.75 94.87 102.02 116C78.2298 158.84 67.7698 202.06 70.0398 248.14V248.13ZM35.5298 252.51C36.3798 264.28 38.5998 276.68 42.4898 291.56C56.2198 343.4 90.5698 392.65 147.01 441.2V439.56C96.4298 395.95 58.4498 347.25 43.6198 291.26C39.7398 276.46 37.5398 264.12 36.6898 252.43C30.9298 172.37 66.1098 99.42 147 24.79V23.2C65.2598 98.34 29.7098 171.81 35.5198 252.51H35.5298ZM58.5798 249.61C59.3698 263.33 62.2798 276.85 65.0298 288.26C76.9798 337.59 106.65 381.1 147.01 420.34V418.71C107.2 379.81 77.9698 336.74 66.1698 287.98C63.4298 276.62 60.5298 263.17 59.7498 249.54C55.6398 177.31 83.5799 110.89 147.02 43.85V42.14C123.12 67.29 104.34 92.23 90.2098 117.54C66.3098 160.35 55.9598 203.55 58.5898 249.6L58.5798 249.61ZM78.3198 119.05C54.2998 161.82 44.0598 204.98 47.0198 250.99C47.9498 265.49 51.0898 279.37 53.7298 289.84C66.1398 338.79 96.8399 385.35 147.02 431.07V429.41C101.78 388.07 68.1798 342.07 54.8698 289.56C52.2498 279.14 49.1198 265.32 48.1998 250.92C43.2898 174.63 74.8698 104.8 147.03 33.84V32.19C117.35 61.25 94.6998 89.92 78.3398 119.06L78.3198 119.05Z" />
</svg>
