<svg width="1440" height="1413" viewBox="0 0 1440 1413" fill="none" xmlns="http://www.w3.org/2000/svg">
<path style="fill: #3AADAA;" d="M1007.84 591.53C990.45 574.88 974.02 559.15 957.35 544.54C834.25 436.57 749.2 391.82 689.7 403.71C636.22 414.4 609.09 469.66 580.36 528.17C564.76 559.94 548.63 592.8 527.46 620.55C503.53 651.92 476.4 672.03 444.54 682.03C378.09 702.9 287.77 680.88 168.43 614.74C161.84 611.09 154.85 608.02 148.09 605.04C140.3 601.61 132.24 598.06 124.41 593.51C81.36 568.53 39.97 544.19 -1.95317e-05 520.33V521.69C39.79 545.43 80.99 569.66 123.83 594.52C131.72 599.1 139.81 602.66 147.63 606.1C154.68 609.2 161.33 612.13 167.88 615.75C287.51 682.05 378.13 704.1 444.91 683.13C477.01 673.05 504.32 652.81 528.41 621.24C549.65 593.4 565.81 560.49 581.43 528.67C610.02 470.43 637.03 415.42 689.95 404.84C749.06 393.03 833.79 437.69 956.6 545.4C973.24 560 989.67 575.71 1007.05 592.35C1009.8 594.98 1012.58 597.64 1015.37 600.31C1160.38 738.7 1306.12 844.97 1440.01 910.29V908.99C1306.36 843.71 1160.91 737.6 1016.17 599.46C1013.37 596.79 1010.6 594.13 1007.85 591.5L1007.84 591.53ZM1200.52 703.6C1115.08 648.43 1027.6 580.65 940.52 502.14C935.11 497.27 929.77 492.42 924.48 487.62C910.35 474.8 897 462.68 883.32 450.97C750.02 336.79 661.4 289.7 604.4 302.76C558.66 313.24 538.03 360.47 516.18 410.46C492.72 464.15 468.47 519.66 411.06 536.5C379.87 545.65 342.13 542.56 295.69 527.05C243.78 509.72 179.98 475.93 106.08 426.64C99.66 422.35 92.77 418.54 86.11 414.85C79.22 411.04 72.1 407.1 65.31 402.54C43.04 387.62 21.29 373.29 -1.95317e-05 359.48V360.87C21.08 374.55 42.61 388.74 64.65 403.51C71.48 408.09 78.63 412.04 85.54 415.87C92.18 419.55 99.05 423.35 105.43 427.61C179.42 476.96 243.31 510.79 295.32 528.16C342 543.75 379.96 546.84 411.39 537.62C469.33 520.63 493.69 464.86 517.26 410.93C538.98 361.21 559.5 314.25 604.67 303.9C661.27 290.93 749.57 337.94 882.56 451.86C896.23 463.57 909.57 475.67 923.7 488.49C928.99 493.29 934.33 498.14 939.74 503.01C1026.87 581.56 1114.39 649.38 1199.89 704.58C1282.05 757.63 1362.44 799.11 1438.82 827.89C1439.21 828.04 1439.61 828.18 1440 828.33V827.08C1439.74 826.98 1439.49 826.89 1439.23 826.79C1362.93 798.05 1282.61 756.6 1200.52 703.59V703.6ZM1046.56 639.94C1027.54 621.3 1009.57 603.69 991.55 587.7C873.18 482.74 789.82 439.17 729.22 450.57C671.63 461.4 641.02 521.12 608.62 584.35C546.68 705.2 476.48 842.18 197.23 701.56C190.58 698.23 183.56 695.46 176.78 692.78C168.54 689.53 160.03 686.17 151.7 681.66C99.55 653.46 49.1 624.84 0.00998047 595.6V596.96C48.93 626.08 99.19 654.59 151.15 682.68C159.53 687.22 168.08 690.6 176.35 693.86C183.42 696.65 190.1 699.29 196.7 702.6C275.64 742.35 342.33 762.13 398.15 762.13C430.73 762.13 459.61 755.39 485.04 741.95C545.54 709.97 578.14 646.38 609.66 584.88C641.93 521.92 672.41 462.44 729.44 451.72C758.28 446.3 791.89 453.45 832.19 473.58C876.74 495.84 928.62 533.46 990.78 588.58C1008.78 604.56 1026.74 622.15 1045.75 640.78L1050.26 645.2C1183.16 775.27 1316.45 877.53 1440.01 944.66V943.33C1316.7 876.25 1183.71 774.17 1051.08 644.37L1046.57 639.95L1046.56 639.94ZM1030.63 620.77C1013.24 603.88 996.82 587.94 980.2 573.28C860.25 467.31 776.32 423.34 716.08 434.9C659.89 445.68 630.48 503.85 599.33 565.44C582.39 598.93 564.88 633.56 542.13 662.94C516.39 696.17 487.51 717.59 453.82 728.44C387.81 749.69 300.75 731.42 187.66 672.57C181.05 669.15 174.36 666.41 167.29 663.52C159.19 660.21 150.81 656.78 142.62 652.24C93.48 625.03 46.07 597.87 -1.95317e-05 570.51V571.87C45.9 599.12 93.12 626.17 142.06 653.27C150.3 657.84 158.71 661.28 166.85 664.61C173.9 667.49 180.56 670.22 187.12 673.62C270.08 716.79 339.1 738.16 396.15 738.16C417.06 738.16 436.38 735.28 454.17 729.56C488.09 718.64 517.16 697.09 543.05 663.67C565.87 634.2 583.41 599.52 600.37 565.98C631.38 504.65 660.67 446.73 716.29 436.06C744.95 430.56 778.57 437.75 819.07 458.02C863.91 480.47 916.36 518.46 979.42 574.17C996.02 588.81 1012.43 604.75 1029.81 621.62C1032.74 624.47 1035.7 627.34 1038.68 630.23C1175.59 763.11 1312.99 866.78 1439.99 933.41V932.09C1313.25 865.51 1176.13 762.01 1039.5 629.39C1036.51 626.5 1033.56 623.63 1030.63 620.78V620.77ZM1013.86 599.15C996.33 582.33 979.77 566.43 963.04 551.72C840.73 444.25 755.96 399.7 696.27 411.5C642.12 422.21 614.43 478.18 585.12 537.44C569.19 569.64 552.72 602.93 531.15 631.09C506.77 662.92 479.2 683.36 446.87 693.57C380.49 714.53 290.98 693.49 173.22 629.23C166.6 625.62 159.57 622.57 152.77 619.63C144.93 616.24 136.82 612.73 128.95 608.22C84.38 582.66 41.48 557.61 -0.0100195 532.9V534.26C41.3 558.85 84 583.78 128.37 609.23C136.29 613.77 144.43 617.29 152.31 620.7C159.4 623.77 166.1 626.67 172.67 630.25C261.33 678.63 334.05 702.56 393.02 702.56C412.57 702.56 430.62 699.93 447.23 694.68C479.79 684.39 507.55 663.83 532.08 631.8C553.72 603.55 570.21 570.21 586.17 537.96C615.36 478.97 642.92 423.25 696.5 412.65C755.8 400.92 840.25 445.39 962.27 552.6C978.97 567.3 995.52 583.18 1013.05 600C1015.73 602.57 1018.42 605.15 1021.14 607.75C1164.14 744.81 1307.81 850.46 1440 916.14V914.83C1308.06 849.19 1164.68 743.7 1021.95 606.9C1019.23 604.3 1016.54 601.71 1013.86 599.15ZM1024.91 613.57C1007.48 596.73 991.02 580.81 974.38 566.14C853.64 459.66 769.43 415.48 709.36 427.12C653.86 437.87 625.03 495.3 594.5 556.09C577.9 589.14 560.74 623.33 538.38 652.29C513.09 685.05 484.64 706.14 451.41 716.77C385.26 737.93 297.38 718.74 182.75 658.13C176.07 654.57 168.98 651.62 162.13 648.76C154.19 645.45 145.99 642.03 137.99 637.55C90.39 610.88 44.52 584.44 -1.95317e-05 558V559.36C44.34 585.69 90.03 612.01 137.42 638.57C145.48 643.09 153.71 646.52 161.68 649.84C168.82 652.82 175.57 655.63 182.21 659.16C297.13 719.93 385.31 739.13 451.78 717.88C485.25 707.17 513.89 685.95 539.32 653C561.75 623.94 578.94 589.71 595.56 556.61C625.96 496.08 654.67 438.9 709.6 428.26C769.28 416.69 853.17 460.79 973.62 567.01C990.24 581.67 1006.69 597.57 1024.11 614.41C1026.97 617.17 1029.85 619.96 1032.75 622.76C1171.72 757.08 1311.24 861.44 1440 927.78V926.46C1311.5 860.17 1172.26 755.97 1033.57 621.92C1030.66 619.12 1027.78 616.33 1024.93 613.57H1024.91ZM1019.62 606.61C1002.06 589.67 985.48 573.68 968.71 558.92C847.19 451.96 762.71 407.59 702.84 419.32C648.03 430.05 619.77 486.74 589.86 546.76C573.6 579.39 556.79 613.12 534.83 641.68C510 673.98 481.99 694.74 449.21 705.16C382.93 726.22 294.23 706.12 178.02 643.69C171.35 640.09 164.28 637.09 157.44 634.19C149.56 630.85 141.42 627.39 133.5 622.9C87.41 596.77 43 571.02 -0.0100195 545.46V546.82C42.82 572.27 87.03 597.9 132.92 623.92C140.9 628.44 149.07 631.91 156.98 635.27C164.11 638.3 170.84 641.15 177.46 644.73C293.96 707.32 382.97 727.46 449.56 706.29C482.58 695.8 510.77 674.9 535.75 642.41C557.78 613.76 574.62 579.97 590.9 547.3C620.68 487.54 648.81 431.1 703.06 420.48C762.54 408.84 846.71 453.11 967.94 559.81C984.69 574.54 1001.26 590.53 1018.81 607.46C1021.49 610.05 1024.2 612.66 1026.92 615.28C1167.91 750.98 1309.51 856.01 1439.99 922.03V920.72C1309.77 854.74 1168.46 749.88 1027.74 614.44C1025.01 611.82 1022.31 609.21 1019.63 606.62L1019.62 606.61ZM1039.24 631.02C1020.81 613.05 1003.41 596.07 985.84 580.53C866.68 475.05 783.03 431.27 722.6 442.75C665.72 453.55 635.71 512.5 603.94 574.9C586.67 608.83 568.8 643.92 545.65 673.71C519.46 707.41 490.14 729.17 456 740.24C390.15 761.58 303.93 744.19 192.41 687.09C185.74 683.67 178.7 680.85 171.9 678.12C163.77 674.86 155.36 671.49 147.13 666.97C96.49 639.26 47.59 611.41 -0.0200195 583.11V584.47C47.41 612.66 96.12 640.4 146.56 668C154.85 672.55 163.29 675.93 171.46 679.21C178.55 682.05 185.25 684.74 191.88 688.13C303.7 745.38 390.21 762.78 456.37 741.35C490.73 730.21 520.24 708.32 546.58 674.43C569.8 644.55 587.69 609.41 604.98 575.43C636.62 513.29 666.5 454.59 722.81 443.9C751.56 438.44 785.18 445.61 825.58 465.82C870.28 488.18 922.44 525.99 985.05 581.41C1002.6 596.93 1020 613.9 1038.41 631.86L1044.41 637.71C1179.33 769.2 1314.69 872.18 1439.98 939.08V937.76C1314.95 870.92 1179.88 768.11 1045.23 636.88L1039.23 631.03L1039.24 631.02ZM1182.12 673.04C1095.04 618.23 1005.93 550.64 917.25 472.15C911.42 466.99 905.67 461.86 899.97 456.78C886.45 444.71 873.67 433.31 860.54 422.14C724.13 306.13 634.4 258.36 578.15 271.81C534.46 282.25 515.55 327.4 495.52 375.2C474.36 425.72 452.47 477.95 399.34 493.27C368.66 502.12 330.76 497.88 283.47 480.33C229.64 460.35 165.35 423.84 86.92 368.72C80.58 364.27 73.78 360.24 67.19 356.35C60.56 352.43 53.71 348.37 47.18 343.81C31.33 332.73 15.6 321.92 -0.0200195 311.33V312.74C15.39 323.18 30.89 333.84 46.51 344.77C53.07 349.36 59.95 353.42 66.59 357.36C73.15 361.24 79.94 365.26 86.24 369.68C164.75 424.86 229.13 461.42 283.05 481.43C330.58 499.07 368.72 503.31 399.65 494.39C453.32 478.91 475.32 426.41 496.59 375.64C516.5 328.12 535.3 283.24 578.41 272.93C634.27 259.57 723.67 307.27 859.77 423.01C872.89 434.18 885.66 445.57 899.18 457.63C904.88 462.72 910.63 467.85 916.46 473.01C1005.18 551.54 1094.35 619.17 1181.48 674.02C1264.78 726.45 1346.43 767.35 1424.15 795.58C1429.45 797.5 1434.72 799.37 1439.97 801.17V799.93C1434.85 798.17 1429.71 796.36 1424.55 794.48C1346.91 766.28 1265.34 725.42 1182.1 673.03L1182.12 673.04ZM1195.77 695.93C1109.92 640.85 1022.04 573.12 934.56 494.61C929.42 489.99 924.34 485.4 919.3 480.84C904.95 467.86 891.39 455.61 877.51 443.72C743.43 329.08 654.53 281.81 597.73 294.96C552.52 305.43 532.33 352.11 510.96 401.54C488.09 454.42 464.44 509.1 408.1 525.56C377.02 534.64 339.23 531.26 292.56 515.26C240.34 497.34 175.95 462.64 101.18 412.1C94.81 407.79 87.97 403.94 81.35 400.22C74.51 396.37 67.44 392.4 60.71 387.83C40.04 373.83 19.82 360.38 0.00998047 347.39V348.79C19.61 361.64 39.61 374.96 60.05 388.8C66.82 393.4 73.92 397.38 80.77 401.24C87.37 404.95 94.19 408.79 100.52 413.07C175.38 463.66 239.86 498.42 292.18 516.36C339.08 532.45 377.11 535.83 408.43 526.68C465.3 510.07 489.06 455.14 512.04 402.01C533.3 352.86 553.37 306.44 598 296.11C654.4 283.05 742.98 330.23 876.75 444.62C890.62 456.5 904.17 468.75 918.51 481.72C923.55 486.28 928.63 490.87 933.77 495.49C1021.3 574.04 1109.23 641.81 1195.13 696.93C1277.58 749.83 1358.28 791.17 1434.99 819.8C1436.66 820.42 1438.32 821.03 1439.99 821.64V820.4C1438.46 819.84 1436.93 819.28 1435.4 818.71C1358.77 790.1 1278.14 748.8 1195.76 695.95L1195.77 695.93ZM1172.82 657.75C1084.91 603.13 994.97 535.65 905.5 457.2C898.68 451.23 891.87 445.21 885.28 439.39C872.86 428.4 861.13 418.03 849.07 407.79C711.1 290.88 620.8 242.78 564.9 256.42C522.17 266.85 504.07 311.02 484.89 357.78C464.82 406.74 444.06 457.37 393.05 471.96C362.68 480.65 324.75 475.82 277.1 457.22C222.74 436 157.36 397.6 77.23 339.81C70.91 335.23 64.1 331.06 57.5 327.02C51.03 323.06 44.35 318.96 38.01 314.43C25.25 305.32 12.58 296.41 -0.0100195 287.66V289.09C12.36 297.68 24.81 306.44 37.33 315.38C43.7 319.94 50.4 324.05 56.89 328.02C63.46 332.05 70.26 336.21 76.54 340.76C156.75 398.6 222.22 437.05 276.67 458.31C324.57 477.01 362.74 481.84 393.37 473.09C444.93 458.35 465.8 407.45 485.97 358.23C505.02 311.75 523.02 267.85 565.17 257.56C620.68 244.01 710.64 292.03 848.31 408.68C860.37 418.91 872.09 429.28 884.5 440.27C891.09 446.1 897.9 452.12 904.72 458.09C994.24 536.59 1084.23 604.1 1172.19 658.76C1256.06 710.87 1338.34 751.47 1416.74 779.43C1424.53 782.21 1432.28 784.86 1439.98 787.38V786.15C1432.41 783.66 1424.79 781.06 1417.13 778.33C1338.81 750.4 1256.6 709.83 1172.8 657.76L1172.82 657.75ZM1177.45 665.38C1089.95 610.66 1000.43 543.13 911.35 464.65C904.91 458.98 898.48 453.27 892.27 447.74C879.42 436.31 867.29 425.51 854.79 414.92C717.59 298.47 627.57 250.54 571.5 264.09C528.29 274.53 509.78 319.19 490.18 366.47C469.57 416.2 448.25 467.63 396.18 482.58C365.65 491.34 327.73 486.82 280.26 468.74C226.16 448.14 161.33 410.69 82.05 354.24C75.73 349.74 68.95 345.66 62.38 341.72C55.81 337.77 49.01 333.68 42.56 329.11C28.27 319.01 14.09 309.14 -0.0100195 299.48V300.9C13.86 310.42 27.83 320.14 41.89 330.07C48.38 334.66 55.2 338.76 61.79 342.72C68.33 346.65 75.1 350.72 81.38 355.19C160.74 411.7 225.66 449.19 279.85 469.83C327.57 488 365.73 492.54 396.51 483.7C449.12 468.6 470.55 416.9 491.27 366.91C510.75 319.91 529.15 275.52 571.78 265.22C627.46 251.76 717.15 299.62 854.04 415.8C866.52 426.39 878.65 437.18 891.49 448.61C897.71 454.14 904.13 459.86 910.57 465.53C999.69 544.05 1089.27 611.62 1176.82 666.37C1260.41 718.64 1342.37 759.39 1420.44 787.49C1426.99 789.85 1433.51 792.1 1439.99 794.28V793.05C1433.64 790.91 1427.25 788.7 1420.83 786.39C1342.85 758.33 1260.96 717.61 1177.44 665.38H1177.45ZM1191.34 688.32C1105.08 633.33 1016.78 565.64 928.91 487.13C923.37 482.18 917.9 477.26 912.48 472.38C898.58 459.87 885.45 448.05 871.99 436.56C737.13 321.46 647.95 274.02 591.32 287.28C546.62 297.74 526.86 343.9 505.94 392.77C483.64 444.85 460.58 498.71 405.31 514.78C374.35 523.78 336.52 520.12 289.64 503.61C237.12 485.11 172.15 449.46 96.53 397.67C90.16 393.31 83.29 389.37 76.64 385.56C69.9 381.7 62.93 377.71 56.3 373.18C37.16 360.08 18.4 347.46 -1.95317e-05 335.28V336.68C18.19 348.73 36.72 361.2 55.64 374.14C62.31 378.69 69.3 382.69 76.06 386.56C82.69 390.36 89.54 394.28 95.87 398.62C171.58 450.47 236.64 486.16 289.25 504.69C336.37 521.29 374.44 524.95 405.64 515.88C461.44 499.66 484.61 445.54 507.02 393.21C527.82 344.62 547.47 298.72 591.6 288.39C647.83 275.23 736.69 322.59 871.24 437.42C884.68 448.9 897.81 460.71 911.71 473.22C917.14 478.1 922.61 483.03 928.15 487.97C1016.08 566.52 1104.42 634.24 1190.73 689.27C1273.47 742.02 1354.48 783.21 1431.53 811.71C1434.37 812.76 1437.19 813.79 1440.02 814.8V813.55C1437.33 812.58 1434.64 811.61 1431.94 810.61C1354.97 782.14 1274.03 740.99 1191.36 688.28L1191.34 688.32ZM1186.72 680.73C1100.05 625.83 1011.34 558.18 923.06 479.68C917.53 474.75 912.07 469.86 906.66 465C892.8 452.56 879.7 440.81 866.23 429.35C730.57 313.79 641.1 266.18 584.66 279.53C540.47 289.98 521.13 335.64 500.66 383.97C478.93 435.27 456.47 488.31 402.27 504C371.45 512.92 333.57 508.98 286.48 491.95C233.68 472.85 168.12 436.26 91.64 383.19C85.29 378.79 78.46 374.81 71.86 370.97C65.17 367.08 58.26 363.05 51.66 358.5C34.31 346.5 17.1 334.79 -0.0100195 323.33V324.74C16.87 336.05 33.86 347.61 50.99 359.46C57.62 364.04 64.56 368.08 71.27 371.98C77.85 375.81 84.66 379.78 90.97 384.15C168.62 438.02 232.44 473.65 286.08 493.05C333.41 510.17 371.52 514.12 402.59 505.12C457.32 489.27 479.9 435.97 501.73 384.42C522.08 336.37 541.3 290.98 584.92 280.66C640.97 267.4 730.11 314.93 865.46 430.23C878.92 441.68 892.01 453.43 905.87 465.86C911.28 470.72 916.74 475.62 922.28 480.54C1010.61 559.08 1099.36 626.77 1186.09 681.7C1269.11 734.29 1350.45 775.34 1427.84 803.7C1431.91 805.19 1435.96 806.63 1440 808.05V806.81C1436.09 805.44 1432.17 804.04 1428.24 802.59C1350.93 774.26 1269.67 733.25 1186.72 680.7V680.73ZM1004.54 584.48C1000.96 581.09 997.41 577.73 993.9 574.39C977.41 558.75 961.84 543.97 946.01 530.13C821.32 421.17 735.71 376.04 676.59 388.1C624.4 398.75 598.36 452.63 570.79 509.68C540.4 572.57 508.97 637.6 439.8 659.06C373.25 679.71 281.35 655.73 158.87 585.77C152.3 582.02 145.3 578.83 138.53 575.74C130.88 572.25 122.98 568.65 115.33 564.11C75.72 540.6 37.32 517.71 -0.0200195 495.31V496.67C37.13 518.96 75.33 541.72 114.73 565.11C122.43 569.68 130.37 573.3 138.04 576.8C145.09 580.02 151.76 583.05 158.28 586.78C252.7 640.72 329.03 667.37 389.67 667.37C407.88 667.37 424.69 664.96 440.13 660.17C471.3 650.5 497.73 630.9 520.92 600.24C541.38 573.2 556.86 541.16 571.83 510.18C599.27 453.4 625.19 399.77 676.81 389.24C735.55 377.26 820.84 422.31 945.23 531C961.03 544.82 976.6 559.59 993.08 575.23C996.6 578.57 1000.14 581.93 1003.73 585.32C1086.6 663.74 1169.76 731.92 1250.9 787.98C1315.67 832.73 1379.09 869.72 1439.99 898.3V897.01C1379.3 868.49 1316.1 831.61 1251.56 787.02C1170.47 730.99 1087.35 662.84 1004.53 584.47L1004.54 584.48ZM992.93 569.58C989.02 565.91 985.15 562.27 981.32 558.66C965.24 543.52 950.06 529.21 934.62 515.79C808.36 405.86 722.2 360.35 663.46 372.58C612.53 383.19 587.55 435.75 561.11 491.4C532.04 552.56 501.98 615.81 434.93 636.38C368.36 656.8 274.92 630.79 149.28 556.87C142.74 553.01 135.74 549.7 128.98 546.5C121.48 542.95 113.73 539.28 106.26 534.75C69.56 512.47 34.29 491.1 0.00998047 470.34V471.71C34.1 492.35 69.18 513.6 105.66 535.75C113.17 540.31 120.96 544 128.48 547.56C135.53 550.9 142.19 554.05 148.69 557.88C246.98 615.71 325.65 644.27 387.26 644.27C404.59 644.27 420.59 642.01 435.28 637.5C465.51 628.23 491.05 609.25 513.35 579.49C533.03 553.23 547.85 522.05 562.18 491.9C588.5 436.52 613.36 384.22 663.71 373.73C722.06 361.57 807.9 407 933.86 516.67C949.29 530.08 964.46 544.38 980.53 559.51C984.36 563.12 988.23 566.76 992.14 570.43C1075.75 648.88 1159.68 717.01 1241.59 772.93C1309.62 819.37 1376.21 857.37 1440.02 886.18V884.9C1376.42 856.14 1310.06 818.25 1242.25 771.97C1160.39 716.09 1076.52 648 992.95 569.59L992.93 569.58ZM981.23 554.56C977.31 550.91 973.44 547.29 969.6 543.7C953.65 528.79 938.58 514.7 923.2 501.37C795.37 390.48 708.65 344.61 650.3 357.03C600.59 367.61 576.64 418.91 551.28 473.21C523.51 532.68 494.8 594.17 429.87 613.87C363.37 634.06 268.44 605.95 139.67 527.96C133.12 523.97 126.13 520.55 119.37 517.24C112.04 513.65 104.45 509.94 97.15 505.4C63.75 484.66 31.4 464.73 0.0199805 445.51V446.88C31.21 465.98 63.35 485.79 96.54 506.39C103.89 510.96 111.5 514.68 118.86 518.29C125.91 521.74 132.57 525 139.07 528.95C241.21 590.81 322.15 621.34 384.61 621.34C401.08 621.34 416.28 619.22 430.22 614.98C495.65 595.12 524.47 533.39 552.35 473.69C577.58 419.65 601.42 368.61 650.56 358.15C708.52 345.82 794.91 391.6 922.45 502.23C937.82 515.55 952.88 529.63 968.82 544.53C972.66 548.12 976.54 551.75 980.46 555.4C1064.83 633.88 1149.53 701.95 1232.21 757.71C1303.52 805.81 1373.3 844.74 1440.03 873.7V872.42C1373.51 843.51 1303.95 804.68 1232.87 756.73C1150.24 701 1065.59 632.97 981.26 554.53L981.23 554.56ZM987.05 562.05C983.01 558.28 979.02 554.54 975.06 550.83C959.17 535.94 944.17 521.88 928.86 508.57C801.81 398.15 715.37 352.47 656.83 364.79C606.52 375.38 582.06 427.31 556.16 482.28C527.75 542.59 498.37 604.96 432.37 625.09C365.83 645.39 271.64 618.35 144.44 542.42C137.92 538.53 130.97 535.18 124.25 531.95C116.8 528.36 109.1 524.66 101.67 520.09C66.76 498.66 32.85 477.95 -0.0100195 457.95V459.32C32.66 479.21 66.36 499.79 101.06 521.09C108.54 525.69 116.27 529.41 123.75 533.01C130.76 536.38 137.37 539.57 143.85 543.43C271.35 619.54 365.84 646.62 432.72 626.22C499.21 605.93 528.7 543.33 557.22 482.78C582.99 428.08 607.33 376.41 657.07 365.94C715.22 353.69 801.34 399.3 928.09 509.46C943.38 522.75 958.38 536.81 974.26 551.69C978.22 555.4 982.21 559.14 986.25 562.91C1070.25 641.38 1154.56 709.48 1236.85 765.32C1306.53 812.6 1374.72 851.09 1440 879.99V878.71C1374.93 849.86 1306.96 811.49 1237.51 764.36C1155.27 708.55 1071 640.49 987.05 562.07V562.05ZM1091.83 696.81L1088.97 693.94C1069.02 673.9 1050.18 654.98 1031.39 638.12C972.3 585.04 922.39 548.72 878.81 527.1C839.04 507.37 805.29 500.31 775.64 505.53C712.94 516.56 677.92 582.09 640.85 651.48C573.3 777.89 496.73 921.17 230.81 802.86C224.05 799.85 216.98 797.4 210.15 795.03C201.43 792.01 192.42 788.88 183.48 784.46C120.73 753.34 59.79 719.66 0.0199805 683.01V684.38C59.62 720.9 120.39 754.49 182.96 785.51C191.97 789.97 201.02 793.1 209.77 796.14C216.89 798.61 223.62 800.94 230.34 803.93C349.4 856.9 441.17 862.1 510.91 819.84C572.02 782.8 607.54 716.32 641.89 652.04C678.83 582.92 713.72 517.62 775.86 506.7C805.26 501.53 838.77 508.55 878.31 528.16C921.79 549.73 971.62 585.99 1030.63 639C1040.39 647.76 1050.18 657.09 1060.12 666.84C1052.35 659.31 1044.85 652.26 1037.23 645.39C978.57 592.61 928.95 556.49 885.52 534.97C845.86 515.32 812.13 508.29 782.4 513.47C718.94 524.53 683.25 590.95 645.47 661.28C577.13 788.48 499.68 932.65 235.66 817.4C228.88 814.44 221.83 812.04 215.02 809.73C206.23 806.74 197.14 803.65 188.09 799.22C123.81 767.75 61.35 733.29 0.0299805 695.43V696.81C61.19 734.55 123.48 768.9 187.58 800.28C196.7 804.74 205.82 807.85 214.65 810.85C221.75 813.27 228.47 815.55 235.2 818.49C299.56 846.59 355.97 860.61 405.28 860.61C446.53 860.61 482.83 850.79 514.63 831.17C575.81 793.43 611.75 726.54 646.5 661.85C684.14 591.78 719.7 525.6 782.6 514.64C812.07 509.5 845.57 516.5 885 536.04C928.33 557.51 977.87 593.57 1036.45 646.28C1047.67 656.38 1058.62 666.9 1070.58 678.76C1061.32 669.68 1052.05 660.83 1042.87 652.55C984.66 600.07 935.32 564.14 892.05 542.73C852.51 523.16 818.8 516.15 789.01 521.29C724.8 532.38 688.45 599.71 649.98 670.98C580.89 798.98 502.57 944.04 240.44 831.81C233.64 828.89 226.55 826.52 219.7 824.23C210.85 821.28 201.7 818.22 192.62 813.83C126.85 782.05 62.91 746.83 0.0399805 707.72V709.1C62.75 748.08 126.52 783.19 192.11 814.89C201.26 819.31 210.45 822.38 219.33 825.34C226.47 827.72 233.22 829.98 239.98 832.88C302.6 859.69 357.7 873.08 406.12 873.08C448.45 873.08 485.68 862.84 518.28 842.37C579.53 803.93 615.87 736.62 651 671.53C689.34 600.51 725.55 533.43 789.2 522.44C818.75 517.34 852.21 524.31 891.53 543.77C934.71 565.14 983.96 601.01 1042.09 653.41C1054.16 664.3 1066.39 676.17 1078.54 688.27C1068.54 678.38 1058.5 668.74 1048.54 659.75C990.77 607.58 941.74 571.85 898.62 550.54C859.2 531.05 825.53 524.06 795.66 529.18C730.69 540.31 693.67 608.54 654.48 680.78C584.62 809.57 505.44 955.55 245.18 846.31C238.42 843.47 231.39 841.16 224.59 838.94C215.62 836 206.35 832.97 197.12 828.55C129.87 796.48 64.44 760.5 0.0199805 720.11V721.49C64.27 761.74 129.54 797.61 196.61 829.6C205.91 834.04 215.22 837.09 224.22 840.04C231.31 842.36 238.01 844.56 244.73 847.38C305.61 872.93 359.42 885.7 406.91 885.7C450.34 885.7 488.49 875.03 521.91 853.69C583.24 814.55 619.98 746.82 655.5 681.33C694.55 609.34 731.43 541.35 795.85 530.32C825.45 525.25 858.9 532.2 898.09 551.58C941.1 572.85 990.06 608.51 1047.74 660.61C1056.97 668.94 1066.29 677.85 1075.58 687C1068.4 680.03 1061.33 673.34 1054.28 666.96C996.96 615.1 948.22 579.57 905.27 558.37C865.97 538.97 832.33 532 802.41 537.08C736.67 548.24 698.97 617.4 659.07 690.62C588.45 820.2 508.4 967.06 250.06 860.79C243.32 858.02 236.31 855.76 229.54 853.58C220.48 850.66 211.11 847.65 201.75 843.25C132.97 810.88 66.02 774.08 0.0199805 732.34V733.72C65.86 775.32 132.65 812.01 201.25 844.3C210.68 848.73 220.08 851.76 229.18 854.69C236.24 856.96 242.92 859.11 249.62 861.87C308.77 886.2 361.28 898.37 407.85 898.37C452.35 898.37 491.42 887.26 525.66 865.05C587.05 825.22 624.19 757.08 660.11 691.18C699.88 618.21 737.44 549.29 802.62 538.23C832.29 533.19 865.7 540.12 904.77 559.42C947.62 580.58 996.27 616.04 1053.51 667.83C1063.54 676.91 1073.61 686.59 1083.99 696.88C1075.9 688.95 1067.88 681.31 1059.94 674.09C1003.07 622.53 954.64 587.21 911.85 566.1C872.68 546.78 839.07 539.84 809.1 544.88C742.59 556.07 704.22 626.17 663.59 700.38C592.21 830.75 511.32 978.52 254.84 875.18C248.06 872.44 241.03 870.23 234.23 868.09C225.11 865.22 215.67 862.25 206.26 857.89C136.02 825.27 67.59 787.7 0.0399805 744.59V745.98C67.43 788.95 135.7 826.41 205.77 858.95C215.25 863.35 224.72 866.33 233.88 869.21C240.97 871.44 247.67 873.55 254.41 876.27C311.86 899.42 363.07 910.99 408.69 910.99C454.27 910.99 494.27 899.43 529.32 876.33C590.78 835.82 628.32 767.25 664.62 700.95C705.11 626.99 743.35 557.14 809.3 546.04C839.02 541.04 872.4 547.95 911.34 567.16C954.02 588.22 1002.38 623.48 1059.16 674.96C1069.05 683.94 1079.05 693.57 1089.17 703.62C1081.18 695.78 1073.42 688.38 1065.62 681.3C1009.19 630.05 961.04 594.93 918.42 573.93C879.37 554.69 845.79 547.78 815.76 552.79C748.47 564.02 709.4 635.08 668.03 710.32C595.92 841.48 514.18 990.14 259.62 889.69C252.88 887.03 245.91 884.88 239.16 882.8C229.91 879.95 220.35 877 210.79 872.61C136.82 838.72 67.04 800.11 0.0499805 756.99V758.38C66.89 801.37 136.51 839.86 210.3 873.67C219.93 878.09 229.53 881.05 238.81 883.91C245.85 886.08 252.49 888.13 259.19 890.77C314.96 912.78 364.86 923.78 409.52 923.78C456.15 923.78 497.08 911.77 532.94 887.76C594.46 846.57 632.39 777.58 669.07 710.87C710.29 635.89 749.23 565.07 815.97 553.93C845.75 548.96 879.1 555.84 917.92 574.97C960.44 595.92 1008.5 630.98 1064.85 682.16C1073.43 689.94 1081.96 698.1 1090.8 706.84C1084.27 700.48 1077.81 694.35 1071.34 688.47C1015.36 637.53 967.51 602.61 925.06 581.72C886.14 562.57 852.6 555.68 822.52 560.66C754.46 571.93 714.71 643.95 672.61 720.2C599.76 852.16 517.2 1001.73 264.44 904.13C257.73 901.54 250.78 899.44 244.07 897.4C234.73 894.57 225.07 891.64 215.37 887.27C139.86 853.15 68.59 813.66 0.0599805 769.07V770.47C68.44 814.92 139.56 854.3 214.89 888.34C224.66 892.75 234.36 895.69 243.74 898.53C250.74 900.65 257.36 902.66 264.03 905.23C318.14 926.13 366.76 936.58 410.46 936.58C458.16 936.58 500.01 924.11 536.69 899.18C598.28 857.31 636.59 787.9 673.65 720.78C715.6 644.78 755.23 573.01 822.72 561.83C852.54 556.89 885.85 563.75 924.55 582.79C966.9 603.63 1014.66 638.49 1070.56 689.36C1079.9 697.86 1089.23 706.85 1098.78 716.36C1091.52 709.23 1084.26 702.3 1077.08 695.74C1021.54 645.11 973.98 610.39 931.68 589.61C892.89 570.54 859.38 563.68 829.25 568.63C760.4 579.93 719.93 652.94 677.08 730.23C603.5 862.97 520.1 1013.42 269.23 918.66C262.57 916.15 255.69 914.11 249.03 912.13C239.56 909.32 229.77 906.41 219.91 902.01C142.89 867.68 70.14 827.28 0.0799805 781.18V782.58C69.99 828.54 142.59 868.83 219.43 903.08C229.35 907.51 239.18 910.43 248.69 913.25C255.63 915.31 262.19 917.26 268.81 919.75C321.27 939.57 368.59 949.48 411.3 949.48C460.06 949.48 502.81 936.55 540.31 910.68C601.96 868.14 640.66 798.32 678.1 730.8C720.81 653.76 761.14 581 829.44 569.78C859.32 564.87 892.6 571.7 931.17 590.66C973.36 611.39 1020.83 646.05 1076.29 696.61C1083.3 703.01 1090.39 709.78 1097.49 716.73C1092.6 712.02 1087.72 707.42 1082.83 702.96C1027.74 652.63 980.48 618.12 938.36 597.44C899.7 578.46 866.24 571.62 836.07 576.53C766.44 587.87 725.26 661.86 681.66 740.2C607.35 873.74 523.12 1025.09 274.1 933.13C267.48 930.69 260.64 928.7 254.02 926.77C244.42 923.98 234.5 921.09 224.54 916.7C148.39 883.23 73.99 842.3 0.0799805 793.14V794.55C73.83 843.56 148.09 884.38 224.07 917.78C234.1 922.2 244.06 925.1 253.7 927.91C260.6 929.92 267.12 931.82 273.7 934.24C327.08 953.95 372.89 962.53 412.69 962.53C559.26 962.52 624.07 846.12 682.69 740.78C726.15 662.69 767.19 588.94 836.26 577.69C866.18 572.82 899.41 579.62 937.85 598.49C979.87 619.12 1027.03 653.57 1082.04 703.82C1091.79 712.71 1101.53 722.16 1111.32 731.97C1103.65 724.38 1096.02 717.06 1088.39 710.08C1033.73 660.06 986.77 625.74 944.83 605.17C906.3 586.27 872.89 579.46 842.67 584.34C772.26 595.71 730.37 670.72 686.03 750.13C611.01 884.46 525.98 1036.72 278.78 947.52C272.12 945.12 265.27 943.16 258.65 941.27C249.01 938.52 239.04 935.67 228.97 931.31C151.41 897.7 75.55 855.92 0.0799805 805.13V806.54C75.4 857.16 151.11 898.84 228.51 932.38C238.65 936.77 248.65 939.63 258.33 942.4C264.94 944.29 271.77 946.24 278.39 948.63C330.02 967.26 374.58 975.4 413.49 975.4C561.57 975.4 627.47 857.41 687.06 750.71C731.27 671.56 773.02 596.79 842.87 585.51C872.84 580.67 906.02 587.45 944.33 606.23C986.18 626.75 1033.05 661.01 1087.62 710.95C1094.45 717.2 1101.29 723.74 1108.15 730.48C1103.44 725.93 1098.8 721.55 1094.17 717.3C1039.96 667.6 993.3 633.49 951.53 613.03C913.14 594.23 879.78 587.45 849.53 592.29C778.34 603.7 735.73 679.73 690.63 760.21C614.9 895.34 529.07 1048.51 283.66 962.04C276.99 959.67 270.13 957.76 263.49 955.9C253.79 953.19 243.75 950.39 233.61 946.04C154.58 912.29 77.22 869.6 0.10998 817.11V818.53C77.06 870.86 154.28 913.43 233.15 947.12C243.37 951.5 253.44 954.31 263.18 957.03C270.11 958.96 276.65 960.79 283.28 963.15C529.62 1049.95 615.71 896.32 691.66 760.79C714.65 719.77 736.36 681.03 761.37 650.77C789.43 616.83 817.5 598.62 849.72 593.45C879.72 588.64 912.86 595.39 951.02 614.08C992.69 634.49 1039.26 668.54 1093.39 718.16C1101.27 725.39 1109.19 733.01 1117.39 741.17C1111.53 735.43 1105.67 729.85 1099.85 724.51C1046.08 675.12 999.72 641.22 958.13 620.87C919.88 602.16 886.57 595.41 856.29 600.22C784.32 611.67 740.99 688.72 695.12 770.3C618.69 906.22 532.07 1060.28 288.45 976.52C281.86 974.25 275.07 972.4 268.51 970.6C258.64 967.9 248.44 965.1 238.13 960.77C157.67 926.89 78.83 883.27 0.10998 829.01V830.43C78.68 884.53 157.37 928.03 237.67 961.85C248.05 966.21 258.3 969.02 268.2 971.73C274.74 973.52 281.51 975.38 288.07 977.63C336.28 994.21 378.34 1001.51 415.42 1001.51C566.44 1001.51 634.59 880.33 696.13 770.88C719.51 729.3 741.59 690.03 766.98 659.38C795.45 625 823.89 606.57 856.47 601.39C886.51 596.61 919.59 603.33 957.62 621.93C999.11 642.23 1045.38 676.06 1099.07 725.38C1104.72 730.56 1110.4 735.97 1116.09 741.53C1112.56 738.15 1109.07 734.86 1105.59 731.66C1052.25 682.58 1006.19 648.89 964.77 628.65C926.66 610.03 893.39 603.31 863.09 608.09C829.85 613.34 800.83 632.12 771.75 667.18C745.92 698.32 723.45 738.17 699.65 780.36C622.53 917.09 535.13 1072.06 293.29 990.97C286.75 988.78 280.03 986.98 273.54 985.24C263.54 982.56 253.2 979.79 242.72 975.44C170.42 945.43 101.23 908.35 31.2 862.05C20.82 855.19 10.47 848.16 0.12998 840.94V842.37C10.26 849.43 20.39 856.31 30.55 863.03C100.64 909.36 169.9 946.49 242.27 976.52C252.82 980.9 263.2 983.68 273.23 986.37C279.71 988.11 286.41 989.9 292.91 992.08C339.44 1007.68 380.26 1014.58 416.41 1014.58C568.89 1014.58 638.15 891.78 700.67 780.94C724.44 738.8 746.89 698.99 772.65 667.93C801.54 633.1 830.34 614.45 863.27 609.25C893.34 604.5 926.37 611.19 964.26 629.7C1005.58 649.89 1051.55 683.52 1104.8 732.52C1112.93 740 1121.15 747.95 1129.7 756.52C1123.58 750.49 1117.45 744.61 1111.35 738.99C1058.45 690.22 1012.69 656.72 971.44 636.59C933.47 618.06 900.26 611.36 869.93 616.12C836.34 621.39 806.95 640.38 777.44 675.9C751.24 707.44 728.39 747.83 704.19 790.59C626.38 928.11 538.19 1083.98 298.1 1005.52C291.53 1003.36 284.79 1001.58 278.27 999.86C268.19 997.2 257.77 994.45 247.22 990.15C175.1 960.66 106.01 923.76 36.01 877.35C24.02 869.4 12.06 861.2 0.10998 852.75V854.18C11.85 862.47 23.59 870.52 35.37 878.32C105.43 924.77 174.58 961.7 246.78 991.23C257.4 995.56 267.86 998.32 277.97 1000.98C284.47 1002.7 291.2 1004.47 297.73 1006.62C538.73 1085.38 627.17 929.06 705.2 791.15C729.37 748.44 752.19 708.09 778.33 676.63C807.64 641.34 836.8 622.48 870.1 617.26C900.19 612.54 933.17 619.2 970.92 637.63C1012.06 657.71 1057.73 691.14 1110.55 739.84C1117.22 745.99 1123.94 752.46 1130.64 759.09C1126.09 754.66 1121.53 750.32 1116.98 746.11C1064.52 697.65 1019.07 664.36 978.01 644.34C940.19 625.9 907.04 619.23 876.69 623.95C842.74 629.23 812.99 648.45 783.06 684.43C756.48 716.38 733.26 757.31 708.66 800.65C630.17 938.97 541.21 1095.75 302.86 1019.91C296.36 1017.83 289.69 1016.11 283.24 1014.45C273.02 1011.81 262.45 1009.09 251.73 1004.77C179.8 975.81 110.82 939.11 40.86 892.59C27.25 883.54 13.68 874.16 0.0999805 864.43V865.87C13.46 875.43 26.82 884.66 40.21 893.56C110.24 940.13 179.28 976.86 251.29 1005.85C262.08 1010.2 272.69 1012.93 282.94 1015.58C289.37 1017.24 296.02 1018.96 302.49 1021.03C345.74 1034.79 384.08 1040.93 418.35 1040.93C573.65 1040.93 645.19 914.87 709.66 801.24C734.22 757.95 757.43 717.06 783.94 685.19C813.67 649.45 843.19 630.36 876.85 625.12C906.96 620.43 939.88 627.07 977.48 645.4C1018.43 665.37 1063.8 698.59 1116.17 746.98C1122.75 753.07 1129.35 759.43 1135.92 765.94C1131.48 761.62 1127.08 757.44 1122.69 753.38C1070.66 705.23 1025.5 672.15 984.62 652.25C946.94 633.9 913.85 627.27 883.48 631.97C849.17 637.27 819.05 656.72 788.7 693.16C761.74 725.53 738.14 767.02 713.15 810.94C634 950.06 544.29 1107.75 307.66 1034.48C301.21 1032.47 294.6 1030.8 288.21 1029.18C277.87 1026.56 267.18 1023.86 256.29 1019.55C166.63 983.97 82.3 936.02 -1.95317e-05 876.16V877.53C14.98 888.4 29.96 898.83 44.98 908.85C114.98 955.54 183.93 992.08 255.77 1020.57C266.73 1024.91 277.46 1027.63 287.83 1030.25C294.2 1031.86 300.8 1033.53 307.22 1035.53C348.87 1048.43 385.98 1054.2 419.29 1054.2C575.96 1054.2 648.62 926.49 714.07 811.45C739.03 767.57 762.61 726.13 789.5 693.84C819.66 657.63 849.54 638.31 883.56 633.05C913.7 628.39 946.55 634.99 984.01 653.23C1024.78 673.08 1069.85 706.1 1121.8 754.17C1127.39 759.34 1132.99 764.71 1138.68 770.31C1135.24 766.99 1131.8 763.72 1128.35 760.53C1076.77 712.69 1031.91 679.82 991.22 660.03C953.69 641.78 920.68 635.17 890.29 639.84C855.63 645.16 825.15 664.83 794.37 701.75C767.04 734.53 743.06 776.58 717.67 821.09C637.85 961.02 547.38 1119.63 312.44 1048.9C306.05 1046.96 299.5 1045.33 293.16 1043.77C282.68 1041.18 271.84 1038.49 260.82 1034.19C189.23 1006.23 120.46 969.91 50.56 923.15C33.68 911.86 16.84 900.02 -0.0200195 887.6V889.05C16.62 901.3 33.24 912.97 49.91 924.12C119.88 970.93 188.73 1007.29 260.39 1035.28C271.48 1039.61 282.35 1042.31 292.87 1044.91C299.19 1046.48 305.72 1048.09 312.09 1050.03C352.18 1062.1 388.04 1067.52 420.41 1067.52C578.44 1067.5 652.25 938.14 718.68 821.68C744.04 777.21 768 735.22 795.27 702.51C825.85 665.83 856.1 646.29 890.46 641.01C920.61 636.38 953.39 642.95 990.7 661.1C1031.28 680.84 1076.05 713.65 1127.54 761.41C1133.7 767.13 1139.88 773.08 1145.98 779.13C1141.97 775.22 1137.94 771.38 1133.91 767.64C1082.75 720.12 1038.19 687.45 997.69 667.77C960.31 649.61 927.36 643.04 896.96 647.68C861.94 653.02 831.1 672.93 799.89 710.32C772.18 743.53 747.81 786.14 722.02 831.25C641.55 971.98 550.35 1131.5 317.09 1063.31C310.85 1061.48 304.47 1059.93 298.3 1058.43C287.6 1055.83 276.54 1053.15 265.24 1048.81C193.83 1021.36 125.17 985.23 55.32 938.36C36.86 925.97 18.44 912.91 -0.0200195 899.12V900.58C18.22 914.19 36.42 927.09 54.67 939.33C124.59 986.25 193.34 1022.42 264.83 1049.9C276.21 1054.27 287.3 1056.96 298.04 1059.57C304.2 1061.06 310.56 1062.61 316.78 1064.43C355.31 1075.69 389.94 1080.77 421.33 1080.77C580.7 1080.75 655.65 949.72 723.05 831.83C748.82 786.77 773.15 744.2 800.8 711.07C831.81 673.91 862.42 654.14 897.15 648.84C927.3 644.24 960.03 650.78 997.19 668.83C1037.59 688.45 1082.06 721.06 1133.13 768.5C1139.09 774.04 1145.06 779.81 1150.97 785.67C1147.2 782 1143.42 778.4 1139.66 774.9C1088.94 727.69 1044.7 695.23 1004.39 675.67C967.17 657.6 934.3 651.07 903.89 655.67C868.52 661.03 837.32 681.16 805.69 719.03C777.6 752.66 752.86 795.84 726.66 841.55C645.54 983.11 553.6 1143.55 321.96 1077.83C315.86 1076.1 309.62 1074.63 303.6 1073.2C292.67 1070.62 281.36 1067.94 269.84 1063.58C198.6 1036.62 130.04 1000.68 60.22 953.68C40.14 940.16 20.1 925.82 -1.95317e-05 910.58V912.05C19.88 927.11 39.7 941.28 59.57 954.65C129.46 1001.69 198.11 1037.68 269.43 1064.67C281.03 1069.06 292.37 1071.75 303.34 1074.34C309.36 1075.76 315.58 1077.23 321.65 1078.95C358.66 1089.45 392.09 1094.2 422.51 1094.2C583.21 1094.18 659.3 961.46 727.68 842.12C753.85 796.46 778.56 753.33 806.59 719.77C838.02 682.14 869 662.13 904.07 656.82C934.23 652.25 966.88 658.76 1003.88 676.71C1044.08 696.22 1088.24 728.62 1138.87 775.75C1143.95 780.47 1149.05 785.38 1154.13 790.39C1151.16 787.53 1148.24 784.76 1145.36 782.07C1095.07 735.17 1051.12 702.91 1011 683.46C973.93 665.49 941.13 658.98 910.73 663.56C875.01 668.94 843.44 689.3 811.38 727.65C782.91 761.71 757.78 805.46 731.18 851.77C649.42 994.13 556.74 1155.47 326.73 1092.22C320.8 1090.6 314.74 1089.2 308.88 1087.84C297.72 1085.26 286.17 1082.58 274.36 1078.19C203.3 1051.74 134.84 1015.98 65.07 968.87C43.39 954.23 21.74 938.6 0.00998047 921.87V923.35C21.53 939.88 42.95 955.35 64.42 969.84C134.27 1017 202.81 1052.8 273.96 1079.29C285.84 1083.71 297.42 1086.39 308.62 1088.99C314.47 1090.35 320.53 1091.75 326.43 1093.36C361.94 1103.13 394.16 1107.56 423.61 1107.56C585.61 1107.54 662.84 973.14 732.2 852.37C758.77 806.1 783.87 762.4 812.28 728.42C844.14 690.3 875.48 670.07 910.91 664.73C941.07 660.19 973.65 666.67 1010.5 684.53C1050.51 703.93 1094.37 736.12 1144.57 782.94C1149.42 787.46 1154.37 792.21 1159.51 797.28C1156.66 794.53 1153.87 791.87 1151.12 789.31C1101.26 742.72 1057.6 710.67 1017.67 691.34C980.75 673.47 948.03 666.99 917.63 671.54C881.55 676.94 849.62 697.54 817.14 736.38C788.29 770.88 762.78 815.21 735.77 862.13C653.38 1005.3 560 1167.58 331.58 1106.75C325.74 1105.2 319.76 1103.84 313.98 1102.54C302.65 1099.98 290.93 1097.32 278.96 1092.93C208.07 1066.97 139.71 1031.4 69.97 984.17C46.67 968.39 23.4 951.43 -1.95317e-05 933.15V934.63C23.18 952.71 46.23 969.5 69.31 985.13C139.13 1032.41 207.58 1068.03 278.55 1094.02C290.59 1098.44 302.34 1101.1 313.71 1103.67C319.48 1104.98 325.45 1106.33 331.27 1107.87C365.3 1116.93 396.32 1121.07 424.79 1121.06C588.08 1121.04 666.44 984.93 736.78 862.7C763.76 815.82 789.24 771.54 818.03 737.12C850.32 698.51 882.02 678.04 917.8 672.68C947.96 668.16 980.46 674.61 1017.16 692.37C1056.98 711.65 1100.54 743.63 1150.32 790.14C1155.99 795.44 1161.85 801.1 1168.05 807.28C1164.2 803.51 1160.45 799.92 1156.79 796.49C1107.36 750.21 1064.02 718.37 1024.29 699.15C987.54 681.37 954.9 674.92 924.51 679.45C888.09 684.87 855.8 705.71 822.89 745.03C793.66 779.97 767.77 824.87 740.36 872.41C657.34 1016.41 563.23 1179.62 336.37 1121.2C330.62 1119.72 324.75 1118.41 319.06 1117.16C307.57 1114.62 295.69 1111.99 283.51 1107.59C212.77 1082.12 144.5 1046.72 74.8 999.37C49.91 982.46 25.05 964.17 0.00998047 944.32V945.81C24.83 965.46 49.47 983.58 74.15 1000.34C143.94 1047.74 212.29 1083.19 283.12 1108.69C295.38 1113.11 307.29 1115.75 318.82 1118.3C324.49 1119.56 330.36 1120.85 336.09 1122.33C368.67 1130.72 398.5 1134.56 425.98 1134.56C590.57 1134.55 670.06 996.7 741.39 872.99C768.77 825.49 794.64 780.63 823.81 745.77C856.52 706.67 888.58 685.96 924.7 680.59C954.85 676.1 987.27 682.52 1023.8 700.19C1063.42 719.36 1106.67 751.13 1156 797.33C1160.35 801.4 1164.8 805.69 1169.43 810.25C1167.07 807.97 1164.74 805.76 1162.44 803.61C1113.44 757.64 1070.4 726.01 1030.86 706.91C994.27 689.23 961.71 682.82 931.33 687.31C894.56 692.75 861.9 713.83 828.56 753.66C798.94 789.04 772.67 834.54 744.85 882.71C661.21 1027.52 566.41 1191.66 341.12 1135.62C335.47 1134.2 329.7 1132.95 324.12 1131.74C312.45 1129.21 300.39 1126.59 288.02 1122.23C217.45 1097.25 149.28 1062.04 79.62 1014.57C53.15 996.54 26.71 976.89 0.0199805 955.42V956.92C26.48 978.18 52.71 997.66 78.96 1015.54C148.71 1063.06 216.96 1098.32 287.63 1123.33C300.07 1127.72 312.17 1130.35 323.88 1132.88C329.45 1134.09 335.22 1135.34 340.85 1136.75C567 1193 662.03 1028.46 745.88 883.29C773.67 835.17 799.93 789.71 829.48 754.41C862.63 714.81 895.05 693.86 931.52 688.46C961.67 684 994 690.38 1030.37 707.95C1069.8 727 1112.74 758.56 1161.66 804.45C1165.91 808.43 1170.25 812.6 1174.73 817.02C1172.53 814.9 1170.36 812.83 1168.21 810.81C1119.63 765.15 1076.89 733.73 1037.56 714.74C1001.14 697.16 968.67 690.78 938.3 695.25C901.19 700.71 868.18 722.03 834.42 762.36C804.43 798.19 777.77 844.27 749.55 893.06C706.65 967.22 662.3 1043.91 599.94 1096.6C528.98 1156.56 445.92 1174.06 346.01 1150.1C340.73 1148.84 335.33 1147.7 330.1 1146.6C318.01 1144.05 305.51 1141.41 292.65 1136.93C222.24 1112.42 154.16 1077.38 84.53 1029.8C56.46 1010.62 28.39 989.56 0.0299805 966.38V967.89C28.17 990.85 56.02 1011.73 83.87 1030.77C153.59 1078.41 221.76 1113.5 292.27 1138.04C305.2 1142.55 317.73 1145.2 329.86 1147.75C335.08 1148.85 340.47 1149.99 345.73 1151.25C375.47 1158.38 402.95 1161.67 428.44 1161.67C595.53 1161.67 677.29 1020.33 750.55 893.66C778.75 844.91 805.38 798.87 835.3 763.12C868.87 723.03 901.64 701.83 938.45 696.42C968.57 691.99 1000.83 698.33 1037.03 715.81C1076.26 734.75 1118.9 766.1 1167.39 811.68C1174.74 818.58 1182.36 826.06 1190.56 834.42C1184.76 828.61 1179.17 823.18 1173.75 818.07C1125.6 772.72 1083.17 741.51 1044.04 722.64C1007.78 705.16 975.41 698.81 945.06 703.25C907.61 708.72 874.25 730.29 840.06 771.12C809.69 807.39 782.65 854.07 754.01 903.5C710.8 978.09 666.11 1055.23 603.69 1108.55C532.67 1169.21 449.9 1187.56 350.65 1164.63C345.51 1163.44 340.24 1162.35 335.16 1161.3C322.86 1158.76 310.14 1156.13 297.06 1151.66C226.82 1127.64 158.85 1092.77 89.27 1045.07C59.64 1024.76 30.01 1002.3 -1.95317e-05 977.4V978.92C29.77 1003.59 59.2 1025.87 88.61 1046.03C158.28 1093.8 226.35 1128.71 296.69 1152.76C309.84 1157.25 322.6 1159.89 334.94 1162.43C340.02 1163.48 345.27 1164.56 350.41 1165.75C573.57 1217.31 669.98 1050.9 755.04 904.07C783.65 854.69 810.66 808.05 840.97 771.86C874.96 731.26 908.1 709.82 945.24 704.39C1007.04 695.36 1081.54 732.81 1172.95 818.91C1174.82 820.67 1176.71 822.48 1178.63 824.32C1131.28 779.76 1089.44 749.02 1050.76 730.39C1014.66 713 982.37 706.7 952.04 711.1C914.25 716.6 880.52 738.41 845.9 779.75C815.15 816.48 787.71 863.76 758.67 913.82C715.14 988.85 670.14 1066.43 607.66 1120.36C536.58 1181.72 454.11 1200.9 355.51 1178.99C350.61 1177.9 345.6 1176.9 340.76 1175.93C328.15 1173.41 315.11 1170.8 301.64 1166.28C231.56 1142.73 163.68 1108.04 94.13 1060.22C62.92 1038.76 31.69 1014.85 -1.95317e-05 988.16V989.69C31.45 1016.16 62.47 1039.88 93.46 1061.19C163.1 1109.07 231.07 1143.81 301.26 1167.4C314.8 1171.94 327.88 1174.56 340.52 1177.09C345.35 1178.06 350.35 1179.06 355.24 1180.14C382.25 1186.14 407.39 1188.93 430.9 1188.92C600.4 1188.91 684.45 1044.06 759.67 914.4C788.69 864.38 816.09 817.14 846.78 780.49C881.2 739.38 914.7 717.7 952.19 712.24C1013.97 703.25 1088.07 740.48 1178.74 826.03C1183.96 830.96 1189.35 836.21 1194.96 841.83C1191.65 838.58 1188.41 835.46 1185.24 832.47C1095.07 747.22 1021.07 710.14 958.97 719.12C920.85 724.63 886.77 746.69 851.73 788.54C820.6 825.72 792.78 873.6 763.34 924.3C719.5 999.77 674.17 1077.8 611.63 1132.36C540.49 1194.42 458.28 1214.44 360.31 1193.55C355.71 1192.57 351 1191.66 346.45 1190.77C333.46 1188.24 320.04 1185.63 306.19 1181.05C236.25 1157.97 168.46 1123.44 98.95 1075.49C66.18 1052.89 33.35 1027.51 -0.0200195 998.95V1000.49C33.11 1028.8 65.73 1053.99 98.29 1076.45C167.9 1124.46 235.78 1159.04 305.83 1182.16C319.74 1186.76 333.21 1189.38 346.23 1191.91C350.78 1192.79 355.48 1193.71 360.07 1194.69C385.74 1200.16 409.73 1202.71 432.24 1202.71C602.96 1202.71 688.15 1056.06 764.35 924.89C793.77 874.24 821.56 826.39 852.63 789.29C887.48 747.68 921.32 725.75 959.14 720.28C1020.84 711.36 1094.54 748.34 1184.44 833.33C1187.3 836.03 1190.22 838.85 1193.2 841.75C1192.44 841.02 1191.67 840.29 1190.91 839.57C1101.5 754.88 1027.89 718.04 965.87 726.97C927.41 732.5 892.99 754.81 857.52 797.18C826.01 834.82 797.81 883.31 767.96 934.66C723.82 1010.57 678.17 1089.07 615.57 1144.24C544.36 1207 462.43 1227.84 365.08 1207.95C360.86 1207.09 356.55 1206.28 352.39 1205.49C338.98 1202.95 325.1 1200.33 310.73 1195.67C240.95 1173.07 173.25 1138.72 103.78 1090.66C69.46 1066.92 35.05 1040.05 0.00998047 1009.59V1011.14C34.82 1041.35 69.01 1068.03 103.12 1091.62C172.69 1139.75 240.48 1174.15 310.38 1196.78C324.83 1201.47 338.74 1204.1 352.19 1206.64C356.35 1207.43 360.66 1208.24 364.87 1209.1C389.22 1214.07 412.08 1216.4 433.6 1216.4C605.5 1216.4 691.83 1067.95 769 935.25C798.83 883.95 827.01 835.5 858.45 797.93C893.72 755.8 927.91 733.62 966.07 728.13C1027.7 719.26 1101 755.99 1190.14 840.43C1194.3 844.37 1198.56 848.5 1202.92 852.84C1200.82 850.8 1198.74 848.79 1196.68 846.84C1108.02 762.69 1034.81 726.09 972.87 734.96C934.08 740.51 899.3 763.07 863.42 805.95C831.54 844.05 802.95 893.16 772.68 945.15C728.24 1021.5 682.28 1100.45 619.62 1156.24C548.35 1219.69 466.69 1241.36 369.96 1222.47C366.18 1221.74 362.4 1221.04 358.59 1220.34C344.67 1217.78 330.28 1215.14 315.36 1210.4C245.74 1188.27 178.17 1154.08 108.77 1105.87C72.87 1080.93 36.83 1052.46 0.0299805 1019.93V1021.49C36.6 1053.77 72.41 1082.04 108.1 1106.83C177.6 1155.11 245.28 1189.35 315.01 1211.52C330 1216.28 344.43 1218.93 358.38 1221.49C362.18 1222.19 365.97 1222.88 369.74 1223.62C392.8 1228.12 414.51 1230.23 435.03 1230.23C608.09 1230.23 695.56 1079.98 773.7 945.74C803.94 893.79 832.5 844.72 864.32 806.7C900.01 764.05 934.56 741.62 973.04 736.11C1034.6 727.3 1107.49 763.79 1195.87 847.68C1200.3 851.88 1204.81 856.28 1209.42 860.88C1207.01 858.52 1204.63 856.23 1202.28 853.99C1114.39 770.41 1041.6 734.06 979.76 742.87C940.65 748.44 905.53 771.25 869.22 814.65C836.96 853.21 807.99 902.93 777.32 955.57C732.58 1032.37 686.31 1111.78 623.58 1168.18C552.24 1232.32 470.83 1254.8 374.68 1236.89C371.47 1236.3 368.25 1235.72 365.03 1235.15C350.49 1232.56 335.45 1229.88 319.84 1225.04C250.35 1203.36 182.85 1169.33 113.48 1120.99C76.07 1094.92 38.49 1064.93 0.0199805 1030.41V1031.98C38.25 1066.24 75.61 1096.03 112.81 1121.95C182.28 1170.35 249.89 1204.44 319.49 1226.15C335.17 1231.02 350.25 1233.7 364.83 1236.3C368.06 1236.87 371.27 1237.45 374.47 1238.04C395.8 1242.01 416.4 1244.01 436.34 1244.01C506.62 1244.01 568.57 1219.22 624.36 1169.05C687.22 1112.52 733.54 1033.03 778.33 956.16C808.98 903.56 837.92 853.88 870.11 815.4C906.22 772.23 941.11 749.56 979.92 744.03C1041.4 735.27 1113.86 771.52 1201.47 854.84C1204.46 857.69 1207.51 860.64 1210.6 863.69C1209.72 862.85 1208.85 862 1207.98 861.17C1120.85 778.15 1048.46 742.04 986.71 750.8C947.28 756.39 911.81 779.45 875.08 823.38C842.45 862.41 813.09 912.75 782.02 966.05C736.98 1043.29 690.41 1123.17 627.61 1180.19C556.2 1245.03 475.04 1268.32 379.47 1251.39C376.69 1250.9 373.91 1250.42 371.11 1249.95C356.09 1247.38 340.55 1244.72 324.38 1239.75C255.05 1218.54 187.64 1184.69 118.31 1136.24C79.36 1109.02 40.2 1077.45 0.0199805 1040.83V1042.41C39.96 1078.76 78.91 1110.13 117.64 1137.2C187.07 1185.71 254.59 1219.62 324.04 1240.87C340.29 1245.86 355.86 1248.52 370.92 1251.1C373.71 1251.58 376.49 1252.05 379.27 1252.54C399.4 1256.11 418.88 1257.89 437.78 1257.89C508.97 1257.89 571.75 1232.49 628.4 1181.05C691.33 1123.91 737.95 1043.96 783.03 966.64C814.08 913.38 843.41 863.08 875.98 824.13C912.51 780.44 947.75 757.51 986.87 751.96C1048.25 743.26 1120.31 779.26 1207.17 862.02C1210.36 865.06 1213.6 868.21 1216.89 871.47C1215.85 870.46 1214.8 869.46 1213.77 868.47C1127.37 785.98 1055.4 750.1 993.73 758.8C953.98 764.41 918.17 787.72 881.02 832.17C848.02 871.66 818.28 922.63 786.79 976.58C741.46 1054.27 694.58 1134.6 631.72 1192.23C560.25 1257.76 479.32 1281.86 384.32 1265.9C381.95 1265.5 379.57 1265.1 377.19 1264.71C361.7 1262.14 345.68 1259.48 328.98 1254.47C259.77 1233.72 192.44 1200.02 123.14 1151.45C82.66 1123.08 41.92 1089.9 0.00998047 1051.12V1052.71C41.68 1091.22 82.2 1124.19 122.47 1152.41C191.88 1201.05 259.32 1234.8 328.65 1255.59C345.42 1260.62 361.47 1263.28 377 1265.86C379.38 1266.25 381.76 1266.65 384.12 1267.05C403.06 1270.23 421.44 1271.83 439.3 1271.83C511.38 1271.83 575 1245.82 632.51 1193.1C695.5 1135.35 742.42 1054.94 787.8 977.18C819.26 923.27 848.98 872.34 881.92 832.93C918.87 788.72 954.45 765.53 993.89 759.97C1055.17 751.33 1126.84 787.09 1212.96 869.33C1214.8 871.09 1216.66 872.89 1218.53 874.71C1133.32 793.44 1062.07 758.11 1000.74 766.73C960.68 772.36 924.52 795.93 886.96 840.9C853.58 880.86 823.46 932.45 791.56 987.07C745.93 1065.21 698.75 1146 635.82 1204.24C564.27 1270.46 483.57 1295.35 389.13 1280.34L385.88 1279.83C369.04 1277.18 351.63 1274.45 333.46 1269.12C264.4 1248.83 197.15 1215.3 127.89 1166.62C85.91 1137.12 43.62 1102.32 0.00998047 1061.33V1062.93C43.38 1103.63 85.45 1138.22 127.22 1167.57C196.59 1216.32 263.95 1249.9 333.14 1270.23C351.38 1275.57 368.83 1278.32 385.71 1280.97L388.96 1281.48C483.78 1296.55 564.8 1271.56 636.63 1205.08C699.69 1146.72 746.91 1065.85 792.58 987.64C824.45 933.06 854.55 881.51 887.86 841.63C925.23 796.89 961.15 773.45 1000.91 767.86C1062.08 759.27 1133.32 794.78 1218.68 876.44C1222.23 879.83 1225.83 883.35 1229.5 887C1228.05 885.58 1226.6 884.18 1225.16 882.8C1140.27 801.43 1069.15 766.04 1007.71 774.63C967.34 780.27 930.86 804.1 892.88 849.6C859.14 890.03 828.63 942.25 796.34 997.54C750.43 1076.13 702.95 1157.4 639.95 1216.26C568.32 1283.18 487.85 1308.86 393.93 1294.8L392.11 1294.53C374.76 1291.92 356.83 1289.21 338.02 1283.8C269.08 1263.96 201.92 1230.59 132.68 1181.79C89.2 1151.14 45.36 1114.69 0.0199805 1071.43V1073.05C45.12 1116.01 88.74 1152.25 132.01 1182.74C201.36 1231.62 268.64 1265.04 337.7 1284.92C356.59 1290.35 374.56 1293.06 391.94 1295.68L393.76 1295.95C410.39 1298.44 426.6 1299.69 442.42 1299.69C516.28 1299.69 581.53 1272.44 640.75 1217.11C703.88 1158.14 751.4 1076.79 797.36 998.13C829.63 942.89 860.11 890.71 893.79 850.35C931.57 805.08 967.82 781.39 1007.88 775.79C1068.94 767.25 1139.74 802.53 1224.35 883.64C1227.59 886.75 1230.89 889.97 1234.23 893.29C1233.09 892.18 1231.96 891.09 1230.83 890C1146.69 809.18 1075.98 774.04 1014.68 782.57C974.01 788.23 937.2 812.31 898.82 858.34C864.72 899.24 833.84 952.09 801.14 1008.03C754.94 1087.08 707.18 1168.82 644.1 1228.29C572.39 1295.9 492.13 1322.38 398.72 1309.26C379.17 1306.52 361.46 1303.82 342.57 1298.47C273.74 1279.07 206.64 1245.86 137.43 1196.93C92.47 1165.15 47.09 1127.03 0.0199805 1081.45V1083.08C46.84 1128.35 92 1166.25 136.75 1197.88C206.07 1246.88 273.29 1280.15 342.25 1299.59C361.21 1304.96 378.97 1307.67 398.56 1310.41C414.05 1312.59 429.18 1313.68 443.98 1313.68C518.73 1313.68 584.82 1285.79 644.91 1229.14C708.11 1169.55 755.92 1087.74 802.16 1008.62C834.83 952.72 865.69 899.91 899.73 859.09C937.91 813.3 974.49 789.35 1014.85 783.73C1075.77 775.25 1146.16 810.28 1230.03 890.84C1232.08 892.81 1234.15 894.83 1236.23 896.87C1152.97 816.81 1082.79 782.01 1021.69 790.48C980.73 796.16 943.58 820.49 904.79 867.06C870.32 908.44 839.06 961.92 805.97 1018.54C759.49 1098.05 711.43 1180.27 648.28 1240.36C576.49 1308.66 496.43 1335.94 403.52 1323.73C386.01 1321.43 367.23 1318.71 347.12 1313.16C278.42 1294.21 211.4 1261.16 142.23 1212.12C95.78 1179.19 48.85 1139.36 0.0299805 1091.36V1093C48.6 1140.68 95.32 1180.29 141.55 1213.08C210.84 1262.2 277.98 1295.31 346.81 1314.29C366.99 1319.86 386.59 1322.69 403.37 1324.89C417.75 1326.78 431.82 1327.73 445.6 1327.73C521.22 1327.73 588.13 1299.2 649.09 1241.21C712.37 1181.01 760.47 1098.72 806.99 1019.14C840.06 962.56 871.3 909.12 905.7 867.82C944.29 821.49 981.2 797.29 1021.86 791.65C1082.65 783.22 1152.61 818.01 1235.74 898.02C1237.73 899.93 1239.73 901.88 1241.75 903.87C1159.32 824.51 1089.65 790.02 1028.74 798.42C987.48 804.12 950.01 828.71 910.82 875.8C875.99 917.65 844.35 971.76 810.85 1029.05C764.09 1109.02 715.74 1191.71 652.5 1252.41C580.62 1321.41 500.75 1349.46 408.34 1338.18C391.78 1336.14 372.1 1333.32 351.7 1327.82C283.12 1309.32 216.16 1276.42 147.01 1227.26C99.09 1193.19 50.61 1151.61 0.0399805 1101.15V1102.8C50.36 1152.94 98.62 1194.29 146.34 1228.22C215.61 1277.47 282.69 1310.42 351.41 1328.96C371.88 1334.48 391.61 1337.31 408.22 1339.35C421.49 1340.97 434.49 1341.78 447.26 1341.78C523.77 1341.78 591.5 1312.61 653.34 1253.26C716.69 1192.45 765.09 1109.69 811.89 1029.65C845.36 972.4 876.98 918.33 911.75 876.56C950.75 829.7 987.98 805.24 1028.93 799.59C1089.57 791.22 1159.09 825.77 1241.47 905.21C1245.73 909.31 1250.03 913.56 1254.38 917.95C1252.21 915.8 1250.06 913.68 1247.92 911.61C1165.86 832.5 1096.36 798.14 1035.42 806.56C993.85 812.31 956.05 837.17 916.46 884.81C881.28 927.14 849.28 981.88 815.4 1039.83C768.41 1120.22 719.81 1203.34 656.54 1264.61C584.63 1334.25 504.98 1363.06 413.06 1352.7C397.88 1350.96 377.7 1348.24 356.17 1342.56C239.48 1311.75 125.17 1237.6 0.0699805 1110.92V1112.59C52.13 1165.23 101.91 1208.34 151.06 1243.4C220.29 1292.78 287.29 1325.58 355.87 1343.69C377.47 1349.39 397.71 1352.12 412.92 1353.87C505.21 1364.27 585.17 1335.35 657.35 1265.45C720.74 1204.07 769.37 1120.87 816.41 1040.42C850.26 982.51 882.24 927.82 917.36 885.56C956.75 838.16 994.32 813.43 1035.58 807.72C1096.14 799.35 1165.33 833.61 1247.11 912.45C1248.43 913.73 1249.76 915.02 1251.09 916.33C1170.93 839.53 1102.7 806.2 1042.59 814.47C1000.74 820.22 962.62 845.34 922.63 893.51C887.09 936.32 854.71 991.7 820.43 1050.33C773.15 1131.19 724.26 1214.8 660.89 1276.7C588.87 1347.04 509.4 1376.64 417.93 1367.19C396.42 1364.92 378.26 1361.76 360.8 1357.26C242.84 1326.82 127.15 1251.08 0.0699805 1120.49V1122.17C126.98 1252.39 242.6 1327.96 360.51 1358.39C378.03 1362.91 396.24 1366.08 417.81 1368.36C509.64 1377.85 589.42 1348.15 661.7 1277.55C725.18 1215.55 774.11 1131.86 821.43 1050.94C855.69 992.35 888.04 937.02 923.52 894.28C963.31 846.34 1001.2 821.36 1042.74 815.65C1103.13 807.36 1171.86 841.38 1252.87 919.69C1254.29 921.07 1255.73 922.47 1257.16 923.89C1177.58 847.36 1109.69 814.13 1049.66 822.34C1007.54 828.1 969.11 853.47 928.73 902.18C892.84 945.47 860.08 1001.49 825.41 1060.8C777.85 1142.14 728.67 1226.25 665.21 1288.77C593.09 1359.82 513.78 1390.21 422.75 1381.65C402.56 1379.77 383.78 1376.6 365.35 1371.97C246.18 1341.94 129.14 1264.61 0.0699805 1130.04V1131.73C128.97 1265.92 245.93 1343.08 365.06 1373.1C383.55 1377.75 402.39 1380.93 422.64 1382.81C432.66 1383.75 442.53 1384.22 452.28 1384.22C531.4 1384.22 601.59 1353.09 666.03 1289.6C729.6 1226.97 778.82 1142.79 826.42 1061.39C861.07 1002.12 893.81 946.14 929.63 902.93C969.82 854.46 1008.01 829.22 1049.82 823.5C1110.02 815.26 1178.31 849.07 1258.57 926.87C1259.91 928.17 1261.25 929.49 1262.6 930.81C1183.89 855.01 1116.54 822.1 1056.76 830.24C1014.37 836.01 975.64 861.64 934.86 910.88C898.62 954.64 865.49 1011.31 830.41 1071.3C782.57 1153.12 733.1 1237.72 669.54 1300.87C597.3 1372.63 518.14 1403.78 427.54 1396.12C407.78 1394.45 388.92 1391.36 369.89 1386.67C249.51 1357.06 131.13 1278.1 0.0699805 1139.46V1141.16C130.96 1279.41 249.27 1358.2 369.61 1387.8C388.7 1392.51 407.61 1395.61 427.44 1397.28C518.41 1404.98 597.87 1373.71 670.36 1301.7C734.03 1238.45 783.54 1153.78 831.42 1071.89C866.47 1011.94 899.58 955.31 935.76 911.62C976.34 862.62 1014.84 837.12 1056.92 831.39C1116.93 823.23 1184.76 856.79 1264.26 934.03C1264.82 934.58 1265.39 935.14 1265.95 935.69C1238.18 909.09 1211.91 888.06 1186.68 872.19C1144.45 845.62 1106.29 834.25 1070.04 837.44C1025.85 841.33 985.61 866.51 943.4 916.69C905.88 961.29 871.65 1019.83 835.41 1081.81C782.76 1171.85 728.32 1264.97 656.07 1329.87C616.95 1365.01 576.78 1388.2 533.26 1400.75C484.64 1414.77 431.21 1414.97 374.45 1401.35C252.85 1372.15 133.13 1291.53 0.0799805 1148.78V1150.5C132.95 1292.86 252.61 1373.3 374.18 1402.49C403.07 1409.42 430.16 1412.65 455.69 1412.64C643.32 1412.63 745.24 1238.36 836.43 1082.4C872.64 1020.47 906.85 961.97 944.31 917.44C986.31 867.52 1026.3 842.47 1070.16 838.61C1106.14 835.45 1144.07 846.75 1186.08 873.18C1231.57 901.8 1280.46 947.21 1335.53 1011.98C1370.56 1053.19 1405.5 1092.01 1440.1 1128.23V1126.53C1434.04 1120.18 1427.98 1113.77 1421.9 1107.26C1427.98 1113.69 1434.04 1120.03 1440.1 1126.3V1124.61C1431.19 1115.38 1422.26 1105.99 1413.31 1096.41C1422.26 1105.87 1431.19 1115.15 1440.1 1124.27V1122.6C1430.32 1112.58 1420.52 1102.35 1410.68 1091.91C1420.51 1102.22 1430.32 1112.33 1440.1 1122.23V1120.56C1435.43 1115.82 1430.75 1111.06 1426.06 1106.23C1430.75 1111.01 1435.42 1115.73 1440.1 1120.42V1118.77C1423.13 1101.73 1406.07 1084.06 1388.94 1065.78C1406.07 1083.86 1423.13 1101.33 1440.1 1118.16V1116.5C1422.78 1099.3 1405.37 1081.44 1387.88 1062.94C1405.37 1081.23 1422.78 1098.88 1440.1 1115.87V1114.23C1422.13 1096.58 1404.06 1078.23 1385.9 1059.18C1404.06 1078.02 1422.13 1096.15 1440.1 1113.59V1111.98C1415.69 1088.26 1391.07 1063.22 1366.33 1036.94C1391.08 1062.94 1415.7 1087.68 1440.1 1111.11V1109.47C1414.57 1084.94 1388.8 1058.97 1362.9 1031.62C1388.81 1058.67 1414.57 1084.33 1440.1 1108.56V1106.95C1414.12 1082.26 1387.89 1056.09 1361.52 1028.49C1387.9 1055.78 1414.12 1081.65 1440.1 1106.02V1104.41C1410.86 1076.94 1381.29 1047.58 1351.56 1016.42C1381.31 1047.23 1410.87 1076.24 1440.1 1103.36V1101.77C1407.3 1071.31 1374.08 1038.46 1340.66 1003.37C1374.09 1038.08 1407.3 1070.53 1440.1 1100.6V1099.02C1403.6 1065.52 1366.58 1029.04 1329.32 989.82C1366.59 1028.62 1403.61 1064.66 1440.1 1097.73V1096.15C1400.8 1060.49 1360.88 1021.39 1320.7 979.1C1360.89 1020.92 1400.81 1059.58 1440.1 1094.77V1093.19C1402.55 1059.52 1364.42 1022.69 1326.02 982.94C1364.43 1022.25 1402.56 1058.64 1440.1 1091.86V1090.29C1393.7 1049.18 1346.41 1003.24 1298.8 952.93C1346.43 1002.7 1393.72 1048.1 1440.1 1088.66V1087.11C1400.08 1052.07 1359.38 1013.44 1318.38 971.49C1359.4 1012.97 1400.1 1051.12 1440.1 1085.68V1084.15C1385.42 1036.86 1329.44 982.81 1273.12 922.81C1329.46 982.19 1385.44 1035.6 1440.1 1082.25V1080.71C1391.49 1039.18 1341.85 992.31 1291.83 940.65C1341.87 991.75 1391.51 1038.04 1440.1 1078.99V1077.47C1385.98 1031.8 1330.54 979.49 1274.72 921.31C1330.57 978.87 1386 1030.54 1440.1 1075.57V1074.06C1384.03 1027.33 1326.53 973.47 1268.62 913.32C1326.56 972.83 1384.06 1026.03 1440.1 1072.1V1070.59C1381.43 1022.3 1321.15 966.18 1260.46 903.2C1321.19 965.51 1381.46 1020.93 1440.1 1068.53V1067.04C1380.78 1018.84 1319.79 962.61 1258.36 899.37C1319.82 961.93 1380.8 1017.45 1440.1 1064.96V1063.48C1374.97 1011.23 1307.8 949.31 1240.2 879.02C1307.84 948.57 1375 1009.73 1440.1 1061.22V1059.73C1374.78 1008.01 1307.38 946.53 1239.51 876.63C1307.42 945.79 1374.81 1006.51 1440.1 1057.48V1055.99C1371.3 1002.22 1300.17 937.63 1228.57 863.74C1300.21 936.85 1371.34 1000.65 1440.1 1053.63V1052.15C1369.14 997.42 1295.65 931.16 1221.7 855.03C1295.7 930.35 1369.18 995.78 1440.1 1049.69V1048.22C1365.55 991.49 1288.17 922.02 1210.33 841.72C1288.21 921.17 1365.58 989.79 1440.1 1045.67V1044.21C1362.79 986.17 1282.4 914.41 1201.56 831.06C1282.44 913.53 1362.83 984.4 1440.1 1041.54V1040.08C1362.38 982.53 1281.51 911.1 1200.15 827.94C1281.55 910.22 1362.42 980.76 1440.1 1037.42V1035.97C1358.52 976.39 1273.43 901.51 1187.89 813.79C1273.48 900.59 1358.57 974.53 1440.1 1033.18V1031.74C1356.5 971.53 1269.16 895.24 1181.38 805.49C1269.21 894.29 1356.55 969.61 1440.1 1028.86V1027.43C1352.6 965.3 1260.94 885.53 1168.91 791.12C1261 884.55 1352.65 963.32 1440.1 1024.46V1023.04C1350.94 960.62 1257.41 879.87 1163.51 783.96C1257.47 878.87 1350.99 958.59 1440.1 1020V1018.58C1349 955.72 1253.3 873.72 1157.23 775.92C1253.36 872.7 1349.06 953.65 1440.1 1015.48V1014.07C1345.74 949.91 1246.37 865.2 1146.72 763.62C1246.45 864.14 1345.8 947.77 1440.1 1010.87V1009.46C1343.37 944.65 1241.33 858.25 1139.02 754.16C1241.39 857.15 1343.43 942.46 1440.1 1006.19V1004.78C1340.25 938.87 1234.67 849.94 1128.91 742.27C1234.73 848.84 1340.3 936.65 1440.1 1001.47V1000.07C1340.79 935.49 1235.77 848.13 1130.48 742.18C1235.85 847.01 1340.86 933.22 1440.1 996.69V995.31C1334.24 927.53 1221.81 833.84 1109.39 719.29C1109.02 718.91 1108.65 718.54 1108.28 718.16C1221.15 832.03 1333.96 924.9 1440.1 991.74V990.36C1334.67 923.88 1222.66 831.72 1110.56 718.8C1222.74 830.54 1334.74 921.52 1440.1 986.84V985.46C1331.37 917.96 1215.59 823.15 1099.83 706.38C1215.68 821.91 1331.45 915.49 1440.1 981.79V980.42C1328.98 912.53 1210.4 816.1 1091.92 696.81H1091.83ZM998.54 580.69C982.41 565.33 967.17 550.83 951.65 537.27C827.75 428.81 742.42 383.87 683.1 395.85C630.27 406.52 603.68 461.08 575.54 518.86C560.27 550.21 544.48 582.62 523.7 609.97C500.21 640.88 473.54 660.67 442.14 670.47C375.62 691.22 284.52 668.25 163.62 600.22C157.04 596.51 150.03 593.37 143.24 590.33C135.53 586.88 127.56 583.31 119.84 578.77C78.19 554.34 38.32 530.73 -1.95317e-05 507.81V509.17C38.14 531.98 77.81 555.47 119.24 579.78C127.02 584.34 135.02 587.93 142.76 591.39C149.83 594.56 156.51 597.55 163.04 601.23C284.24 669.43 375.64 692.44 442.48 671.58C474.12 661.71 500.99 641.79 524.63 610.67C545.48 583.23 561.3 550.76 576.59 519.36C604.6 461.85 631.07 407.54 683.33 396.99C742.25 385.09 827.27 429.95 950.88 538.15C966.38 551.7 981.61 566.19 997.73 581.54C1001.62 585.24 1005.55 588.98 1009.52 592.75C1092.01 671.15 1174.79 739.37 1255.56 795.51C1318.7 839.4 1380.55 875.86 1439.99 904.29V902.98C1304.62 838.08 1157.07 731.37 1010.32 591.9C1006.34 588.13 1002.42 584.39 998.53 580.69H998.54ZM1144.19 492.72C996.29 428.3 845.28 334.35 695.34 213.45C609.53 144.27 541.99 97.82 488.85 71.44C443.13 48.74 408.94 41.48 384.35 49.23C351.29 59.65 341.01 95.14 331.07 129.47C321.98 160.88 313.39 190.54 287.92 197.18C243.9 208.63 154.14 147.44 -1.95317e-05 0V1.61C74.75 73.03 134.13 123.88 180.51 156.26C229.71 190.6 264.94 204.35 288.21 198.29C314.32 191.49 323 161.51 332.19 129.78C342.04 95.75 352.23 60.56 384.69 50.34C408.98 42.69 442.88 49.93 488.32 72.48C541.38 98.82 608.86 145.22 694.6 214.35C844.61 335.31 995.72 429.32 1143.71 493.78C1244.45 537.65 1343.77 567.92 1439.99 584.15V582.96C1343.93 566.74 1244.76 536.51 1144.18 492.71L1144.19 492.72ZM975.4 547.07C971.39 543.36 967.43 539.67 963.5 536.02C947.68 521.3 932.73 507.41 917.49 494.19C788.87 382.8 701.88 336.74 643.73 349.25C594.62 359.81 571.17 410.48 546.34 464.13C519.21 522.75 491.15 583.36 427.29 602.65C360.86 622.71 265.2 593.54 134.86 513.48C128.36 509.48 121.4 506.01 114.67 502.66C107.37 499.02 99.82 495.27 92.58 490.71C60.75 470.74 29.93 451.58 -0.0100195 433.13V434.5C29.73 452.83 60.35 471.86 91.95 491.7C99.24 496.29 106.82 500.06 114.14 503.71C121.16 507.2 127.78 510.5 134.24 514.48C238.31 578.4 320.35 609.94 383.18 609.93C399.23 609.93 414.03 607.87 427.61 603.77C491.97 584.34 520.14 523.48 547.38 464.63C572.09 411.25 595.42 360.84 643.96 350.4C701.73 337.98 788.39 383.95 916.71 495.08C931.94 508.28 946.88 522.17 962.69 536.88C966.62 540.54 970.58 544.22 974.59 547.93C1059.36 626.42 1144.46 694.46 1227.54 750.15C1300.47 799.03 1371.82 838.41 1439.98 867.4V866.13C1372.03 837.18 1300.89 797.91 1228.19 749.18C1145.16 693.53 1060.11 625.53 975.38 547.08L975.4 547.07ZM946.38 509.74C941.31 505.15 936.32 500.6 931.36 496.08C916.83 482.84 903.11 470.33 889.05 458.25C756.54 344.53 668.19 297.61 611 310.57C564.72 321.06 543.64 368.83 521.32 419.41C497.27 473.9 472.4 530.25 413.91 547.48C348.15 566.85 249.05 532.09 110.93 441.19C104.5 436.95 97.59 433.18 90.9 429.55C83.95 425.77 76.77 421.86 69.91 417.31C46.04 401.48 22.75 386.3 -1.95317e-05 371.68V373.07C22.55 387.56 45.62 402.61 69.26 418.28C76.16 422.86 83.37 426.78 90.34 430.57C97 434.2 103.89 437.95 110.29 442.16C183.41 490.28 246.69 523.19 298.38 539.98C344.82 555.06 382.71 557.88 414.24 548.59C473.25 531.2 498.23 474.6 522.39 419.87C544.59 369.57 565.56 322.06 611.26 311.7C668.05 298.82 756.08 345.67 888.29 459.13C902.33 471.19 916.05 483.7 930.57 496.94C935.52 501.46 940.52 506.01 945.59 510.6C1032.31 589.15 1119.42 657.01 1204.51 712.29C1285.48 764.91 1364.7 806.2 1440 835.08V833.83C1364.9 804.99 1285.9 763.79 1205.15 711.32C1120.12 656.07 1033.06 588.25 946.38 509.74ZM998.72 577C994.78 573.3 990.89 569.62 987.03 565.97C970.95 550.78 955.76 536.44 940.31 522.96C814.83 413.52 728.94 368.2 670.01 380.35C618.45 390.98 592.95 444.2 565.94 500.54C536.21 562.56 505.47 626.7 437.36 647.71C370.78 668.25 278.11 643.26 154.06 571.33C147.5 567.54 140.52 564.3 133.77 561.17C126.18 557.65 118.34 554.01 110.77 549.46C72.75 526.64 35.86 504.48 -1.95317e-05 482.87V484.24C35.68 505.74 72.36 527.78 110.17 550.47C117.8 555.05 125.67 558.7 133.28 562.24C140.31 565.5 146.96 568.59 153.47 572.35C277.82 644.45 370.8 669.47 437.7 648.83C468.4 639.36 494.38 620.07 517.13 589.87C537.2 563.22 552.35 531.62 566.99 501.05C593.87 444.98 619.25 392.01 670.24 381.5C728.78 369.43 814.35 414.66 939.53 523.84C954.96 537.3 970.14 551.64 986.21 566.82C990.07 570.47 993.96 574.14 997.9 577.85C1081.13 656.28 1164.67 724.44 1246.19 780.43C1312.6 826.04 1377.62 863.55 1439.98 892.26V890.97C1377.82 862.32 1313.03 824.92 1246.85 779.46C1165.38 723.5 1081.89 655.38 998.7 576.99L998.72 577ZM1168.32 650.11C1080.01 595.6 989.68 528.19 899.83 449.77C893.03 443.85 886.25 437.87 879.7 432.08C867.28 421.13 855.56 410.79 843.5 400.59C704.74 283.24 614.16 234.99 558.43 248.73C516.17 259.15 498.45 302.85 479.7 349.12C460.16 397.31 439.96 447.15 390 461.37C359.8 469.97 321.87 464.85 274.05 445.71C219.44 423.86 153.53 384.49 72.55 325.34C66.24 320.74 59.46 316.51 52.91 312.42C46.51 308.42 39.89 304.29 33.58 299.75C22.26 291.58 11.07 283.62 0.0199805 275.85V277.28C10.85 284.9 21.81 292.7 32.9 300.7C39.24 305.27 45.88 309.41 52.3 313.42C58.83 317.5 65.59 321.71 71.87 326.29C152.93 385.49 218.93 424.91 273.63 446.8C321.7 466.04 359.88 471.17 390.34 462.5C440.85 448.12 461.16 398.01 480.8 349.56C499.44 303.58 517.05 260.15 558.73 249.87C614.06 236.22 704.31 284.4 842.76 401.48C854.81 411.67 866.54 422.01 878.95 432.96C885.51 438.74 892.29 444.73 899.09 450.65C988.99 529.11 1079.38 596.56 1167.74 651.1C1251.88 703.04 1334.46 743.49 1413.19 771.32C1422.2 774.5 1431.15 777.51 1440.03 780.36V779.14C1431.27 776.33 1422.45 773.36 1413.58 770.22C1334.92 742.42 1252.42 702.01 1168.35 650.11H1168.32ZM963.84 532.09C958.69 527.38 953.62 522.7 948.6 518.07C934.01 504.62 920.24 491.91 906.15 479.77C775.96 367.44 688.43 321.02 630.66 333.71C582.71 344.24 560.23 393.72 536.43 446.1C510.55 503.05 483.79 561.94 422.08 580.38C355.85 600.17 258.77 568.81 125.3 484.49C118.82 480.4 111.87 476.81 105.15 473.34C97.99 469.64 90.6 465.82 83.52 461.3C54.88 442.92 27.07 425.31 -1.95317e-05 408.38V409.76C26.87 426.57 54.47 444.05 82.89 462.28C90.02 466.84 97.44 470.67 104.62 474.38C111.32 477.84 118.25 481.42 124.69 485.48C258.47 569.99 355.86 601.4 422.43 581.5C484.65 562.9 511.52 503.77 537.51 446.58C561.19 394.47 583.55 345.25 630.92 334.85C688.3 322.25 775.51 368.58 905.39 480.65C919.47 492.78 933.23 505.48 947.81 518.92C952.83 523.55 957.91 528.23 963.06 532.95C1048.61 611.47 1134.51 679.44 1218.38 734.97C1294.52 785.38 1369 825.57 1440.01 854.57V853.31C1369.21 824.35 1294.94 784.26 1219.03 734C1135.21 678.5 1049.36 610.57 963.85 532.09H963.84ZM952.14 517.07C946.9 512.31 941.73 507.58 936.61 502.89C922.24 489.73 908.66 477.31 894.72 465.34C762.99 352.09 674.91 305.34 617.54 318.21C570.72 328.72 549.18 377.05 526.37 428.22C501.72 483.53 476.23 540.73 416.66 558.36C350.72 577.88 252.27 544.26 115.69 455.58C109.25 451.41 102.36 447.73 95.7 444.17C88.66 440.41 81.37 436.52 74.4 431.95C48.96 415.27 24.18 399.27 -1.95317e-05 383.88V385.27C23.97 400.53 48.54 416.4 73.76 432.93C80.78 437.53 88.09 441.43 95.15 445.2C101.79 448.75 108.66 452.41 115.06 456.56C226.83 529.13 313.18 564.89 377.19 564.89C391.57 564.89 404.84 563.08 417 559.48C477.08 541.69 502.68 484.25 527.44 428.69C550.12 377.8 571.55 329.73 617.8 319.35C674.78 306.57 762.53 353.23 893.96 466.22C907.88 478.18 921.45 490.6 935.82 503.74C940.94 508.43 946.11 513.16 951.35 517.92C1037.68 596.46 1124.38 664.35 1209.05 719.72C1288.44 771.63 1366.1 812.59 1440 841.52V840.26C1366.31 811.36 1288.86 770.5 1209.7 718.73C1125.08 663.4 1038.42 595.54 952.14 517.04V517.07ZM957.99 524.64C953.12 520.19 948.32 515.78 943.55 511.4C928.73 497.78 914.74 484.92 900.44 472.6C769.49 359.82 681.69 313.24 624.12 326.02C576.74 336.54 554.74 385.44 531.44 437.2C506.18 493.33 480.07 551.36 419.43 569.4C353.33 589.07 255.56 556.58 120.53 470.09C114.06 465.95 107.13 462.31 100.43 458.79C93.34 455.06 86 451.21 78.99 446.68C51.93 429.13 25.62 412.31 -0.0100195 396.14V397.52C25.43 413.57 51.52 430.25 78.36 447.66C85.41 452.22 92.77 456.09 99.89 459.83C106.57 463.34 113.48 466.97 119.91 471.08C229.76 541.44 315.06 576.12 378.83 576.11C393.62 576.11 407.27 574.24 419.78 570.52C480.93 552.33 507.16 494.04 532.52 437.68C555.69 386.19 577.58 337.55 624.38 327.16C681.55 314.47 769.03 360.96 899.68 473.48C913.96 485.78 927.95 498.64 942.76 512.26C947.52 516.64 952.33 521.06 957.2 525.5C1043.14 604.03 1129.44 671.96 1213.71 727.41C1291.47 778.57 1367.54 819.15 1439.99 848.13V846.87C1367.74 817.93 1291.89 777.46 1214.35 726.44C1130.13 671.02 1043.87 603.13 957.98 524.64H957.99ZM969.64 539.62C964.82 535.18 960.07 530.78 955.36 526.42C940.4 512.56 926.26 499.46 911.82 486.98C782.41 375.13 695.14 328.9 637.19 341.5C588.67 352.05 565.71 402.12 541.4 455.12C514.9 512.9 487.5 572.65 424.72 591.51C358.38 611.44 262 581.18 130.08 499C123.59 494.95 116.66 491.44 109.95 488.04C102.71 484.37 95.22 480.58 88.05 476.02C57.82 456.84 28.51 438.44 0.00998047 420.75V422.13C28.31 439.7 57.42 457.97 87.42 477.01C94.64 481.6 102.15 485.41 109.42 489.09C116.11 492.48 123.02 495.98 129.46 500C235.46 566.03 318.62 598.61 381.8 598.6C397.43 598.6 411.84 596.61 425.06 592.63C488.35 573.62 515.86 513.62 542.47 455.61C566.65 402.87 589.5 353.06 637.45 342.64C695.01 330.12 781.96 376.27 911.07 487.86C925.49 500.33 939.62 513.41 954.58 527.27C959.29 531.63 964.04 536.04 968.86 540.47C1054.01 618.98 1139.51 686.98 1222.98 742.59C1297.51 792.24 1370.43 832.03 1440.02 861.04V859.77C1370.64 830.81 1297.94 791.12 1223.63 741.62C1140.21 686.04 1054.76 618.08 969.66 539.61L969.64 539.62ZM1110.29 555.74C1017.9 502.85 923.57 436.96 829.93 359.91C820.07 351.8 810.16 343.5 800.59 335.47C792.27 328.49 783.66 321.27 775.14 314.23C626.98 191.64 532.85 141.52 478.91 156.52C441.53 166.91 427.34 207.39 413.61 246.54C399.79 285.95 385.5 326.7 347.65 337.02C289.25 352.94 183.54 294.06 14.97 151.72C10.1 147.63 5.02998 143.68 0.00998047 139.83V141.31C4.78998 144.98 9.59998 148.74 14.22 152.62C165.17 280.08 265.91 340.72 327.59 340.71C334.92 340.71 341.71 339.85 347.95 338.15C386.4 327.67 400.79 286.63 414.71 246.93C428.34 208.06 442.43 167.87 479.22 157.65C532.76 142.76 626.55 192.81 774.39 315.14C782.91 322.18 791.51 329.39 799.84 336.37C809.42 344.4 819.32 352.7 829.19 360.82C922.88 437.91 1017.26 503.84 1109.71 556.76C1196.21 606.28 1281.78 644.87 1364.04 671.47C1389.73 679.78 1415.08 686.91 1440.01 692.86V691.66C1415.2 685.73 1389.97 678.63 1364.4 670.36C1282.22 643.79 1196.73 605.22 1110.29 555.74ZM1105.02 547.57C1012.44 494.88 917.95 429.23 824.16 352.46C813.03 343.38 801.88 334.07 791.09 325.07C783.88 319.05 776.67 313.04 769.43 307.06C620.48 184.03 526.03 133.77 472.22 148.87C435.19 159.26 421.31 199.36 407.88 238.13C394.48 276.84 380.62 316.87 343.71 326.9C285.93 342.6 179.93 282.35 10.13 137.29C6.81998 134.46 3.40998 131.69 -0.0100195 128.97V130.47C3.15998 132.99 6.30998 135.56 9.36998 138.18C161.94 268.52 263.2 330.49 324.44 330.48C331.48 330.48 338.01 329.66 344.01 328.03C381.51 317.84 395.47 277.52 408.97 238.52C422.3 200.03 436.07 160.23 472.52 150C525.94 135.01 620.04 185.21 768.67 307.96C775.91 313.94 783.12 319.95 790.33 325.97C801.12 334.97 812.28 344.28 823.41 353.36C917.25 430.17 1011.8 495.86 1104.43 548.58C1190.98 597.84 1276.66 636.28 1359.1 662.82C1386.47 671.63 1413.46 679.12 1439.99 685.29V684.09C1413.58 677.93 1386.7 670.47 1359.46 661.7C1277.09 635.18 1191.48 596.78 1105.01 547.55L1105.02 547.57ZM1099.41 539.25C1006.71 486.77 912.12 421.4 818.25 344.96C807.21 335.98 796.13 326.76 785.4 317.85C778.17 311.84 770.94 305.83 763.67 299.84C613.91 176.36 519.14 125.94 465.44 141.15C428.76 151.54 415.19 191.25 402.07 229.66C389.08 267.68 375.65 306.98 339.69 316.72C282.56 332.19 176.3 270.56 5.28998 122.77C3.54998 121.26 1.77998 119.77 -1.95317e-05 118.29V119.82C1.51998 121.09 3.03998 122.37 4.52998 123.66C158.7 256.9 260.44 320.21 321.21 320.2C327.97 320.2 334.24 319.41 340 317.85C376.56 307.95 390.09 268.34 403.18 230.04C416.2 191.92 429.67 152.5 465.77 142.28C519.07 127.18 613.5 177.54 762.94 300.75C770.2 306.73 777.43 312.74 784.66 318.75C795.39 327.67 806.48 336.89 817.52 345.87C911.43 422.36 1006.08 487.76 1098.84 540.27C1185.38 589.26 1271.13 627.54 1353.71 654.04C1382.91 663.41 1411.72 671.3 1440.01 677.72V676.52C1411.83 670.12 1383.15 662.26 1354.07 652.93C1271.56 626.45 1185.88 588.21 1099.42 539.26L1099.41 539.25ZM1093.79 530.82C1001.01 478.57 906.36 413.51 812.46 337.43C799.84 327.24 787.15 316.73 774.88 306.57C769.26 301.92 763.65 297.27 758.01 292.63C607.46 168.75 512.39 118.2 458.8 133.52C422.45 143.92 409.19 183.26 396.37 221.3C383.79 258.63 370.78 297.22 335.76 306.68C279.29 321.92 172.78 258.9 0.56998 108.34C0.38998 108.18 0.19998 108.02 0.00998047 107.86V109.4C92.79 190.5 165.58 245.44 222.53 277.36C272.03 305.11 309.17 315.07 336.07 307.8C371.69 298.18 384.81 259.29 397.49 221.67C410.22 183.91 423.38 144.87 459.14 134.64C512.32 119.43 607.06 169.92 757.28 293.53C762.91 298.17 768.53 302.82 774.15 307.47C786.43 317.63 799.12 328.14 811.74 338.34C905.69 414.46 1000.4 479.56 1093.23 531.84C1179.72 580.55 1265.5 618.66 1348.19 645.13C1379.27 655.08 1409.92 663.38 1440.02 670.03V668.84C1410.04 662.21 1379.51 653.93 1348.55 644.02C1265.93 617.57 1180.22 579.49 1093.8 530.82H1093.79ZM1051.03 646.04C1032.44 627.78 1014.89 610.54 997.25 594.89C935.46 540 883.79 502.52 839.3 480.31C798.87 460.13 765.03 452.96 735.84 458.39C677.55 469.25 646.34 529.75 613.3 593.81C550.55 715.46 479.42 853.35 202.04 716.01C195.3 712.67 188.2 709.91 181.34 707.25C173.09 704.05 164.57 700.73 156.21 696.29C102.55 667.62 50.61 638.3 -1.95317e-05 608.1V609.46C50.43 639.55 102.19 668.76 155.66 697.32C164.08 701.8 172.64 705.13 180.91 708.34C188.07 711.12 194.82 713.75 201.52 717.06C278.6 755.22 344.03 774.22 399.11 774.22C432.77 774.22 462.58 767.12 488.79 752.97C549.39 720.25 582.41 656.25 614.33 594.35C647.24 530.55 678.32 470.3 736.05 459.54C764.98 454.16 798.58 461.29 838.77 481.35C883.17 503.52 934.75 540.94 996.46 595.76C1014.07 611.39 1031.62 628.62 1050.2 646.87L1056.09 652.66C1186.96 781.26 1318.17 882.79 1439.99 950.12V948.78C1318.42 881.5 1187.5 780.16 1056.91 651.83L1051.02 646.04H1051.03ZM1115.51 563.81C1023.34 510.74 929.23 444.64 835.78 367.35C825.75 359.07 815.68 350.61 805.95 342.42C797.72 335.5 789.22 328.35 780.83 321.39C633.46 199.23 539.63 149.27 485.57 164.16C447.83 174.55 433.31 215.43 419.27 254.97C405.02 295.08 390.29 336.56 351.47 347.18C292.46 363.32 187.06 305.81 19.77 166.19C13.42 160.89 6.68998 155.85 0.17998 150.98C0.12998 150.94 0.0699805 150.9 0.0199805 150.86V152.32C6.34998 157.06 12.87 161.95 19.03 167.09C168.32 291.69 268.51 350.99 330.62 350.99C338.24 350.99 345.3 350.09 351.8 348.32C391.21 337.54 406.04 295.77 420.39 255.37C434.33 216.12 448.75 175.53 485.9 165.3C539.57 150.52 633.05 200.41 780.11 322.3C788.49 329.25 797 336.41 805.22 343.32C814.95 351.51 825.02 359.97 835.05 368.25C928.55 445.58 1022.72 511.71 1114.94 564.82C1201.36 614.58 1286.78 653.33 1368.82 680C1392.89 687.82 1416.64 694.59 1440.02 700.32V699.12C1416.76 693.41 1393.13 686.67 1369.18 678.89C1287.22 652.25 1201.87 613.53 1115.52 563.81H1115.51ZM771.68 285.02C754.48 271.59 736.45 257.18 718.09 242.21C634.11 174.13 567.85 128.38 515.5 102.33C470.22 79.8 436.14 72.53 411.31 80.11C377.13 90.54 365.87 127.36 354.97 162.97C344.55 197.02 334.71 229.18 306.01 236.76C281.71 243.18 246.02 230.86 196.89 199.11C146.48 166.53 81.83 113.62 -1.95317e-05 37.94V39.53C81.51 114.88 145.95 167.58 196.25 200.09C245.67 232.03 281.67 244.39 306.3 237.88C335.63 230.14 345.56 197.67 356.08 163.3C366.89 127.99 378.06 91.47 411.64 81.22C436.17 73.73 469.97 80.97 514.97 103.36C567.24 129.37 633.43 175.08 717.34 243.1C735.7 258.08 753.74 272.49 770.94 285.93C947.5 423.7 1123.4 521.96 1293.74 577.98C1343.2 594.24 1392.14 606.86 1439.99 615.74V614.55C1392.26 605.68 1343.44 593.09 1294.11 576.87C1123.89 520.89 948.12 422.7 771.66 285.01L771.68 285.02ZM1120.61 571.9C1028.69 518.66 934.82 452.37 841.58 374.88C832.5 367.34 823.4 359.65 814.6 352.21C805.4 344.44 795.89 336.4 786.5 328.61C639.92 206.88 546.41 157.07 492.22 171.84C454.11 182.23 439.27 223.52 424.91 263.44C410.23 304.26 395.05 346.48 355.25 357.4C327.25 365.09 289.82 356.82 240.83 332.13C184.37 303.68 113.63 254.14 24.55 180.66C18.25 175.49 11.57 170.56 5.09998 165.8C3.40998 164.56 1.70998 163.29 -1.95317e-05 162.02V163.48C1.47998 164.57 2.94998 165.66 4.40998 166.74C10.86 171.5 17.53 176.42 23.81 181.57C190.15 318.77 295.56 375.01 355.56 358.53C395.94 347.45 411.22 304.94 426.01 263.83C440.92 222.36 455.01 183.2 492.53 172.96C546.32 158.29 639.5 208.03 785.76 329.5C795.15 337.28 804.65 345.32 813.85 353.09C822.65 360.53 831.75 368.23 840.83 375.77C934.11 453.3 1028.04 519.63 1120.02 572.9C1206.33 622.9 1291.58 661.8 1373.39 688.54C1395.9 695.9 1418.12 702.32 1440.01 707.82V706.61C1418.24 701.13 1396.14 694.74 1373.75 687.43C1292.02 660.72 1206.85 621.84 1120.6 571.89L1120.61 571.9ZM754.3 262.55C736.71 249.09 718.8 234.98 701.06 220.61C615.71 151.7 548.49 105.42 495.55 79.13C449.94 56.47 415.78 49.21 391.13 56.91C357.8 67.33 347.28 103.15 337.11 137.78C327.69 169.84 318.8 200.12 292.54 206.98C269.27 213.06 234.15 199.72 185.18 166.18C137.67 133.67 76.79 82.09 -1.95317e-05 9.29V10.91C143.45 146.9 232.11 209.57 280.87 209.57C285.16 209.57 289.14 209.09 292.82 208.12C319.72 201.09 328.7 170.5 338.21 138.11C348.3 103.77 358.72 68.26 391.46 58.02C415.81 50.41 449.68 57.65 495.01 80.17C547.87 106.43 615.02 152.66 700.3 221.52C718.05 235.89 735.97 250.01 753.57 263.48C897.45 373.74 1042 458.89 1183.22 516.58C1270.6 552.28 1356.59 577.47 1440 591.89V590.7C1356.74 576.29 1270.9 551.13 1183.66 515.5C1042.54 457.85 898.07 372.75 754.28 262.56L754.3 262.55ZM1085.18 688.41C1064.57 667.75 1045.11 648.24 1025.75 630.86C966.2 577.47 916 540.96 872.26 519.24C832.38 499.43 798.61 492.36 769.02 497.61C707.07 508.61 672.71 573.27 636.33 641.72C569.57 767.34 493.89 909.73 226.03 788.33C219.31 785.3 212.29 782.82 205.5 780.42C196.81 777.35 187.83 774.18 178.95 769.71C117.7 738.96 58.25 706.02 0.00998047 670.52V671.89C58.09 707.26 117.36 740.1 178.42 770.75C187.37 775.25 196.39 778.44 205.11 781.52C212.19 784.02 218.87 786.38 225.55 789.39C293.48 820.18 352.48 835.54 403.54 835.53C442.63 835.53 477.07 826.52 507.27 808.55C568.3 772.22 603.41 706.15 637.36 642.27C673.6 574.07 707.84 509.66 769.22 498.76C798.55 493.55 832.08 500.59 871.73 520.29C915.37 541.96 965.49 578.42 1024.96 631.73C1044.29 649.08 1063.74 668.59 1084.34 689.23L1085.2 690.09C1205.97 811.2 1326.88 908.69 1440 976.62V975.25C1327.13 907.38 1206.51 810.09 1086.02 689.26L1085.16 688.4L1085.18 688.41ZM1072.52 672.47C1052.42 652.44 1033.44 633.52 1014.41 616.56C953.97 562.56 903.17 525.66 859.13 503.73C819.02 483.77 785.22 476.65 755.78 481.97C695.31 492.91 662.23 555.87 627.2 622.52C562.02 746.56 488.14 887.15 216.48 759.46C209.71 756.26 202.91 753.76 195.72 751.13C187.27 748.03 178.53 744.82 169.91 740.38C111.67 710.4 55.2 678.92 0.00998047 645.63V647C55.04 680.17 111.33 711.55 169.38 741.43C178.07 745.91 186.84 749.12 195.32 752.24C202.49 754.87 209.26 757.35 215.98 760.53C287.52 794.16 349.11 810.92 401.84 810.92C438.75 810.92 471.33 802.7 499.93 786.31C560.8 751.41 595.08 686.17 628.23 623.08C663.12 556.68 696.08 493.97 755.98 483.13C785.16 477.85 818.72 484.94 858.6 504.78C902.55 526.66 953.26 563.51 1013.62 617.43C1025.18 627.74 1036.74 638.78 1048.53 650.36C1038.94 641.03 1029.49 632.09 1020.07 623.65C960.07 569.96 909.57 533.26 865.68 511.44C825.68 491.56 791.89 484.46 762.38 489.75C701.17 500.72 667.45 564.52 631.75 632.08C565.78 756.91 491 898.4 221.23 773.86C214.47 770.74 207.4 768.2 200.57 765.75C192 762.67 183.13 759.48 174.39 755.03C114.65 724.65 56.7 692.44 -1.95317e-05 658.08V659.45C56.54 693.69 114.31 725.8 173.86 756.08C182.67 760.56 191.56 763.76 200.17 766.85C207.29 769.41 214.02 771.83 220.74 774.93C341.52 830.68 434.03 838.03 503.58 797.39C564.53 761.77 599.23 696.12 632.78 632.63C668.34 565.34 701.93 501.78 762.58 490.91C791.84 485.67 825.39 492.73 865.15 512.49C908.95 534.26 959.37 570.91 1019.28 624.52C1038.21 641.46 1057.22 660.43 1077.34 680.52L1079.39 682.57C1202.17 805.19 1325.12 903.52 1439.98 971.39V970.03C1326.56 902.92 1205.25 806.1 1084.02 685.52C1205.34 804.84 1326.63 900.38 1439.98 966.28V964.93C1323.63 897.21 1198.91 798.23 1074.39 674.36L1072.48 672.46L1072.52 672.47ZM760.04 270.03C741.96 256.02 724.03 241.82 706.73 227.82C621.84 159.19 554.94 113.08 502.21 86.87C456.71 64.25 422.58 56.99 397.87 64.65C364.26 75.07 353.5 111.22 343.09 146.18C333.35 178.9 324.15 209.8 297.08 216.9C273.46 223.09 238.15 210.09 189.11 177.15C140.63 144.58 78.48 92.54 -1.95317e-05 18.75V20.37C145.03 156.72 234.89 219.55 284.82 219.55C289.32 219.55 293.5 219.04 297.36 218.03C325.06 210.77 334.35 179.56 344.19 146.51C354.51 111.85 365.18 76 398.2 65.77C422.61 58.2 456.46 65.44 501.67 87.92C554.33 114.1 621.16 160.16 705.98 228.74C723.29 242.75 741.23 256.95 759.31 270.97C903.1 381.64 1047.45 467.09 1188.33 524.96C1274.11 560.2 1358.38 585.17 1440 599.63V598.44C1358.52 583.99 1274.4 559.05 1188.77 523.87C1047.99 466.04 903.73 380.64 760.02 270.04L760.04 270.03ZM765.95 277.53C749.17 264.53 731.68 250.63 712.49 235.04C628.06 166.69 561.47 120.76 508.93 94.63C463.54 72.06 429.43 64.79 404.66 72.42C370.77 82.85 359.75 119.33 349.1 154.61C339.02 187.99 329.5 219.52 301.63 226.85C277.67 233.15 242.16 220.5 193.08 188.15C143.61 155.57 80.19 103.07 -1.95317e-05 28.29V29.89C79.86 104.32 143.08 156.62 192.42 189.13C241.8 221.67 277.61 234.37 301.91 227.98C330.42 220.48 340.03 188.65 350.2 154.95C360.76 119.96 371.68 83.79 404.98 73.54C429.45 66.01 463.28 73.25 508.38 95.68C560.84 121.77 627.36 167.65 711.73 235.95C730.93 251.55 748.42 265.45 765.21 278.46C908.68 389.79 1052.68 475.7 1193.2 533.82C1277.41 568.65 1360.02 593.42 1439.99 607.89V606.7C1360.17 592.24 1277.7 567.5 1193.65 532.74C1053.22 474.66 909.32 388.8 765.93 277.54L765.95 277.53ZM1058.41 655.13C1039.23 636.2 1021.12 618.32 1002.96 602.16C941.61 547.56 890.23 510.27 845.88 488.15C805.55 468.04 771.72 460.88 742.45 466.28C683.44 477.16 651.61 538.47 617.91 603.38C554.34 725.83 482.3 864.6 206.82 730.5C200.02 727.17 192.88 724.45 185.98 721.82C177.71 718.67 169.16 715.41 160.75 710.98C105.58 681.87 52.14 651.84 0.0199805 620.65V622.01C51.97 653.08 105.22 683 160.2 712.01C168.67 716.47 177.26 719.74 185.56 722.9C192.76 725.64 199.55 728.23 206.31 731.54C281.54 768.16 345.69 786.4 400.02 786.4C434.76 786.4 465.48 778.94 492.49 764.06C553.18 730.61 586.62 666.2 618.96 603.91C652.52 539.26 684.22 478.2 742.67 467.42C771.69 462.07 805.28 469.19 845.37 489.18C889.63 511.25 940.92 548.49 1002.19 603.02C1014.4 613.88 1026.59 625.54 1039.1 637.77C1028.87 627.84 1018.81 618.31 1008.74 609.33C947.84 555.03 896.76 517.93 852.56 495.91C812.34 475.87 778.52 468.74 749.17 474.1C689.43 485.01 656.98 547.14 622.62 612.91C558.24 736.16 485.27 875.85 211.69 744.97C204.93 741.73 197.83 739.07 190.97 736.51C182.58 733.37 173.91 730.13 165.37 725.68C108.65 696.12 53.68 665.35 0.00998047 633.12V634.49C53.51 666.6 108.3 697.26 164.83 726.72C173.44 731.2 182.15 734.46 190.57 737.61C197.72 740.29 204.47 742.81 211.19 746.03C284.57 781.13 347.44 798.62 400.99 798.62C436.82 798.62 468.47 790.78 496.27 775.15C557.05 740.97 590.92 676.15 623.66 613.45C657.88 547.93 690.21 486.05 749.38 475.25C778.48 469.94 812.06 477.04 852.04 496.96C896.14 518.94 947.15 555.98 1007.96 610.2C1025.91 626.22 1043.84 643.94 1062.81 662.7L1067.86 667.69C1194.65 793.3 1321.69 893.25 1440.01 960.91V959.56C1322.3 892.16 1195.95 792.79 1069.82 667.98C1196.05 791.46 1322.37 889.5 1440.01 955.63V954.29C1320.18 886.83 1191.32 786.26 1062.75 659.4L1058.41 655.11V655.13ZM1140.13 603.55C1049.5 549.72 956.87 482.85 864.82 404.8C856.74 397.95 848.66 391.01 840.84 384.29C830.49 375.4 819.79 366.2 809.26 357.37C665.82 237.38 573.5 188.18 518.74 202.54C479.07 212.94 463.55 253.99 447.13 297.46C430.61 341.17 413.53 386.36 369.76 398.55C340.78 406.62 303.05 399.64 254.4 377.21C198.54 351.46 129.62 306.09 43.69 238.51C37.28 233.45 30.43 228.72 23.81 224.16C17.98 220.14 11.95 215.98 6.21998 211.59C4.14998 210 2.08998 208.44 0.0199805 206.86V208.33C1.84998 209.73 3.66998 211.11 5.49998 212.51C11.25 216.92 17.29 221.08 23.14 225.11C29.75 229.67 36.58 234.38 42.96 239.42C128.96 307.05 197.96 352.47 253.9 378.26C302.8 400.81 340.8 407.81 370.06 399.66C414.4 387.32 431.59 341.84 448.21 297.86C464.53 254.69 479.94 213.91 519.03 203.66C573.4 189.4 665.38 238.53 808.51 358.25C819.04 367.07 829.74 376.26 840.08 385.16C847.9 391.88 855.99 398.83 864.07 405.68C956.17 483.78 1048.86 550.69 1139.54 604.55C1225.15 655.4 1309.47 694.93 1390.15 722.04C1406.96 727.69 1423.59 732.79 1440.02 737.35V736.14C1423.71 731.61 1407.21 726.54 1390.53 720.93C1309.93 693.84 1225.68 654.34 1140.14 603.54L1140.13 603.55ZM1144.97 611.39C1054.7 557.43 962.43 490.45 870.72 412.3C862.77 405.55 854.84 398.7 847.16 392.07C836.63 382.98 825.73 373.58 815 364.59C672.34 245.04 580.33 195.99 525.41 210.25C485.34 220.65 469.48 262.13 452.68 306.03C435.68 350.47 418.11 396.43 373.32 408.94C344.11 417.1 306.32 410.44 257.79 388.57C202.11 363.48 133.66 319.13 48.53 252.99C42.26 248.12 35.55 243.58 29.06 239.19C23 235.09 16.74 230.85 10.79 226.32C7.17998 223.58 3.57998 220.87 -0.0100195 218.16V219.63C3.34998 222.16 6.70998 224.69 10.08 227.25C16.05 231.8 22.33 236.04 28.4 240.15C34.87 244.53 41.57 249.06 47.81 253.91C133.01 320.11 201.54 364.5 257.3 389.63C292.67 405.57 322.39 413.47 347.3 413.46C356.75 413.46 365.51 412.32 373.62 410.06C418.97 397.39 436.65 351.15 453.75 306.44C470.43 262.82 486.19 221.62 525.68 211.37C580.2 197.22 671.88 246.19 814.22 365.48C824.95 374.46 835.84 383.86 846.37 392.95C854.05 399.58 861.99 406.43 869.93 413.18C961.69 491.38 1054.02 558.4 1144.34 612.39C1229.74 663.43 1313.79 703.12 1394.16 730.35C1409.59 735.58 1424.87 740.33 1439.98 744.63V743.41C1425 739.14 1409.85 734.42 1394.54 729.24C1314.24 702.04 1230.27 662.39 1144.94 611.39H1144.97ZM1163.64 642.36C1074.93 587.95 984.19 520.61 893.95 442.22C886.84 436.06 879.74 429.83 872.89 423.81C860.85 413.24 849.49 403.26 837.74 393.36C698.21 275.57 607.34 227.15 551.78 241C509.97 251.42 492.64 294.65 474.29 340.43C455.27 387.86 435.61 436.91 386.69 450.79C356.67 459.31 318.75 453.88 270.77 434.21C215.93 411.72 149.49 371.38 67.67 310.87C61.44 306.27 54.76 302.04 48.3 297.95C41.88 293.89 35.25 289.68 28.95 285.06C19.25 277.99 9.60998 271.05 0.0199805 264.21V265.64C9.38998 272.31 18.8 279.1 28.26 286C34.59 290.64 41.24 294.86 47.68 298.93C54.12 303.01 60.78 307.23 66.98 311.8C148.88 372.37 215.4 412.76 270.33 435.28C318.57 455.06 356.73 460.5 387.02 451.91C436.49 437.88 456.26 388.56 475.38 340.86C493.62 295.37 510.84 252.4 552.07 242.13C607.24 228.38 697.77 276.72 836.99 394.25C848.73 404.14 860.09 414.12 872.12 424.68C878.98 430.7 886.07 436.93 893.19 443.1C983.48 521.53 1074.27 588.91 1163.03 643.35C1247.44 695.12 1330.32 735.42 1409.4 763.12C1419.68 766.72 1429.89 770.1 1440.02 773.27V772.04C1430.02 768.9 1419.94 765.57 1409.79 762.01C1330.8 734.33 1247.98 694.07 1163.65 642.34L1163.64 642.36ZM1135.39 595.74C1044.41 542.05 951.43 475.3 859.05 397.35C850.6 390.24 842.15 383.01 833.98 376.01C824.04 367.51 813.77 358.71 803.61 350.24C659.39 229.81 566.79 180.45 512.16 194.91C472.9 205.31 457.72 245.94 441.65 288.97C425.6 331.95 409.01 376.39 366.24 388.25C337.49 396.22 299.82 388.92 251.08 365.94C195.05 339.52 125.66 293.12 38.94 224.08C32.6 219.04 25.85 214.3 19.32 209.72C13.48 205.62 7.44998 201.39 1.71998 196.94C1.14998 196.5 0.57998 196.07 0.00998047 195.62V197.1C0.33998 197.36 0.66998 197.61 0.99998 197.86C6.74998 202.32 12.8 206.56 18.65 210.67C25.16 215.24 31.9 219.97 38.21 224.98C125.01 294.07 194.48 340.52 250.58 366.98C299.59 390.09 337.53 397.41 366.56 389.36C409.9 377.34 426.6 332.61 442.75 289.36C458.71 246.63 473.78 206.26 512.46 196.02C566.68 181.67 658.95 230.95 802.86 351.11C813.01 359.58 823.28 368.37 833.22 376.87C841.39 383.86 849.84 391.1 858.3 398.21C950.73 476.2 1043.76 542.99 1134.8 596.71C1220.62 647.36 1305.2 686.73 1386.18 713.74C1404.34 719.8 1422.29 725.22 1440.01 730.02V728.81C1422.41 724.04 1404.58 718.65 1386.55 712.64C1305.64 685.65 1221.14 646.31 1135.39 595.71V595.74ZM1149.57 619.09C1059.68 565.01 967.78 497.93 876.43 419.7C868.94 413.29 861.44 406.79 854.19 400.5C843.2 390.97 831.84 381.12 820.65 371.72C678.77 252.61 587.04 203.73 531.98 217.88C491.49 228.29 475.27 270.19 458.1 314.55C440.61 359.73 422.53 406.46 376.73 419.3C347.31 427.55 309.47 421.2 261.06 399.89C205.57 375.46 137.61 332.13 53.3 267.42C47.01 262.6 40.28 258.12 33.77 253.78C27.66 249.71 21.33 245.49 15.32 240.97C10.21 237.12 5.10998 233.32 0.0299805 229.55V231C4.87998 234.6 9.73998 238.23 14.62 241.9C20.66 246.44 27 250.66 33.13 254.75C39.63 259.08 46.34 263.55 52.6 268.35C136.99 333.12 205.03 376.5 260.6 400.97C309.27 422.4 347.36 428.76 377.06 420.43C423.43 407.42 441.62 360.42 459.21 314.97C476.27 270.9 492.38 229.27 532.29 219.01C586.96 204.96 678.36 253.77 819.92 372.61C831.11 382.01 842.47 391.86 853.45 401.38C860.7 407.67 868.2 414.17 875.7 420.58C967.11 498.85 1059.06 565.97 1149 620.08C1234.16 671.31 1317.93 711.15 1397.99 738.49C1412.15 743.32 1426.17 747.76 1440.04 751.8V750.59C1426.29 746.58 1412.39 742.18 1398.36 737.39C1318.38 710.08 1234.69 670.27 1149.6 619.09H1149.57ZM1159.04 634.72C1069.93 580.42 978.79 513.16 888.16 434.81C881.07 428.68 873.99 422.49 867.14 416.5C855.14 406 843.8 396.09 832.1 386.23C691.78 267.99 600.64 219.41 545.25 233.36C503.89 243.77 486.94 286.55 468.99 331.84C450.49 378.51 431.37 426.78 383.49 440.31C353.66 448.74 315.76 443.01 267.62 422.79C212.55 399.66 145.59 358.33 62.93 296.43C56.57 291.68 49.77 287.29 43.19 283.04C36.98 279.03 30.56 274.89 24.45 270.4C16.26 264.37 8.11998 258.44 0.00998047 252.58V254.02C7.88998 259.71 15.8 265.47 23.76 271.34C29.9 275.84 36.34 280 42.56 284.02C49.12 288.25 55.9 292.63 62.23 297.36C144.97 359.31 212.01 400.69 267.17 423.86C315.56 444.18 353.71 449.93 383.81 441.42C432.24 427.74 451.48 379.2 470.08 332.26C487.91 287.26 504.76 244.75 545.54 234.49C600.54 220.65 691.35 269.15 831.35 387.12C843.04 396.97 854.37 406.89 866.37 417.38C873.22 423.37 880.3 429.57 887.4 435.69C978.08 514.08 1069.26 581.38 1158.43 635.71C1243.1 687.31 1326.29 727.45 1405.7 755.03C1417.23 759.04 1428.67 762.76 1440.01 766.23V765.01C1428.79 761.58 1417.48 757.88 1406.08 753.92C1326.76 726.37 1243.64 686.26 1159.04 634.7V634.72ZM1130.51 587.77C1039.19 534.22 945.89 467.6 853.2 389.78C844.52 382.5 835.82 375.09 827.41 367.92C817.75 359.69 807.77 351.18 797.91 342.95C652.93 222.1 560.03 172.6 505.56 187.17C466.69 197.57 451.85 237.8 436.13 280.4C420.54 322.66 404.43 366.36 362.66 377.9C334.15 385.78 296.56 378.16 247.72 354.61C191.54 327.52 121.69 280.08 34.18 209.57C27.89 204.51 21.18 199.72 14.69 195.09C9.83998 191.63 4.85998 188.07 0.0199805 184.38V185.86C4.64998 189.37 9.38998 192.76 14.01 196.05C20.49 200.67 27.19 205.44 33.45 210.49C121.03 281.05 190.96 328.53 247.22 355.67C296.32 379.35 334.19 386.99 362.98 379.04C405.33 367.34 421.55 323.35 437.24 280.82C452.84 238.51 467.58 198.55 505.87 188.31C559.94 173.85 652.5 223.28 797.17 343.86C807.03 352.09 817.01 360.59 826.67 368.82C835.08 375.99 843.78 383.4 852.46 390.69C945.2 468.55 1038.56 535.21 1129.93 588.79C1215.94 639.23 1300.76 678.45 1382.04 705.37C1401.61 711.85 1420.95 717.61 1440.03 722.65V721.44C1421.07 716.43 1401.86 710.7 1382.41 704.26C1301.21 677.37 1216.46 638.18 1130.53 587.79L1130.51 587.77ZM1154.32 626.9C1064.82 572.71 973.3 505.53 882.31 427.24C874.85 420.84 867.4 414.35 860.19 408.07C849.12 398.43 837.67 388.46 826.37 378.97C685.28 260.3 593.84 211.57 538.61 225.62C497.69 236.03 481.11 278.37 463.55 323.2C445.56 369.13 426.97 416.62 380.13 429.81C350.5 438.15 312.63 432.11 264.36 411.35C209.08 387.57 141.62 345.25 58.13 281.95C51.82 277.18 45.04 272.73 38.49 268.43C32.32 264.38 25.94 260.2 19.9 255.71C13.24 250.75 6.60998 245.88 -1.95317e-05 241.04V242.49C6.37998 247.16 12.77 251.87 19.2 256.65C25.28 261.16 31.67 265.35 37.85 269.41C44.39 273.7 51.15 278.13 57.42 282.88C140.98 346.23 208.52 388.61 263.89 412.42C298.36 427.25 327.58 434.6 352.33 434.6C362.43 434.6 371.79 433.38 380.45 430.94C427.84 417.6 446.55 369.83 464.64 323.63C482.08 279.09 498.56 237.02 538.9 226.76C593.73 212.81 684.84 261.46 825.62 379.87C836.91 389.35 848.35 399.32 859.42 408.95C866.63 415.23 874.08 421.72 881.54 428.12C972.58 506.45 1064.15 573.67 1153.71 627.9C1238.63 679.32 1322.11 719.31 1401.83 746.77C1414.67 751.19 1427.4 755.28 1440 759.04V757.82C1427.52 754.09 1414.92 750.04 1402.21 745.66C1322.56 718.23 1239.16 678.27 1154.31 626.9H1154.32ZM783.33 300C765.18 285.66 746.8 270.71 729.52 256.63C574.93 130.58 478.2 79.27 425.1 95.16C390.33 105.56 378.5 143.09 367.05 179.39C355.86 214.9 345.28 248.43 314.77 256.53C289.76 263.17 253.68 251.55 204.47 221.01C152.12 188.52 85.06 134.9 -1.95317e-05 57.5V59.08C84.74 136.14 151.61 189.58 203.84 222C253.34 252.72 289.72 264.39 315.06 257.66C346.2 249.4 356.86 215.56 368.16 179.74C379.51 143.73 391.25 106.5 425.43 96.28C450.09 88.9 483.82 96.19 528.56 118.57C580.39 144.49 645.87 189.95 728.77 257.54C746.05 271.62 764.44 286.57 782.59 300.92C962.23 442.62 1140.65 542.7 1312.92 598.38C1355.91 612.28 1398.39 623.31 1440 631.43V630.24C1398.51 622.14 1356.15 611.13 1313.28 597.27C1141.15 541.63 962.84 441.62 783.32 300.01L783.33 300ZM789.21 307.42C770.97 292.95 752.55 277.92 735.25 263.77C581.47 138.15 485.07 86.99 431.89 102.76C396.82 113.16 384.71 151.04 373 187.68C361.43 223.88 350.5 258.08 319.11 266.43C293.77 273.18 257.52 261.9 208.3 231.95C154.98 199.53 86.71 145.56 -1.95317e-05 67.29V68.86C86.39 146.79 154.48 200.58 207.67 232.95C247.9 257.42 279.56 269.49 303.79 269.48C309.38 269.48 314.58 268.84 319.4 267.55C351.41 259.03 362.43 224.54 374.1 188.02C385.72 151.68 397.73 114.09 432.21 103.87C456.93 96.54 490.64 103.84 535.27 126.18C586.9 152.03 652.07 197.33 734.5 264.66C751.8 278.81 770.22 293.85 788.47 308.32C969.2 451.66 1148.47 552.52 1321.3 608.07C1361.46 620.98 1401.13 631.32 1440 639.07V637.86C1401.25 630.12 1361.7 619.83 1321.66 606.95C1148.96 551.44 969.82 450.65 789.2 307.39L789.21 307.42ZM1125.54 579.85C1033.92 526.45 940.32 459.99 847.35 382.32C838.17 374.67 828.98 366.87 820.09 359.34C810.94 351.57 801.47 343.54 792.13 335.77C646.34 214.47 553.13 164.81 498.8 179.48C460.32 189.87 445.14 231.56 430.46 271.88C415.34 313.42 399.7 356.37 358.93 367.6C330.68 375.39 293.16 367.44 244.24 343.33C187.91 315.56 117.61 267.07 29.31 195.09C22.93 189.89 16.14 184.97 9.56998 180.2C6.41998 177.92 3.20998 175.58 0.0299805 173.21V174.67C2.98998 176.87 5.95998 179.03 8.88998 181.14C15.45 185.89 22.23 190.81 28.58 195.99C174.51 314.95 273.55 371.63 336.4 371.63C344.63 371.63 352.24 370.66 359.26 368.73C400.61 357.34 416.36 314.1 431.58 272.28C446.83 230.4 461.23 190.84 499.13 180.61C553.06 166.05 645.93 215.63 791.4 336.67C800.74 344.44 810.2 352.47 819.36 360.23C828.25 367.77 837.44 375.56 846.62 383.22C939.64 460.93 1033.29 527.42 1124.97 580.86C1211.14 631.08 1296.17 670.15 1377.72 696.97C1398.77 703.89 1419.55 709.98 1440.04 715.26V714.06C1419.67 708.81 1399.01 702.74 1378.09 695.86C1296.62 669.06 1211.66 630.03 1125.56 579.85H1125.54ZM777.54 292.47C761.8 280.13 744.72 266.44 723.8 249.38C568.21 123.08 471.04 71.74 418.01 87.8C383.53 98.24 372.01 135.4 360.86 171.34C350.09 206.06 339.92 238.86 310.38 246.69C285.75 253.22 249.89 241.24 200.73 210.09C149.34 177.54 83.48 124.26 -1.95317e-05 47.68V49.27C83.15 125.5 148.82 178.6 200.08 211.08C249.53 242.42 285.7 254.43 310.66 247.82C340.82 239.83 351.09 206.73 361.96 171.69C373.02 136.04 384.45 99.18 418.34 88.92C442.94 81.47 476.72 88.71 521.62 111.06C573.7 136.99 639.59 182.53 723.06 250.28C743.99 267.34 761.07 281.04 776.81 293.39C955.05 433.24 1132.36 532.46 1303.81 588.29C1349.88 603.29 1395.43 615.07 1440.01 623.55V622.36C1395.55 613.89 1350.12 602.15 1304.17 587.18C1132.85 531.39 955.66 432.23 777.53 292.47H777.54ZM794.98 314.98C780.51 303.46 765.9 291.49 751.78 279.92C748.16 276.95 744.53 273.98 740.9 271.01C587.95 145.84 491.91 94.83 438.62 110.49C403.24 120.89 390.85 159.13 378.86 196.11C366.9 233.02 355.61 267.88 323.32 276.51C297.66 283.36 261.24 272.43 212 243.07C157.75 210.75 88.29 156.47 -1.95317e-05 77.41V78.98C87.98 157.71 157.24 211.81 211.38 244.09C251.35 267.92 282.97 279.67 307.34 279.67C313.17 279.67 318.59 279 323.6 277.66C356.5 268.87 367.89 233.71 379.95 196.49C391.84 159.8 404.13 121.85 438.92 111.63C463.71 104.34 497.4 111.65 541.91 133.95C593.34 159.72 658.18 204.86 740.13 271.93C743.76 274.9 747.39 277.87 751.01 280.84C765.14 292.41 779.74 304.38 794.22 315.91C975.78 460.68 1155.62 562.21 1328.77 617.68C1366.41 629.74 1403.57 639.49 1439.99 646.94V645.74C1403.69 638.31 1366.65 628.58 1329.13 616.56C1156.12 561.13 976.39 459.67 794.95 314.99L794.98 314.98ZM800.83 322.43C786.25 310.78 771.58 298.72 757.39 287.05C753.8 284.1 750.2 281.14 746.6 278.18C594.45 153.44 498.74 102.58 445.36 118.13C409.67 128.53 396.99 167.13 384.74 204.45C372.39 242.07 360.73 277.6 327.54 286.49C301.56 293.45 264.99 282.86 215.75 254.09C160.55 221.88 89.91 167.3 -1.95317e-05 87.43V88.99C89.6 168.54 160.05 222.93 215.14 255.11C264.67 284.04 301.53 294.68 327.83 287.63C361.63 278.57 373.93 241.08 385.84 204.82C398 167.78 410.57 129.48 445.67 119.25C470.53 112.01 504.19 119.32 548.59 141.59C599.83 167.29 664.35 212.27 745.84 279.08C749.45 282.04 753.04 285 756.63 287.95C770.82 299.62 785.49 311.68 800.08 323.34C982.26 469.39 1162.49 571.54 1335.77 626.96C1371.06 638.25 1405.87 647.47 1440.01 654.64V653.43C1405.98 646.28 1371.3 637.1 1336.13 625.85C1162.99 570.48 982.89 468.39 800.82 322.43H800.83ZM806.6 329.88C794.1 319.82 781.49 309.42 769.3 299.36C763.64 294.69 757.98 290.02 752.3 285.36C600.95 161.06 505.55 110.35 452.07 125.79C416.04 136.19 403.08 175.16 390.53 212.84C377.78 251.17 365.73 287.37 331.63 296.54C305.34 303.61 268.63 293.35 219.4 265.17C163.27 233.07 91.47 178.22 -1.95317e-05 97.59V99.15C91.16 179.46 162.78 234.14 218.79 266.19C268.31 294.53 305.31 304.82 331.91 297.67C366.62 288.34 379.33 250.15 391.62 213.21C404.07 175.81 416.93 137.14 452.37 126.91C505.45 111.59 600.52 162.23 751.54 286.26C757.22 290.92 762.88 295.59 768.54 300.26C780.73 310.32 793.34 320.72 805.85 330.79C988.48 477.96 1168.93 580.68 1342.19 636.07C1375.3 646.66 1407.96 655.4 1440.01 662.3V661.1C1408.08 654.22 1375.54 645.5 1342.55 634.95C1169.43 579.6 989.1 476.95 806.59 329.87L806.6 329.88Z" />
</svg>
